/* XPM */
static char *result[] = {
/* columns rows colors chars-per-pixel */
"50 50 250 2 ",
"   c #0A0906",
".  c #190705",
"X  c #14120C",
"o  c #19140E",
"O  c #0E1410",
"+  c #30100B",
"@  c #251F15",
"#  c #112D0C",
"$  c #352A0C",
"%  c #2C2619",
"&  c #372A17",
"*  c #131631",
"=  c #2F1F20",
"-  c #2E2D2D",
";  c #393227",
":  c #460809",
">  c #500709",
",  c #571711",
"<  c #730B07",
"1  c #690D15",
"2  c #740D14",
"3  c #7B0D15",
"4  c #691817",
"5  c #771318",
"6  c #4D2E0F",
"7  c #49380D",
"8  c #722C12",
"9  c #7A3814",
"0  c #441B2E",
"q  c #661A2B",
"w  c #492D2E",
"e  c #453B29",
"r  c #693430",
"t  c #0E520B",
"y  c #2A4B0F",
"u  c #136D0C",
"i  c #097508",
"p  c #2B770C",
"a  c #345A33",
"s  c #4C4C0C",
"d  c #574310",
"f  c #5D4711",
"g  c #664C14",
"h  c #794914",
"j  c #6B5313",
"k  c #775915",
"l  c #686F0F",
"z  c #7A6517",
"x  c #54452A",
"c  c #524633",
"v  c #5A4C37",
"b  c #654E2D",
"n  c #66563A",
"m  c #576A21",
"M  c #22275C",
"N  c #313552",
"B  c #2E376B",
"V  c #492D45",
"C  c #56377D",
"Z  c #2B485F",
"A  c #3B4171",
"S  c #514E4E",
"D  c #6B5449",
"F  c #776447",
"G  c #736C54",
"H  c #4C5179",
"J  c #767169",
"K  c #850E14",
"L  c #861517",
"P  c #8E1218",
"I  c #941119",
"U  c #9A191A",
"Y  c #B5090B",
"T  c #A51B1B",
"R  c #92281A",
"E  c #853A17",
"W  c #97361A",
"Q  c #AA1D22",
"!  c #873325",
"~  c #B62723",
"^  c #BA3723",
"/  c #CA0A06",
"(  c #C32F26",
")  c #CB3628",
"_  c #D33A2A",
"`  c #DA3B2C",
"'  c #824416",
"]  c #844A17",
"[  c #885517",
"{  c #955018",
"}  c #AC4B1D",
"|  c #886307",
" . c #886916",
".. c #9A6A18",
"X. c #977419",
"o. c #9C791A",
"O. c #AC6917",
"+. c #A47918",
"@. c #B27B19",
"#. c #957A2F",
"$. c #D5542E",
"%. c #E07821",
"&. c #994C40",
"*. c #866F4C",
"=. c #967D56",
"-. c #B27D5F",
";. c #9D466C",
":. c #8C796B",
">. c #DF5C59",
",. c #E37151",
"<. c #E46F6A",
"1. c #0B8709",
"2. c #0D980B",
"3. c #139019",
"4. c #27890E",
"5. c #12AB0D",
"6. c #11B70D",
"7. c #25A713",
"8. c #339634",
"9. c #29AF2B",
"0. c #719511",
"q. c #599821",
"w. c #12C60E",
"e. c #17D113",
"r. c #2ED32F",
"t. c #34E535",
"y. c #57C736",
"u. c #668746",
"i. c #64A94F",
"p. c #3BCE40",
"a. c #4CD04E",
"s. c #66D562",
"d. c #63D569",
"f. c #6EEE70",
"g. c #8E9012",
"h. c #A4821A",
"j. c #AA851C",
"k. c #B4891B",
"l. c #A49011",
"z. c #BA9C17",
"x. c #B48721",
"c. c #BC9221",
"v. c #B5A73E",
"b. c #D4861F",
"n. c #C5A718",
"m. c #D2B418",
"M. c #D8B71A",
"N. c #ECA913",
"B. c #C28823",
"V. c #C89922",
"C. c #DA9521",
"Z. c #F29038",
"A. c #D3A824",
"S. c #DAC614",
"D. c #DCD010",
"F. c #E6C616",
"G. c #E8D914",
"H. c #F0DD16",
"J. c #F7EA14",
"K. c #FDF312",
"L. c #F2E331",
"P. c #98885D",
"I. c #B28F55",
"U. c #B8B046",
"Y. c #9C8666",
"T. c #938771",
"R. c #A48961",
"E. c #AB9369",
"W. c #B69569",
"Q. c #A69475",
"!. c #B49A73",
"~. c #B8B076",
"^. c #D9935C",
"/. c #F79A46",
"(. c #E38853",
"). c #D0B459",
"_. c #E6AF50",
"`. c #DD9571",
"'. c #ED877D",
"]. c #D2AB68",
"[. c #C9A875",
"{. c #D4AD75",
"}. c #D7AE79",
"|. c #D6B176",
" X c #D9B276",
".X c #D6B27A",
"XX c #DCB57C",
"oX c #DEB97E",
"OX c #E8AB67",
"+X c #E7B67A",
"@X c #E0BA7F",
"#X c #BFCE45",
"$X c #DEC754",
"%X c #EADA4D",
"&X c #EAD954",
"*X c #FAF24E",
"=X c #D8C663",
"-X c #E8D468",
";X c #EBDB74",
":X c #F9F16D",
">X c #3A4490",
",X c #4A4F94",
"<X c #6C739E",
"1X c #4851AF",
"2X c #5D66B1",
"3X c #4E5BD0",
"4X c #5964D9",
"5X c #717BC7",
"6X c #6A74D9",
"7X c #5A64E0",
"8X c #797BEC",
"9X c #78F781",
"0X c #7F88DF",
"qX c #B4A58E",
"wX c #C9B088",
"eX c #DEB680",
"rX c #D6B885",
"tX c #DEBB82",
"yX c #E2B781",
"uX c #E2BD83",
"iX c #E5BE89",
"pX c #A9EFA8",
"aX c #D8C38F",
"sX c #E4C186",
"dX c #EAC086",
"fX c #E6C48B",
"gX c #E8C68D",
"hX c #E7C98D",
"jX c #E9C98E",
"kX c #E5D88B",
"lX c #E6C690",
"zX c #E7C991",
"xX c #EACB93",
"cX c #EACC95",
"vX c #ECD097",
"bX c #E5D896",
"nX c #EDD39B",
"mX c #FDF989",
"MX c #F4EF90",
"NX c #EED7A1",
"BX c #E5D5B5",
"VX c #F4EDB3",
"CX c #9698D7",
"ZX c #9FA2DD",
"AX c #898DE9",
"SX c #ABACE3",
"DX c #C1C3DC",
"FX c #F1CAC9",
"GX c #F6F3D4",
"HX c #F2F2F0",
/* pixels */
"sXiXsXyXXX X{. X{.XXXXsXhXfXgXgXgXiXyXuXXXXX@X@XsXsXtXtXsXfXhXfXsXuXtXXXtXoXsXtXsXsXsXsXuXuXuXuXiXsX",
"uXsXsXiXuXXX X.X.X{..XXX@XfXlXzXcXcXgXiXyX@XXX@XsXsX;X@XsXfXfXfXuX@XXXXXoXoXoXoXoXoXoXsXoXXXXX@X@X@X",
"tXsXfXfXiXiXyXXXXX.X.X XXXuXiXgXgXiXiXyXyX@XtXtXsXsXsXsXhXhXsXsXiXuX@XtXoXXXoXoXoXoXaXsXoXoXXXeXXXtX",
"hXlXzXcXjXhXfXiXuXtXXXXXXXyX@XuXiXyXyX}.}.XXXX+XoXsXhXkXjXjXsXsXfXfXhXfXhXfXfXsXhXhXsXsXfXuXsXuXuXdX",
"zXcXnXnXvXcXcXlXhXfXsXiXiXiXyX XR.G x 7 7 $ $ & D =.!.oXsXsXsX@XyXiXiXiXiXiXcXcXvXvXvXvXcXzXlXhXlXlX",
"fXiXlXlXlXgXhXzXhXhXlXzXhXzX.XE.e h.A.A.B.@...{ 1 . D P.[..XoXoXyXyX@XXXwXqXrXiXsXfXhXhXxXxXcXlXfXsX",
"eXtXuXtXwXiXfXiXsXfXfXiXsXiXW.% ].J.H.A.} U I I I I 1 + V R.[.|.}.eXXXXX}.}.}.}. XXXtXtXsXfXfXiXyXtX",
"XXXXtXtXfXsXsXsXsXsX@XXX}.Y.% ].H.A.} U ~ ~ U I I I I P 5 + - T.}.}.eXyXXX}.}.}.|. X.XXX@X@X=XiXoXXX",
"XXoXoXuXsXgXhXsXsXsXtXtX=.$ h.J.A.W ^ ) _ _ ) ( I I I I I I 5 : - J sXfXyXXX}.}..X.X.X.XoXoXoXoXtXoX",
"yXtXtXfXsXfXfXfXuXuXtXXX=.% ).J.A.) ) _ _ _ _ _ ( ) I I I I I P 5 4 % J rXiXeXeXXXXXoX.XoXoX@X@XoXoX",
"oXoXsXsXsXfXgXjXsXoXoXXX=.@ I.=XOXF.C.^ ( _ _ _ ` _ ( ~ Q I W { { [ j b e [.yXyXeXeXoXsXoXsX@X@XuXoX",
"sXtXuXsXuXsXfXjXkXfXsXtXE.e 7 b &._.$XA.b.$.) ~ _ _ _ ~ } -.].S.m.k.o. .g x W.iXiXsXsXsXsXsXsXhXfXsX",
"sX@XsXsXsXoXiXuXhXfXsXoX[.Y.n b + @.$X:X-X_.b.} $.) ~ } !.kX&Xn.O.{ h z X.g b R.yXfXfXiXsXsXoXoXoXsX",
"hXsXfXsX@XsXuXiXfXlXsX@XtXsXaX^.. l.S.[.aX:X*XM.%.$.R I.bX&Xz.' 2 2 2 9 ] X.d x W.tXtXtXoX.X.X.XoXtX",
"hXjXvXjXfXfXhXfXhXzXxXfXsXsXsX.XX G.n.g l.*XMXG.G.M.g.bX%Xk.E 3 I I I I 3 ] ..d n [.XX.XXXXXXXXXoXsX",
"nXnXnXnXbXcXcXlXfXfXiX@X@X@XoX.XX M...+.S.J.m...k.D.K.K.z.9 3 I I I I I I 2 [  .n G oXoXXXoXoXuXhXhX",
"NXNXvXcXcXgXuXyXXX.XXXXXXXtXrXqXo  .S.J.J.m. .h 8 j J.K.z.9 3 I I I I I I 2 ] X.d e tXtX@X;XiXlXnXnX",
"cXhXhXfXuX XOX.X.XXXoXoXtXfXaXrXG j X.h.h.|  .z...X.J.K.z.9 3 I I I I I I I 9  .d e tXtXhXvXnXNXNXnX",
"hXiXiXuX@X+XeXeXtXhXhXzXcXzXvXzXJ X 7 j j s y h.n.V.j.+.k 8 3 I I I I I I I 2 ' d e tXOXOXnXnXnXcXzX",
"iXfXiXuXuXiXtXe ; ; ; D Q.sXtXrX= h i.pXs.7.u $ $ k V.z.o. .E 2 3 I I I I I 2 ' d e iX/.Z.dXjXgXlXlX",
"fXfXiXiXsXsXtXX 8.Y.m t v oX[.e T.#.y.f.9Xp.i # 7  .h.X.j.z.+.[ ] 2 2 I I I 2 ' d e zX+XOX@XsXsXuXaX",
"sXfXiXsXsXtXtXO 8.a.a.8.y b v #.&XS.q.9.r.9.2.i  .c.aX#.j k +.c.@.] ] 5 3 I 2 h d e sXsXiX=XuXiXtXwX",
"uXyXfXuXsXtXQ.O i w.t.t.1.# F $XK.N.| m p 1.2.4.o.S.jX*.N N n #.+.x.j.' 9 5 4 [ d e fXsXiXyXtXsXuXyX",
"fXfXfXsXfXrXc O 1.5.e.e.7.u.%XK.N.` ` ~ g p u m  .S.#.H 5X2XB - h @.j.j.+.' k  .7 e sXtXiXfXhXlXlXcX",
"iXgXfXgXhXrXX u 3.5.5.7.i.%XJ.S./ <.FX<.~ 8 6 L d X.A 3XDXAX>X0 3 I ' k.o.o.o.k $ v fXjXzXcXcXcXlXgX",
"XXeXXXeXyX[.= d.e.5.i u.=XK.G.k L / >.FX>.Y P <   f 3XAXSX0XC 4 T / / h X.o.o.7 - T.xXxXcXcXhXuXyXXX",
"+XXXeXeXtXsXaXX # 1.u u.qX-XG.o.. L Y >.` Y < :   B 3XCX6X>X0 4 &.yX/ V.+.o.o.7 D kXjXxXjXsXyXyXXX@X",
"XXXXeXXXtXsX.X4 8 9 7 0.K.*XHXGXL.z ! Y Y 3 > : O N B 1X3X3X>XV 4 W V.+.X.V.j.7 n zXjXjXfXuX@X@XXXXX",
"XXoXoXtXsXrX; W.'.( P k.D.k.v.*XGXGX&X+., > > 8 d.r.3.Z B A N q 8 B.+.o.9 m.m.f n tXtXfXfXsXuXyX@XXX",
"XX@X@XhXhXrXO &.( / T k.G.B.W } I.*XmXBX).l.6 # y.pX6.3.t * . 6 k.j.o.8 1 S.g.y y ; c tXXX@X@XXXXXXX",
"oX@XsXsXfXrXc @ < K < -.;XB.U ~ W O.I.;XMXNX~.g.q.i.5.2.i # 7 U.kXM.8 3 1 l 7.5.9.a @ oXoXXX X X{.XX",
"oXsXsXsXfXsXQ.F r + + :.BXB.T ) ~ ~ W +.).bXmX:X!.y.p i t m v.mX-X@.K P 6 8.t.f.f.8.@ XXXXoXyXyXuX@X",
"jXvXjXvXjXjXhXhXQ.F % G ;Xk.q ;.;.! q 5 W O.).bXMX:XQ.0.0.#X:X;X+.3 I P y d.pXpXf.2.% XXyXuXfXlXcXvX",
"jXjXxXxXhXkXsXsXoXoX=.l l.z - 0X6X2XV I I I U O.A.BXVX:X:XmX;Xk.3 I I P t y.pXa.w.2.# Y.wXaXlXgXfXgX",
"tXyX;XyX@XoXoX.X.X|.|.F o O H HXSXSX,Xq I I I U U ..H.GXGX:Xk.2 I I I P y w.e.6.2.1.t # G .XuX@XyXXX",
"tXtXyXyXoX.X|. X.X[.]..XR.* B CXHXAX7XM , L Q _ ) T U G.K.n.] 2 I I I L 1.2.w.6.2.6.e.d.O [.eX@XXXeX",
"yXuXuXsXtXXXXX X{.{.{.[.[.=.* 3XSXHXAX3XM , _ _ _ _ U F.F.k.] 2 I I 5 t w.e.e.6.6.e.6.t O [.tXeXeXeX",
"oXuXiXfXtXOX^.|.XXXX X*.@ X X B ZXSX8X4XM , _ _ _ _ U F.J.n.] 2 I L   t w.e.w.2.1.t   X E.eX}.eXOX X",
"OXsXfXsXrX(.,.{.{.{.|.F * 2XDXCX7X8X8X7XM + Q _ _ ` U BX*Xn.h 2 2 .     s.9.i # # G E.W.}.eXyXyXZ.Z.",
"sXcXcXzXyX X X X{.{.`.W.S N <X6X4X7X,XM * = r , T _ U FX*Xm.[ > 6 E.R.Y.y # a G R.~.}.yXyXiXgX+X/.Z.",
"gXcXnXcXgXuXeX X{.{.{.[.!.F A M M M * - F Y.Q.F D , : =X%Xz.h w R.fXuXoX=.*.Y.[.uXuXyXiXiXfXfXlXyX+X",
"fXfXgXgXlXlXfXuXyXXXXX X}.}.R.n n n D :.wXzXcXfXQ.G ; l z f f *.yXsXuX@XyXfXfXlXlXfXiXyX@XyXiXiXiXiX",
"yXuXiXuXiXiXfXfXgXlXiXyXtXtXyXyX@XXXtXyXtXiXhXzXgXgXT.n e x *.iXuXuXuXdXuXsXsXsXfXzXgXiXyXyX@XyXyXeX",
"XXyX@X@X@XXXXXyXyXfXlXjXgXhXfXiXyXtXyXyXtXyXiXfXlXfXfXsXoXXXXXoXuXfXiXuXsXiXiXuXiXfXlXgXiXyXyXyXyXXX",
"oXtXtXXXXX.X.X XXXtXuXfXcXvXcXgXfXiXuXuXsXsXsXfXiXrXoXXX|.XXoXsXzXjXyXoXoXXXXXXXXXtXiXfXlXlXfXiXtXXX",
"yXtXuXXX X{.{.{.}. XXXtXfXcXnXgX/.yXfXgXhXfXsXoXwXwX|.|.|.oXsXhXvXzXiX@XXX.X.X}.{.{..XXXiXhXcXcXiXiX",
"gXfXfX@XXX X{.{.{.|..XXXtXfXxXiX/.gXvXcXfXtXtX.X.X.X|.XXtXfXhXvXNXvXfXuXtXXXXX}.{.{.{..XXXiXfXlXhXhX",
"fXgXcXjXsX@X X{.{.{.|.XXXXoXdXdXfXxXhXuXeXXXXXXX X.XXXsXhXxXzXvXnXnXcXhXfXyXoXtX X X XXXoXXXuXiXuXuX",
"yXuXsXuXfXfXsXtXXXXXXXXXXX+XoX@XfXfXiX@XXXXXoXoX@X@XfXjXnXnXvXvXvXvXcXcXjXfXfXsXsXuXtXoXoXoX@XuX@X@X",
"uXuXuXoXoXoXuXyXuXuXuXiXuX@XuXsXsXsXuX@X@XiX@XuXfXjXjXjXjXnXvXvXzXgXfXfXfXfXfXfXfXhXhXhXfXsXsXsXoX@X"
};
