/* XPM */
static char *result[] = {
/* columns rows colors chars-per-pixel */
"50 50 185 2 ",
"   c black",
".  c #0C080E",
"X  c #120C0F",
"o  c #130D14",
"O  c #1A0F10",
"+  c #1B1215",
"@  c #1D151A",
"#  c #211316",
"$  c #2C1A14",
"%  c #261919",
"&  c #251A1B",
"*  c #1C1422",
"=  c #2A2321",
"-  c #2C2036",
";  c #2E243A",
":  c #332337",
">  c #3A2737",
",  c #342639",
"<  c #3A2738",
"1  c #36293B",
"2  c #3B293B",
"3  c #452C39",
"4  c #4B2F3A",
"5  c #46313F",
"6  c #4A313D",
"7  c #55343B",
"8  c #58353C",
"9  c #6C3F3E",
"0  c #70413F",
"q  c #322C42",
"w  c #382B40",
"e  c #343046",
"r  c #35344A",
"t  c #3C364A",
"y  c #393B51",
"u  c #463640",
"i  c #4C3642",
"p  c #4E3A43",
"a  c #523D46",
"s  c #593B41",
"d  c #533F48",
"f  c #3E465C",
"g  c #3F495F",
"h  c #524047",
"j  c #5C4245",
"k  c #55414A",
"l  c #58464B",
"z  c #664947",
"x  c #774642",
"c  c #754B46",
"v  c #66504E",
"b  c #72514C",
"n  c #7D544C",
"m  c #7E584E",
"M  c #6A5753",
"N  c #745650",
"B  c #795B52",
"V  c #444E64",
"C  c #45556B",
"Z  c #495368",
"A  c #4C5A6E",
"S  c #525C6F",
"D  c #4B5B70",
"F  c #525D72",
"G  c #4F6075",
"H  c #546275",
"J  c #586578",
"K  c #5C6B7D",
"L  c #626B7C",
"P  c #844A42",
"I  c #8B4E42",
"U  c #88554A",
"Y  c #975344",
"T  c #805E54",
"R  c #876357",
"E  c #866657",
"W  c #986C5A",
"Q  c #87705C",
"!  c #8C735E",
"~  c #B16048",
"^  c #B96A4F",
"/  c #A56650",
"(  c #A6755E",
")  c #AE7159",
"_  c #BE7154",
"`  c #BD795A",
"'  c #897160",
"]  c #C17757",
"[  c #C27758",
"{  c #C47A5A",
"}  c #E47E46",
"|  c #D2803E",
" . c #F38F32",
".. c #F2913B",
"X. c #9F8265",
"o. c #93847B",
"O. c #A28366",
"+. c #A78867",
"@. c #B78A69",
"#. c #AE916A",
"$. c #B7986E",
"%. c #AF9271",
"&. c #AF9976",
"*. c #B89873",
"=. c #BC9C72",
"-. c #BEA175",
";. c #CA825C",
":. c #C8925C",
">. c #F69B47",
",. c #E38853",
"<. c #CC8461",
"1. c #D28B66",
"2. c #C6916D",
"3. c #D79269",
"4. c #DA976D",
"5. c #DC9A6B",
"6. c #C19D73",
"7. c #DC9D72",
"8. c #E09E72",
"9. c #DCA66A",
"0. c #C5A477",
"q. c #C3A57A",
"w. c #C5A97F",
"e. c #D5AE75",
"r. c #D7AC79",
"t. c #D7B176",
"y. c #DAB377",
"u. c #D7B27A",
"i. c #DCB57C",
"p. c #DEB97E",
"a. c #E3AF6F",
"s. c #E3A375",
"d. c #E7A878",
"f. c #E9AB7A",
"g. c #E0B67C",
"h. c #EBB77B",
"j. c #E0BA7F",
"k. c #627284",
"l. c #697787",
"z. c #6C7C8B",
"x. c #717F8D",
"c. c #6D808F",
"v. c #748492",
"b. c #768997",
"n. c #798C9A",
"m. c #7D909D",
"M. c #81909C",
"N. c #8599A5",
"B. c #8799A5",
"V. c #93A3AD",
"C. c #94A7B1",
"Z. c #9FB0B7",
"A. c #A2B8BF",
"S. c #C5AB83",
"D. c #CBAB80",
"F. c #D6B786",
"G. c #DDB680",
"H. c #DFBB82",
"J. c #D9BA8B",
"K. c #D1B893",
"L. c #E1B781",
"P. c #E2BD83",
"I. c #E9BB83",
"U. c #E5BE89",
"Y. c #DFC087",
"T. c #E4C186",
"R. c #EAC086",
"E. c #E6C48B",
"W. c #E9C68D",
"Q. c #E7C98D",
"!. c #E9C98E",
"~. c #E7C790",
"^. c #E8C790",
"/. c #E7C991",
"(. c #EACC93",
"). c #ECCF98",
"_. c #ECD097",
"`. c #EDD39B",
"'. c #EED7A1",
"]. c #EED8A2",
"[. c #A6BCC3",
"{. c #A9C0C7",
"}. c #AFC7CC",
"|. c #B0C7CC",
" X c #B9D1D5",
/* pixels */
"T.U.P.L.i.y.e.t.e.u.p.T.E.E.W.E.^.U.I.H.p.p.p.H.T.T.T.T.T.T.Q.Q.T.P.H.H.H.p.P.H.T.T.E.T.P.P.P.T.T.P.",
"P.T.E.U.P.i.t.u.u.e.u.i.P.E.~./.).^.^.P.L.p.i.p.T.T.j.T.T.T.T.T.P.H.i.p.p.i.p.p.p.p.Y.H.p.i.i.g.j.L.",
"H.T.E.E.U.U.L.i.i.u.t.t.i.L.R.Q.~.U.U.L.I.L.P.P.T.T.T.T.Q.Q.T.T.T.P.H.H.p.i.H.p.P.Y.Y.Y.p.p.p.p.p.j.",
"Q.~./.(.!.W.E.E.P.H.G.i.i.j.L.U.U.U.L.r.r.t.i.i.P.Y.Q.Q.!.!.T.T.T.E.Q.E.Q.Y.T.E.T.T.T.T.T.T.H.P.U.T.",
"/.).).`.).)./.~.Q.E.T.U.U.U.j.L.L.L.L.G.G.r.i.i.y.p.p.T.T.T.T.T.H.T.T.T.U.E.~.)._._._._._.!./.Q.Q.~.",
"U.U.^./.W.Q.^.~.Q./././.F.l ; ; t q t t t t t t t t t t u e r 1 t q q q u o.F.U.T.T.E.Q.(.(.Q.E.U.E.",
"H.H.H.H.K.U.E.U.T.T.E.T.N ; V C z.F v.v.v.v.v.v.b.v.v.v.l.H K K c.H C C - h u.u.i.i.p.Y.T.T.T.T.H.H.",
"i.i.H.H.H.T.T.T.T.T.H.p.v - y f f f f f V f f f f f f f f g g g f f f f - p r.u.y.i.u.u.p.j.T.T.i.i.",
"i.p.p.P.T.Q.E.T.P.Y.-.+.N 8 8 8 4 - 3 8 8 8 8 8 = ; 8 8 8 8 8 3 - 6 8 8 8 z ( #.u.u.u.u.p.p.p.p.L.p.",
"L.H.H.E.T.E.Q.E.P.H.Q - P { <.<.) , s <.<.<.<.<.u ; <.;.<.{ ~ 9 - I { <.<.) - v i.p.p.p.p.p.p.p.p.p.",
"p.p.T.T.E.E.Q./.w.B m x Y { 7.W T x U <.4.4.8.f.h - :.<.8.[ ~ I 0 9 T r.s._ x U E #.p.p.p.p.Y.T.H.H.",
"T.H.T.P.P.P.E.Q.&.- n 3.3.3.7.p i 1.3.3.8.8.s.f.p - 3.5.d.3.3.3.3.s < 2.d.4.3.W - ! T.T.T.T.T.T.E.T.",
"T.p.E.Y.P.j.T.e.l ; b 3.f.f.{ 5 4 ` f.f.f.f.f.<.4 - { d.f.f.f.f.1.8 1 / f.f.s.U - p &.E.Y.Y.p.Y.p.E.",
"T.E.T.T.T.j.H.=.; ; 1 u h a u 2 , i d k d k l a w 1 a k k k k k 6 > 1 5 h a a 1 ; ; X.i.p.u.y.y.p.j.",
"!.(.(.(.Q.Q.w.h 1 g V g k.D V l.Z x.v.v.B.Z.A.M.V.n.C.v.x.v.v.v.v.v.v.v.l.S k.V V r 5 #.y.p.p.u.p.Y.",
"`.`.`.`._.(.S.1 e C k.n.n.n.n.n.n.n.n.n.C.}.}.B.A.N.[.M.n.n.n.b.n.n.n.n.n.n.n.z.C y - +.p.p.p.P.T._.",
"'.'.(.)./.W.+.< q V V V V V V V V V V Z K v.b.F z.S z.Z V V Z V V V Z V V V V V V r - ! i.T.T._.`.`.",
"_.!.E.E.P.g.- - - - - - - - - - - - - - - - - - - - - - - - - - - - - - - - - - - - - - q.(.`.`.].`.",
"Q.U.T.P.j.j.- * + # # # # o o o # # # # # # # # o o # # # # # # # # o o o # # # # + * - :._.`._.(./.",
"U.E.I.T.U.U.- o                                                                     + - | R./.Q.Q.~.",
"E.E.U.U.T.U.- +                                                                     # - :.P.T.T.H.K.",
"T.E.U.T.T.P.- @                                                                     & - -.P.T.P.H.K.",
"P.P.U.P.P.U.- +                                                                     % - =.H.P.T.P.P.",
"E.E.E.T.T.E.- @                                                                     & - q.E.E.!.Q.^.",
"U.E.W.W.E.Q.- @                                                                     & - S.).).(.^.E.",
"i.G.i.L.L.T.- @                                                                     = - S.(.R.P.j.j.",
"g.i.G.L.P.T.- @                                                                     & - w.T.P.j.y.i.",
"i.i.G.i.H.T.- @                                                                     & - q.L.j.p.g.i.",
"i.i.p.T.T.Q.- @                                                                     & - 0.U.P.L.j.i.",
"i.p.P.Q.!.(.- +                                                                     & - =.j.p.i.i.g.",
"g.j.T.T.Q.T.- +                                                                     # - =.i.t.i.t.i.",
"p.T.T.T.T.T.- +                                                                     # - =.i.p.H.L.L.",
"(._.!._.(.Q.; +                                                                     # - 0.U.T.)._.).",
"Q.!.(.(.Q.Q.- + O $ $ $ $ O . X $ $ $ $ $ $ $ $ X . $ $ $ $ $ $ $ $ X . X % $ $ $ + @ - q.~.~.Q.E.R.",
"p.T.I.T.j.p.- - , 5 3 3 3 : ; - 3 3 3 3 3 3 3 3 - - 3 3 3 3 3 4 3 3 : - ; 3 3 3 3 , - - 0.U.H.G.j.p.",
"p.j.j.j.p.u.$.> e C A c.k.b.N.N.N.N.B.N.B.B.B.{.C.}. X X X[.A.A.N.B.B.B.m.H D G Z y - %.H.L.H.i.g.p.",
"j.T.T.T.H.p.$.> e C K b.b.b.n.n.n.n.n.n.b.b.n.A.B.[.|.|.|.Z.C.C.n.n.n.n.n.z.H l.C y - &.T.H.H.G.y.i.",
"j.j.I.T.H.9.;.z q f f f f f f f f f f f V f V J V L l.l.l.J S S f f f f f f f f f e p *.i.H.i.G.s.r.",
"a.E.T.T.i.,.} $.- - - - - - - - - - - : - - - - - - - - - - - - - - - - - - - - - - ( u.r.i.G.G... .",
"T.!._.Q.P.y.r.6.v - 4 b R R E 1 > 0 R R T T R c < - c R T R R R c < , B R R m 8 - k 6.L.P.U.E.h.>...",
"Q.)._._.W.I.i.t.O.- 9 _ <.<.7.p 3 ~ <.<.4.4.7.3.6 - 1.s.<.;.<.<.^ 7 , 2.s.<.{ P - Q P.I.U.U.~.~.I.h.",
"U.E.^.W./.^.U.U.u.O.m 8 Y <.s.@.W 8 n 3.7.s.s.f.a - d.d.;.] { 0 8 x ( r.f.;.8 N %.q.U.P.G.G.I.U.U.U.",
"L.P.T.U.U.U.E.W.Q.E.' - P _ [ ` / < s ` [ [ ] ] 4 - ] ] ] ^ ^ 0 - I _ [ _ / - M E./.~.U.P.L.G.P.L.G.",
"i.G.L.j.p.t.i.L.H.E.J.D.N 3 3 3 3 - - 3 3 3 3 3 - - 3 3 3 3 3 > - > 3 3 3 j 0.w.T.~.~.U.U.L.L.L.L.i.",
"j.G.p.i.t.t.t.t.i.L.P.E.M - - - ; - - - - - - - - - - - - - - - - - - - - p G.i.i.H.U.E./.~.U.U.H.i.",
"P.P.P.i.u.e.u.e.u.t.i.H.E.).`.W.>.h.Q.Q.Q.E.T.Y.w.S.i.y.u.p.Y.!.).^.U.g.i.u.u.e.e.e.u.G.U.^.).(.U.U.",
"W.E.E.L.i.u.e.e.e.e.u.i.H.T.!.R.>.W.(.).E.P.H.u.u.u.y.i.H.E.!.`.'.).E.U.H.G.t.e.e.e.e.u.i.U.E.^.Q.Q.",
"E.W.(./.T.j.t.e.e.e.t.i.i.j.T.E.T.).W.P.H.u.u.i.y.u.i.T.Q.(.!.(.`.`.).E.T.P.j.p.i.r.t.i.i.i.P.U.P.P.",
"H.P.T.U.E.E.T.p.i.i.i.i.g.g.j.P.T.E.R.p.i.i.p.p.j.P.T.Q._.`._._._.)._.(.!.E.E.T.T.P.H.p.p.p.P.p.P.j.",
"P.P.P.p.i.j.L.P.P.P.T.P.P.j.P.P.T.T.P.L.P.U.j.P.T.!.!._._._._.(.(.E.E.R.E.T.E.W.E.Q.Q.Q.E.T.T.T.p.j."
};
