/* XPM */
static char *result[] = {
/* columns rows colors chars-per-pixel */
"50 50 190 2 ",
"   c #2C2036",
".  c #2E243A",
"X  c #332337",
"o  c #392737",
"O  c #352639",
"+  c #392738",
"@  c #36283B",
"#  c #3C293A",
"$  c #452C39",
"%  c #4B2F3A",
"&  c #46313F",
"*  c #4A323D",
"=  c #55353C",
"-  c #58353C",
";  c #643B3E",
":  c #6C3F3E",
">  c #70413F",
",  c #322C42",
"<  c #382B40",
"1  c #343046",
"2  c #35344A",
"3  c #3C364A",
"4  c #393B51",
"5  c #463640",
"6  c #4C3641",
"7  c #4F3A43",
"8  c #523D46",
"9  c #5B3B41",
"0  c #533F48",
"q  c #3E465C",
"w  c #3F495F",
"e  c #524047",
"r  c #5C4245",
"t  c #55414A",
"y  c #58464B",
"u  c #624446",
"i  c #644A4B",
"p  c #6B4948",
"a  c #744643",
"s  c #754B46",
"d  c #7B4943",
"f  c #66504E",
"g  c #7A564D",
"h  c #7D544C",
"j  c #695653",
"k  c #745650",
"l  c #775C53",
"z  c #444E64",
"x  c #45556B",
"c  c #495368",
"v  c #4C5A6E",
"b  c #4F5C70",
"n  c #525D72",
"m  c #4F6075",
"M  c #546275",
"N  c #586578",
"B  c #5C6B7D",
"V  c #626B7C",
"C  c #844A42",
"Z  c #8B4E42",
"A  c #895449",
"S  c #995445",
"D  c #965848",
"F  c #805E54",
"G  c #A85D47",
"H  c #876357",
"J  c #866657",
"K  c #976A58",
"L  c #87705C",
"P  c #8C735E",
"I  c #AC624B",
"U  c #B2624A",
"Y  c #B5684E",
"T  c #B86A4E",
"R  c #A56651",
"E  c #B36A50",
"W  c #BA6D51",
"Q  c #AB725A",
"!  c #BE7254",
"~  c #BD795A",
"^  c #897160",
"/  c #B27E63",
"(  c #C17757",
")  c #C27758",
"_  c #C47A5A",
"`  c #D2803E",
"'  c #F29038",
"]  c #998370",
"[  c #A28366",
"{  c #A78867",
"}  c #BD8565",
"|  c #AC906F",
" . c #B7986E",
".. c #AF9473",
"X. c #B89873",
"o. c #BC9C72",
"O. c #BEA175",
"+. c #C98557",
"@. c #CA815F",
"#. c #C8925C",
"$. c #F69B47",
"%. c #E38853",
"&. c #CC8461",
"*. c #CA8764",
"=. c #D18B65",
"-. c #D58F68",
";. c #C6916D",
":. c #D69269",
">. c #DA966C",
",. c #DC9A6E",
"<. c #C19D73",
"1. c #DD9D71",
"2. c #E09E72",
"3. c #C5A477",
"4. c #C3A57A",
"5. c #C5A97F",
"6. c #DDA276",
"7. c #D5AE75",
"8. c #D7AC79",
"9. c #D7B176",
"0. c #DAB377",
"q. c #D7B27A",
"w. c #DCB57C",
"e. c #DEB97E",
"r. c #E3AF6F",
"t. c #E3A375",
"y. c #E6A97A",
"u. c #E9AB7A",
"i. c #E0B67C",
"p. c #EBB27E",
"a. c #E0BA7F",
"s. c #ECB879",
"d. c #5E6E80",
"f. c #626F80",
"g. c #627284",
"h. c #697787",
"j. c #6C7C8B",
"k. c #717F8D",
"l. c #6D808F",
"z. c #748492",
"x. c #768997",
"c. c #798C9A",
"v. c #7D909D",
"b. c #81909C",
"n. c #8599A5",
"m. c #8799A5",
"M. c #93A3AD",
"N. c #94A7B1",
"B. c #9FB0B7",
"V. c #9EB4BC",
"C. c #C5AB83",
"Z. c #CBAB80",
"A. c #CCB182",
"S. c #DDB680",
"D. c #DFBB82",
"F. c #D7B889",
"G. c #D1B893",
"H. c #E1B781",
"J. c #ECB581",
"K. c #E2BD83",
"L. c #EEBA85",
"P. c #E5BE89",
"I. c #DFC087",
"U. c #E4C186",
"Y. c #EAC086",
"T. c #E6C48B",
"R. c #E9C68D",
"E. c #E7C98D",
"W. c #E9C98E",
"Q. c #F2C38B",
"!. c #E7C790",
"~. c #E8C790",
"^. c #E7C991",
"/. c #EACC93",
"(. c #ECCF98",
"). c #F6CE93",
"_. c #ECD097",
"`. c #EDD39B",
"'. c #F8D296",
"]. c #F9D598",
"[. c #FBDB9D",
"{. c #FCE09F",
"}. c #EED7A1",
"|. c #EED8A2",
" X c #FEE3A2",
".X c #A6BCC3",
"XX c #A9C0C7",
"oX c #AFC7CC",
"OX c #B0C7CC",
"+X c #B9D1D5",
/* pixels */
"U.P.K.H.w.0.7.9.7.q.e.U.T.T.R.T.~.P.L.D.e.e.e.K.U.T.U.U.U.U.E.E.U.K.D.D.w.D.I.a.U.a.U.U.U.a.a.U.U.U.",
"K.U.T.P.K.w.9.q.q.7.q.w.H.T.~.~.(.~.T.K.H.i.w.e.I.a.a.U.U.U.U.U.K.D.w.w.e.w.e.e.e.K.I.I.a.w.w.a.a.a.",
"D.U.T.T.P.P.H.w.w.q.q.9.w.K.P.R.~.P.P.S.K.H.K.K.U.U.U.U.E.E.U.U.T.K.D.S.e.w.e.w.K.e.I.D.e.w.e.w.w.H.",
"E.!.^./.W.R.T.T.K.D.w.w.e.a.K.K.P.H.S.S.8.9.w.H.K.U.E.E.E.E.E.U.U.T.E.E.E.T.T.T.U.E.E.U.U.U.I.I.K.Y.",
"^.(.(.`.(.(.^.!.E.T.U.P.P.K.H.w.H.H.H.S.S.8.w.w.0.e.e.U.U.E.U.I.D.U.K.U.P.I.!.(._._.`._._.E.W.W.E.^.",
"P.P.~.^.R.E.~.!.^.E.!.^.F.y , , 3 , 3 3 3 3 3 3 3 3 3 3 5 @ 2 @ 3 1 , , 5 ] F.P.U.T.U.E././.W.U.U.T.",
"D.D.D.D.G.P.T.P.U.U.U.P.k   q z j.n z.z.z.k.z.z.x.z.z.z.g.M B B l.m x x . 0 9.w.0.w.e.K.U.T.T.U.D.D.",
"w.w.D.D.D.U.U.U.U.U.K.D.f   4 z q q w q z q w q q w q q w w w w q q q q   7 8.7.q.q.q.e.w.a.U.K.S.w.",
"w.e.e.K.U.!.T.U.K.I.O.{ k - - - %   $ 9 - 9 - 9 X   - - - - - $   * - - - a [ | q.q.q.q.e.e.e.e.D.e.",
"H.D.D.T.U.T.E.T.K.D.L   C _ &.&.Q X 9 &._ &._ &.5   &.+.&._ U :   C _ &.@.Q   f w.e.e.e.e.e.e.e.e.e.",
"e.e.U.U.U.E.E.^.4.L g a D _ 1.K F d A &.2.,.2.u.7   #.#.2.) U Z > : H 6.t.~ > A J | e.e.e.e.U.a.K.e.",
"U.D.U.K.K.K.T.E...  g :.:.:.1.7 6 &.:.:.2.2.t.u.7   :.>.t.:.:.:.:.r O ;.u.:.:.K   P U.U.U.E.U.E.T.U.",
"U.e.T.I.K.a.U.7.t   s :.y.u._ 5 % ~ u.u.u.u.u.&.%   _ u.u.u.u.u.=.- @ R u.u.6.D   7 X.T.U.I.e.e.e.U.",
"U.T.U.U.U.a.D.o.  . @ 5 0 0 5 @ O 6 0 0 0 y y 8 < @ 7 y r y 0 0 6 @ @ & e e 7 @ .   [ q.e.q.q.q.e.D.",
"W./././.E.E.5.e , z z z f.b z h.v k.z.k.m.B.B.b.M.c.M.z.z.z.z.k.z.z.z.z.h.v g.z w 1 5 | 0.e.e.e.e.U.",
"`.`.`.`._./.C.@ 1 x d.c.c.c.c.c.c.c.c.v.M.oXoXm..Xn..Xb.c.c.c.c.c.c.c.c.c.c.x.j.x q   { e.0.e.a.E.W.",
"}.}.(././.R.{ @ , z z z c z z z z z z z n c.k.n j.n k.c z z z z z z z c z z z z z 2   P w.U.T._.`.`.",
"/.E.E.T.K.i.                                X X                                         4.W.`.`.|.`.",
"!.T.Y.K.a.i.    + - 9 9 - +     9 9 9 9 ; 9 - 9 X   9 9 - 9 9 - - - X   o = - = - $     #._.`._./.^.",
"T.U.K.P.U.P.  + C T &.&._ 9 X ; T &._ _ =._ _ T $   U _ _ =._ _ &.@.s O * @.&.&.! Z $   ` U./.E.!.T.",
"T.P.T.P.U.U.  $ U T 2.>.2.i X S U _ -.u.u.u.u.-.6   ( _ 2.-.u.u.u.u.@.* 7 6.y.t.~ U -   #.K.U.T.I.F.",
"P.T.U.P.P.K.  * -.-.2.2.2.i @ / :.>.2.u.u.u.u.u.6   -.2.J.,.u.u.u.u.6.7 7 6.u.t.:.-.i   o.K.K.U.F.G.",
"K.K.P.K.K.P.  6 &.u.u.u.u.i X R u.u.u.u.u.u.u.u.9   J.L.J.].'.'.L.u.6.8 8 6.u.u.u.:.-   O.a.K.K.U.K.",
"T.T.T.U.P.P.  6 2.y.2.2.y.i @ } u.u.J.u.u.u.u.u.6   J.J.J.L.'.).p.u.6.8 * 6.u.u.u.t.p   3.T.E.R.E.^.",
"P.P.R.T.R.E.  7 1.D 8 A >.i @ ;.u.J.[.{.).L.L.u.6 X u.J.].[. X XL.u.6.7 7 6.u.u.u.u.f   C./.(.(.T.T.",
"w.H.w.H.H.U.  7 /       / i @ ;.u.J. X XL.Q.L.u.6   u.J.].[.[.[.L.u.6.7 7 y. X XQ.Q.l   Z.^.T.K.H.w.",
"i.w.S.H.D.U.  7 } <   @ / i @ ;.u.J.Q.[.L.J.J.2.6   J.u.J.J.J.J.u.u.6.7 7 8.Q.[.L.J.f X 5.U.K.H.w.i.",
"w.w.S.w.D.U.  7 1.R i D 1.i @ ;.y.J.[.[.L.L.J.u.8   2.J.2.u.J.2.u.u.6.7 7 y.].].'.J.u   4.H.a.a.i.w.",
"w.w.w.U.U.E.  7 u.u.u.u.L.p @ ;.u.u.u.u.u.u.u.u.6   u.u.u.u.u.u.u.u.6.7 8 6.u.u.y.-.9 . 3.U.K.H.a.w.",
"w.e.K.E./.W.  * &.:.2.,.L.j @ ;.u.u.u.u.u.u.u.-.6   u.u.u.u.u.u.u.-.@.* 8 1.u.u.1.&.u   o.w.a.w.w.w.",
"i.U.U.U.E.U.  $ W :.,.,.L.j < ;.u.u.u.u.u.u.u.-.6   =.u.J.2.u.u.u.:.I $ 6 6.u.u.1.W -   o.w.w.9.0.9.",
"a.a.U.U.U.U.  $ Y ) -.J.[.j @ I _ _ _ u.u.u.=.) %   2.2.u.2.-.-._ _ G $ 8 6.,._ _ W -   o.i.w.D.K.K.",
"_._.W._.W.W.. $ U W r.y.L.f X D =.E 1.u.u.u.1.! $   _ u.u.t.2.2.( U G $ 7 6.t.&.) _ -   <.K.E.~.)._.",
"E.W.W.W.E.E..   > I E E E =   o Y G Y E E E Y I $   G E E E E E G G = X $ R E E I d O   5.!.!.~.T.E.",
"a.a.Y.U.D.e.      # * $ $ X     $ $ $ % $ $ $ $     $ $ % $ $ $ $ $ X   . $ $ $ $ O     4.K.H.D.a.e.",
"K.a.a.a.e.0. .o @ x v l.g.x.m.m.m.m.m.b.n.n.n.XXN.oX+X+X+X.XV.B.n.n.n.n.v.N v m x 4   | K.K.H.w.w.e.",
"a.a.U.K.K.w. .o 1 x B x.x.c.c.c.x.x.c.x.x.x.c.V.n..XOXOXOXB.N.N.x.x.x.x.x.k.n h.x 4   | U.D.D.S.w.e.",
"e.U.P.U.K.,.+.i , q q q q q q q q z z q z q z N c V h.h.h.N n n q z q z q q q q w 1 7 X.w.D.w.S.,.7.",
"r.T.U.U.e.%.%.|           X                               X                         [ q.9.w.S.S.' ' ",
"U./._.E.a.0.r.<.i   % h J J l @ o > H H H F H s +   a H F H H H s o X g H H F =   t <.H.H.P.T.p.$.' ",
"R./.`.(.T.P.w.9.[   : ( @.&.1.6 $ I *.&.,.>.6.:.*   =.t.@.&.&.@.Y = @ ;.t.@._ C   L L.K.D.P.!.!.L.p.",
"P.T.T.W.^.~.P.P.q.[ l - S &.y.} K - A :.1.6.t.u.8   u.y.@.! _ d - d Q 1.y.*.- g | 5.P.H.H.K.K.P.P.P.",
"H.P.P.P.K.P.T.T.!.E.^   C W ~ ( R @ - ~ ( ( ( ( $   ( ( ! T T >   Z ( ( ~ R   j T.!.T.P.D.L.H.H.H.H.",
"w.a.a.a.i.w.w.H.D.T.F.Z.k $ $ $ $   X $ $ $ $ $ X   $ $ $ $ $ o   @ $ $ $ 9 3.5.P.R.!.!.P.H.H.H.H.w.",
"w.D.w.w.w.q.q.9.w.w.H.E.j                               .                 7 q.w.e.H.D.!.^.T.T.P.S.w.",
"K.K.K.w.9.7.7.7.q.w.w.K.T.(.`.R.$.s.!.!.^.T.U.D.5.A.q.9.q.e.U.W._.^.P.a.S.w.q.8.7.q.q.w.P.!.^.(.T.P.",
"T.T.T.H.w.q.7.7.7.7.9.q.K.U.W.Y.$.R.(.(.T.D.e.q.q.q.q.e.D.U.W._.}.(.T.K.D.w.9.q.7.7.7.q.q.L.!.!.E.E.",
"T.R.(.^.U.a.9.7.7.7.9.w.w.i.U.E.T.^.E.K.D.w.w.0.9.q.e.U.E./.^./.`.`.(.T.U.K.a.D.9.7.q.q.S.w.K.P.K.K.",
"K.K.U.P.T.T.U.e.w.w.w.w.i.i.w.K.U.T.Y.a.w.w.e.e.a.K.U.W.`.`._.`.`.(._./.W.E.U.U.U.K.D.D.w.e.K.K.e.a.",
"K.K.a.e.e.a.K.H.K.K.K.P.K.a.U.K.U.U.K.a.H.U.K.K.U.W.W./.W._._._./.T.T.Y.U.T.T.E.T.T.E.E.U.T.U.U.e.a."
};
