/* XPM */
static char *result[] = {
/* columns rows colors chars-per-pixel */
"50 50 184 2 ",
"   c #323443",
".  c #393A47",
"X  c #303D4A",
"o  c #3D3C48",
"O  c #4C3E54",
"+  c #32424B",
"@  c #39434C",
"#  c #2E4552",
"$  c #2D4956",
"%  c #2C4E59",
"&  c #314B51",
"*  c #3D4B55",
"=  c #2B525D",
"-  c #335454",
";  c #335D58",
":  c #34665C",
">  c #346C5F",
",  c #2A5660",
"<  c #2B5B62",
"1  c #285E68",
"2  c #2F6764",
"3  c #27666F",
"4  c #2A646A",
"5  c #2E6B68",
"6  c #316D64",
"7  c #2E736D",
"8  c #357A67",
"9  c #337969",
"0  c #266B73",
"q  c #257177",
"w  c #24747A",
"e  c #23797E",
"r  c #48444B",
"t  c #474A4F",
"y  c #564F4E",
"u  c #464D52",
"i  c #5E4E54",
"p  c #594B58",
"a  c #5D5653",
"s  c #5C5856",
"d  c #655758",
"f  c #6A625B",
"g  c #716559",
"h  c #75695D",
"j  c #7A6A59",
"k  c #5D4862",
"l  c #495662",
"z  c #6A5467",
"x  c #7F5377",
"c  c #5B6964",
"v  c #7F6162",
"b  c #656772",
"n  c #92785D",
"m  c #88587C",
"M  c #806162",
"N  c #8A6766",
"B  c #8A7762",
"V  c #A1746F",
"C  c #AC7B73",
"Z  c #E47E46",
"A  c #32836E",
"S  c #2E8675",
"D  c #27827D",
"F  c #28847E",
"G  c #2B8C7D",
"H  c #2E917D",
"J  c #359675",
"K  c #31967C",
"L  c #339C7C",
"P  c #36A57C",
"I  c #39A47D",
"U  c #ED8D39",
"Y  c #F38F32",
"T  c #F7963C",
"R  c #B7815B",
"E  c #9B8466",
"W  c #9E8568",
"Q  c #9E896B",
"!  c #A1876A",
"~  c #A08A6C",
"^  c #AE926B",
"/  c #B1956E",
"(  c #B3986F",
")  c #A48F71",
"_  c #B68177",
"`  c #A59375",
"'  c #A69579",
"]  c #B69A73",
"[  c #B89976",
"{  c #B99D76",
"}  c #B8A077",
"|  c #BBA27C",
" . c #DF945C",
".. c #F79843",
"X. c #E38853",
"o. c #EEA75F",
"O. c #DF9F68",
"+. c #C2887C",
"@. c #DDA468",
"#. c #CFAA71",
"$. c #C6A779",
"%. c #D1A771",
"&. c #D4AD75",
"*. c #DAAD75",
"=. c #D6AE7C",
"-. c #DAAE7B",
";. c #D6B177",
":. c #D9B176",
">. c #D6B27A",
",. c #DCB57C",
"<. c #D5B97D",
"1. c #DEB97E",
"2. c #E8AB67",
"3. c #E3AA70",
"4. c #E0B67C",
"5. c #EAB679",
"6. c #E0BA7F",
"7. c #995F88",
"8. c #A76C8E",
"9. c #C07C9E",
"0. c #C476A3",
"q. c #38A580",
"w. c #3EAD80",
"e. c #43B384",
"r. c #4BBC89",
"t. c #4FC08B",
"y. c #54C68E",
"u. c #5FD194",
"i. c #B98197",
"p. c #BB849A",
"a. c #BEAA83",
"s. c #B3A38F",
"d. c #9899A1",
"f. c #CD8E80",
"g. c #CE9182",
"h. c #CC8F93",
"j. c #E49D8A",
"k. c #C8AA82",
"l. c #DEB581",
"z. c #DFBB82",
"x. c #D8BA89",
"c. c #DAA591",
"v. c #D1B893",
"b. c #E6A18D",
"n. c #E8A48F",
"m. c #E1B781",
"M. c #E2BD83",
"N. c #E9BB83",
"B. c #E5BE89",
"V. c #E9A791",
"C. c #EFAF98",
"Z. c #E3B79E",
"A. c #F0B29A",
"S. c #F3B89E",
"D. c #D48DA8",
"F. c #C196A5",
"G. c #C39DA9",
"H. c #E79AB4",
"J. c #C7A7B0",
"K. c #F6BEA2",
"L. c #DFC086",
"P. c #E4C186",
"I. c #E6C48A",
"U. c #E8C68E",
"Y. c #E7C98D",
"T. c #E9C98E",
"R. c #E7C690",
"E. c #E9C691",
"W. c #E7CB91",
"Q. c #EACC93",
"!. c #ECCF98",
"~. c #EDD197",
"^. c #EDD39B",
"/. c #F9C3A6",
"(. c #FBC7A9",
"). c #FDCAAB",
"_. c #EED8A1",
"`. c #FED2B4",
"'. c #FED7B8",
"]. c #FFD9BC",
"[. c #CCCCD0",
"{. c #FFE2C5",
"}. c #E5E6E7",
"|. c white",
/* pixels */
"P.B.B.z.,.:.;.;.&.,.,.P.U.I.I.R.R.B.N.M.1.,.6.M.P.P.P.P.P.P.Y.Y.P.M.z.1.z.1.M.M.M.P.P.P.M.M.M.M.P.M.",
"M.P.P.B.m.,.;.;.;.=.:.,.m.I.R.W.Q.E.R.M.m.1.,.1.P.L.6.P.P.P.P.P.z.z.,.,.1.1.1.1.1.1.L.z.1.,.,.4.6.M.",
"z.P.P.I.P.B.m.,.<.;.;.;.,.M.B.U.E.B.B.l.m.6.6.M.P.P.P.P.Y.Y.Y.P.P.P.z.z.1.z.1.1.1.L.L.L.1.1.1.,.,.N.",
"U.Y.Q.!.E.E.I.P.M.z.,.,.1.6.6.N.B.m.l.,.-.,.,.1.1.P.Y.Y.Y.Y.P.P.P.I.U.U.I.P.L.U.P.P.Y.I.P.P.L.P.M.P.",
"W.!.!.^.!.!.W.U.U.I.P.B.B.M.m.4.m.m.M.,.-.,.,.1.1.1.1.P.P.P.L.L.M.P.M.P.B.B.R.!.~.~.^.!.Q.E.T.Y.R.R.",
"B.B.R.E.E.T.R.R.R.W.W.W.T.U.B.4.4.$.Q u u t r r t u u @ y h #.<.,.z.m.z.>.s.x.B.P.I.I.W.Q.Q.Y.Y.I.P.",
"z.z.M.z.v.B.P.P.P.P.P.B.P.P.I.B.$.o 4 G 3 , ; ; 8 G G G G 3 + E ;.,.,.,.=.=.=.;.,.,.z.z.P.I.I.P.z.z.",
",.,.6.x.z.I.P.P.P.P.M.m.,.k.,.,.N X e L @ % D G K L P P H e 5 @ V 4.4.l.,.=.=.-.:.;.;.,.1.6.M.6.,.,.",
",.1.1.M.P.U.U.P.P.L.z.z.<.s.;.^ @ S P P J I q.P P L P P P L D # g l.B.B.m.l.=.*.;.;.,.<.1.1.1.1.z.6.",
"6.6.M.P.P.I.I.I.P.z.z.1.1.:.;.^   S P y.w.u.u.y.P P P P P P H w   ^ B.B.B.m.l.,.,.,.,.1.,.1.6.1.1.1.",
"1.z.P.P.I.I.Y.E.P.M.1.<.<.:.:.^   J P I I t.r.I P P P P P P H q   n U 3.B.m.C.m.m.m.1.1.1.6.6.P.z.1.",
"M.z.P.M.M.M.I.T.W.I.M.1.1.1.L.^   J P t.I y.y.t.e.I P P P L L q . n U O.l.l.m.B.B.M.P.P.P.I.Y.P.I.P.",
"P.z.P.L.M.6.P.P.Y.P.P.1.z.L.L.R   J P P P P P P P P P L L G G q   E *.=.=.*.-.m.M.B.U.B.P.P.1.1.z.P.",
"I.P.I.P.6.P.M.M.I.Y.P.1.1.1.L.R   J P > - 7 & P P P P P P P P w   Q m.-.-.-.,.,.m.x.m.6.:.<.<.:.1.M.",
"Y.W.~.T.Y.U.U.U.Y.Q.E.Y.P.M.$.b b b ; : + 4 + P J & b b b 0 e q   ) P.B.B.m.m.m.,.,.,.,.:.1.,.<.1.P.",
"^.^.^.^.~.W.W.E.U.P.I.6.M.1.a d.[.}.  8 & < 8 P >   d.[.|.% e q   ' !.U.B.m.,.,.1.1.,.1.1.1.6.P.P.W.",
"_._.!.!.Q.U.5.m.,.,.,.1.1.z.s + t l   9 H K J L >   X u l % e q   ~ P.z.M.M.z.1.z.1.1.1.6.P.P.T.^.^.",
"Q.Y.U.I.M.,.2.,.;.,.6.6.1.P.s 8 5 <   % 1 1 1 1 $   5 6 1 = e q   W M.P.P.M.P.z.M.1.z.z.Y.~.~._._.^.",
"U.P.N.M.1.,.,.,.z.P.E.Q.Q.T.a.                    . . @ , 3 e q   Q M.P.I.P.B.z.z.P.z.2.o.^.^.~.Q.Q.",
"I.P.P.B.P.B.I.T.Q.!.Q.T.I.P.$.z h.p.G.G.J.i.G.J.F.8.D.8.k w e q   Q M.P.P.I.P.P.I.E.P...T P.T.Y.R.I.",
"I.I.B.I.P.P.P.P.I.P.B.M.6.1.a D.z                   9.H.0.% e q   ! M.P.P.P.I.W.W.Q.W.5.o.L.P.P.z.v.",
"B.P.P.B.P.P.B.P.M.M.z.1.<.<.a C p 7.m m m m m m x 7.k D.0.% e q   Q M.N.P.P.Y.!.~.Q.P.P.1.L.P.M.z.v.",
"M.B.B.B.P.M.P.P.P.1.1.,.1.<.j 7.7.7.              x 7.7.O = e q   ~ M.B.I.U.Q.T.Y.P.6.6.L.6.P.P.P.M.",
"I.I.P.P.P.P.P.Y.I.P.P.M.6.1.<.g     v M N N N N M O       1 e q   ` E.T.Q.!.T.P.M.L.L.P.P.P.I.Y.U.E.",
"B.I.U.I.U.Y.Y.W.Y.Y.Y.P.P.6.1.(   C V././.S./.A.j.+.  % 3 e e q   ` T.T.Y.P.P.P.P.P.I.Y.Y.!.!.Q.U.I.",
",.l.,.m.m.P.P.P.P.P.6.<.<.1.<.(   g.V.S.C.).).V.V.j.  > P P K q   Q M.6.6.P.I.T.Y.W.Q.Q.!.Q.U.M.m.,.",
",.,.m.m.z.P.P.P.P.P.P.L.a.L.P.(   c.).).).).)./.A.b.  > P L G q   Q 1.1.P.I.T.T.Y.Y.W.Q.U.P.M.m.,.6.",
",.,.,.,.z.P.I.P.P.Y.Y.Y.Y.Y.Y.}   Z.).).).).).(./.b.  > P F F q   ~ P.Y.T.T.T.T.W.Y.T.T.P.M.6.4.,.,.",
",.,.6.M.I.Y.Y.Y.Y.T.T.Y.Y.I.P.}   Z.`.`.`.).).).).V.  > K P D q   ~ 1.1.6.L.P.P.L.P.P.P.P.B.M.6.4.,.",
",.6.6.Y.Y.W.W.Y.Y.Y.P.P.P.I.P.}   Z.{.{.{.).).).).V.  > K P 4 $   E 1.1.6.6.1.1.,.1.1.1.6.1.6.,.,.,.",
"4.M.P.I.Y.P.I.Y.P.P.P.P.P.P.I.}   Z.'.'.`.).).).).V.  > P P : +   Q 1.L.I.L.P.1.1.1.1.1.1.,.,.,.:.,.",
"6.M.P.P.P.P.P.P.P.P.P.Y.T.Q.Y.|   Z.].].].`.`.).).V.  > P P P J   ` W.~.~.~.T.P.L.1.1.1.,.1.,.z.6.6.",
"T.~.Q.~.T.T.Y.Y.I.I.I.I.Y.~.~.a.  Z.`.].).).).).).V.  > P P P P 6 c h h >.B.z.,.,.;.1.6.N.M.I.W.!.!.",
"T.T.~.T.T.Y.P.P.P.1.1.1.P.P.I.|   Z.).`.).).).).).V.  > P J P F e = X   ( 1.1.<.=.<.M.P.U.U.W.R.U.P.",
"6.6.6.P.1.1.,.,.;.;.;.;.z.z.P.[   c.).).).).).S.K.b.  > P   5 H F e q   ( 1.1.1.m.P.I.U.P.M.m.z.1.1.",
"6.6.6.P.1.;.<.;.;.#.#.;.,.,.m.]   V.).).).).).K./.n.  > P A = # # # * ( <.P.P.I.I.I.P.P.P.m.z.,.,.z.",
"6.6.P.P.z.1.;.;.=.#.%.&.-.,.m.[   f.V.K.).S.V.j.b.j.  = P q.= $   r h P.U.U.Q.Q.U.P.B.I.B.x.z.,.l.l.",
"6.M.P.P.z.O. .<.,.,.=.l.,.l.m.[   g.A.A.A.A.A.j.V.V   2 F e e q   Q B.P.P.P.U.M.z.,.l.l.,.z.,.l.@.-.",
"2.I.I.P.1.X.Z ;.:.*.=.m.B.B.R.[   +.i i i i i i i .   X # $ 3 $   ` I.P.B.B.,.;.&.&.,.;.-.,.m.l.U Y ",
"P.W.~.Y.M.:.*.&.&.#.%.$.s.B.E.k.. C _ C y M             , $ 3 1   ` Y.M.1.,.;.:.&.:.,.4.m.B.U.5...T ",
"E.Q.^.!.U.N.l.;.=.%.%.&.k.m.m.[   v d                       % =   ` M.1.,.1.,.,.l.m.M.B.M.B.U.R.N.5.",
"B.P.U.E.W.E.P.B.z.,.;.-.,.l.m.[   r .                         +   ~ M.N.M.B.U.U.R.I.B.m.4.N.M.B.N.B.",
"m.M.P.P.M.B.P.U.E.U.P.M.m.x.N./                                   ! M.P.M.P.P.P.U.W.I.B.m.m.m.m.m.l.",
"1.m.m.6.,.,.,.1.z.U.R.E.U.U.P.[                                   ~ B.P.N.P.B.P.B.I.R.R.P.m.m.M.m.4.",
"1.z.z.,.,.;.;.:.;.6.M.I.Q.~.Q.|                                   ` 6.,.l.,.<.,.6.m.x.R.E.R.U.B.x.4.",
"m.z.6.1.;.&.=.&.;.,.,.x.I.~.^.$.          r h g f f g y           ` B.6.,.,.=.&.&.:.;.,.B.U.Q.Q.P.M.",
"U.I.I.m.,.;.&.&.*.&.;.,.z.P.E.{           h z.,.<.;.;.B           ' I.M.z.,.,.;.*.%.&.;.,.B.U.R.U.U.",
"P.U.!.Y.P.N.;.;.&.&.;.,.,.1.P.$.a O       f ;.:.:.<.,.Q s         ' !.U.P.z.1.1.,.;.;.,.1.,.M.P.M.M.",
"M.M.P.P.U.U.P.1.,.,.,.,.,.4.6.6.P.t       g 1.,.6.6.P.T.^.        ' ~.T.T.Y.P.P.P.M.z.z.1.1.M.1.M.6.",
"M.M.m.1.,.1.M.m.M.M.P.M.M.M.M.M.P.{ B     j M.P.I.U.T.Q.~.| f     ) I.I.P.I.I.U.I.I.Y.Y.I.P.P.P.1.6."
};
