/* XPM */
static char *result[] = {
/* columns rows colors chars-per-pixel */
"32 32 236 2 ",
"   c black",
".  c #010000",
"X  c #000100",
"o  c #010100",
"O  c #010101",
"+  c #030000",
"@  c #030100",
"#  c #000200",
"$  c #010200",
"%  c #000300",
"&  c #010300",
"*  c #000002",
"=  c #010002",
"-  c #000102",
";  c #030002",
":  c #000202",
">  c #000302",
",  c #020202",
"<  c #040000",
"1  c #050001",
"2  c #060000",
"3  c #070000",
"4  c #040002",
"5  c #060002",
"6  c #070002",
"7  c #060203",
"8  c #000400",
"9  c #030600",
"0  c #040603",
"q  c #000004",
"w  c #010004",
"e  c #000104",
"r  c #000005",
"t  c #010005",
"y  c #000105",
"u  c #030004",
"i  c #030005",
"p  c #000204",
"a  c #000304",
"s  c #000007",
"d  c #010007",
"f  c #000107",
"g  c #030007",
"h  c #040004",
"j  c #050004",
"k  c #040005",
"l  c #060004",
"z  c #060006",
"x  c #040207",
"c  c #000504",
"v  c #010705",
"b  c #010506",
"n  c #050507",
"m  c #080000",
"M  c #090000",
"N  c #080200",
"B  c #0A0300",
"V  c #080002",
"C  c #090500",
"Z  c #0A0400",
"A  c #0D0502",
"S  c #080006",
"D  c #080307",
"F  c #0D0007",
"G  c #030801",
"H  c #000A00",
"J  c #020902",
"K  c #000009",
"L  c #010009",
"P  c #000109",
"I  c #020008",
"U  c #030009",
"Y  c #01000A",
"T  c #00000B",
"R  c #01000B",
"E  c #03000B",
"W  c #040009",
"Q  c #070008",
"!  c #04000B",
"~  c #07000A",
"^  c #06030A",
"/  c #000509",
"(  c #06050A",
")  c #00000C",
"_  c #01000C",
"`  c #02000D",
"'  c #00000E",
"]  c #01000E",
"[  c #00030F",
"{  c #04000C",
"}  c #01040D",
"|  c #0C0009",
" . c #0B060C",
".. c #08130B",
"X. c #000010",
"o. c #010010",
"O. c #0C0612",
"+. c #2E1700",
"@. c #231C00",
"#. c #2D1D00",
"$. c #281C0C",
"%. c #341E09",
"&. c #371E0A",
"*. c #391809",
"=. c #3A1A0B",
"-. c #1F2F02",
";. c #16250E",
":. c #1D250E",
">. c #162110",
",. c #132A10",
"<. c #18281D",
"1. c #252000",
"2. c #272100",
"3. c #242300",
"4. c #202004",
"5. c #272107",
"6. c #2A2500",
"7. c #2A2603",
"8. c #2D2600",
"9. c #2E2700",
"0. c #2E2601",
"q. c #212904",
"w. c #2C2800",
"e. c #2E2800",
"r. c #312703",
"t. c #302B01",
"y. c #352F00",
"u. c #302009",
"i. c #30250F",
"p. c #342F0F",
"a. c #212514",
"s. c #2B2613",
"d. c #2D2510",
"f. c #202811",
"g. c #272913",
"h. c #2B2B11",
"j. c #29211F",
"k. c #362712",
"l. c #322419",
"z. c #3A2A1A",
"x. c #412600",
"c. c #596831",
"v. c #526853",
"b. c #A45C10",
"n. c #936300",
"m. c #9B6306",
"M. c #9F6205",
"N. c #9B6208",
"B. c #946610",
"V. c #916D17",
"C. c #90641D",
"Z. c #A46200",
"A. c #A56501",
"S. c #A66800",
"D. c #AC620D",
"F. c #8D6D32",
"G. c #CE7C16",
"H. c #718A6A",
"J. c #7E8C73",
"K. c #BD8A39",
"L. c #DD8D2A",
"P. c #D4932D",
"I. c #AB865A",
"U. c #C19043",
"Y. c #D2B979",
"T. c #E6B765",
"R. c #EDBC77",
"E. c #E2BF7D",
"W. c #C7C556",
"Q. c #CAC857",
"!. c #CDCE57",
"~. c #C9C85C",
"^. c #CAC95D",
"/. c #D1D05C",
"(. c #CFC762",
"). c #CFCF61",
"_. c #CBC867",
"`. c #C3C96F",
"'. c #CCCB6E",
"]. c #C4C077",
"[. c #C7C477",
"{. c #C7C676",
"}. c #CAC571",
"|. c #CACA72",
" X c #CBC974",
".X c #CECC77",
"XX c #CAC47A",
"oX c #CDCB78",
"OX c #CDD170",
"+X c #EDC36F",
"@X c #F3C06F",
"#X c #E4C170",
"$X c #EAE774",
"%X c #F1EE7B",
"&X c #F4F374",
"*X c #F4F375",
"=X c #F2F07F",
"-X c #FFF17B",
";X c #FAF57D",
":X c #B0C0A3",
">X c #CAC583",
",X c #D1C684",
"<X c #D1CA86",
"1X c #F0DF8D",
"2X c #FFDF8F",
"3X c #EEE483",
"4X c #F3E686",
"5X c #F4EB82",
"6X c #F4ED82",
"7X c #F4ED83",
"8X c #F2E886",
"9X c #FFE986",
"0X c #FFE48E",
"qX c #F8EB8D",
"wX c #FBEF8D",
"eX c #EEF180",
"rX c #F7F181",
"tX c #FAF786",
"yX c #F9F58A",
"uX c #FBF48C",
"iX c #FBE697",
"pX c #FFE39F",
"aX c #F9ED99",
"sX c #FFE89C",
"dX c #FFF792",
"fX c #F2DFA7",
"gX c #FFD9B2",
"hX c #FFE1A5",
"jX c #FFFFA6",
"kX c #FFF9B6",
"lX c #FFFEB8",
"zX c #FFFFBD",
"xX c #FFFBCB",
"cX c #FFFBD3",
"vX c #FFFCD6",
"bX c #FFF4D8",
/* pixels */
".     * X # # # = . + + = = X #   r o._   # # # K P : X * w u h ",
"+ .   * X X X X * . . . w q X # X * _ R . # # # y f # # X . + + ",
"< + + . =       q q   * s K y X X . g i + $ o X * * # # X X o o ",
". . .   * *   * * * * * s s f e X . i u + @ + . = * X X X X o o ",
"X X X X X X * X     X X X X e e     d i + < < < k g ; . q q r r ",
"- - X X X X * . . . . X X X q q X X q t + + 4 k W W i u t r r r ",
"= . + + < 4 l 5 2 < < + + + u w # % X * * w g ! { ! k ; .   X # ",
"= . + < < 5 l l < < + + @ + ; = # % # X - r s L U g 4 + . X X # ",
"X # X X . = t q 0 % 8 f.:.a.X   & 8 X v : e b X   . + + . * q e ",
"X X X X . q s s p ..;.:XJ.>.G   u u n * / y : J # # . .   q r s ",
"2 2 2 2 < i T ' [ c ,.H.v.<.8 q | F V h K } y # % % X X X X * e ",
"< < 2 2 5 h d K T H -.c.q.h.5.u.=.*.&.z.j.w e v # %         X X ",
"> : * . + < < 2 A @.}.8XsXE.C.U.@XT.#XY.#.3 . q e r T T t *   X ",
"a p e q . + < 2 m r.(.-XjX2XN.A.Z.S.n.V.x.k.2 ( q s ' ) d =   X ",
"- - q w u ; . . w 4.OX%XiXpX+Xm.L.G.P.K.I.%.M + X   s d = . . . ",
"X X q w = = q r Y g.`.eXaXlXkXR.b.D.M.B.F.+.l.< + . t t . X . X ",
"# # X   X . d E W s.{.).uX1XcXbXgXhX0X9XqX,X$.S 4 w L r X % X X ",
"# X X X X X t U ~ 3 e._.$XdXfXvXxXzX4XrX=X.Xi.6 < w K r # % X X ",
"q q q *   X . + k B 0.[./.&X6X3XwX5X;X*X!.|.2.2 + . r r X # X * ",
"K s r *   X . . k < 3 y. X~.Q.tX7XyXW.^.'.3.C C o . * q X X X X ",
") K q       r d t D < 3 d.9.].oXXX<X>X6.t.C < + .   * q q *     ",
"' K * X     K K * . j z Q 2 7.w.8.1.p.Z 2 1  .w       * r r *   ",
"_ d X X     * X # $   x U g < < N 2 < < O.R w     X # X r K r r ",
"R t X # X X X # % 9 X , q g I t ; 7 ; ^ _ ` O $ X X # # r K s s ",
"d = o $ # X # X X # X # # X X   .   X   q * # % X X # # * s s s ",
"w . o $ # X X * * X X X # # # #     X X X X % # q q # #   * q q ",
". . . . X   s T s r * q K s X X * q X X X X # X ) ) X # X X X X ",
". . . .   q K K s q * q K K X X * X X X X X X * X.X.q # X # X X ",
". . w d R L = . . X     X X * * X X X X X X X   ) ' q X # # # X ",
"= = = t R L = . o o X X X X q q X X X X X X X   K T q   # # X * ",
"q * X X . w t w . o o . = t w = . = L L t . . . r s q   X X r s ",
"r   X # . . L d . o o . d L w . w d ] ] L = . . * q q   X X s T "
};
