/* XPM */
static char *result[] = {
/* columns rows colors chars-per-pixel */
"32 32 255 2 ",
"   c black",
".  c #010000",
"X  c #000100",
"o  c #010100",
"O  c #030000",
"+  c #000200",
"@  c #000300",
"#  c #020200",
"$  c #020300",
"%  c #000002",
"&  c #010002",
"*  c #000102",
"=  c #010103",
"-  c #030002",
";  c #020003",
":  c #000202",
">  c #000302",
",  c #010302",
"<  c #040000",
"1  c #040100",
"2  c #060000",
"3  c #070000",
"4  c #070101",
"5  c #060201",
"6  c #040002",
"7  c #060002",
"8  c #070002",
"9  c #000400",
"0  c #000500",
"q  c #010500",
"w  c #020401",
"e  c #000600",
"r  c #000700",
"t  c #000402",
"y  c #000502",
"u  c #020403",
"i  c #040500",
"p  c #040402",
"a  c #000004",
"s  c #010004",
"d  c #000104",
"f  c #000005",
"g  c #010005",
"h  c #000105",
"j  c #030004",
"k  c #020005",
"l  c #030005",
"z  c #000204",
"x  c #000205",
"c  c #020204",
"v  c #010006",
"b  c #000007",
"n  c #010007",
"m  c #000107",
"M  c #030007",
"N  c #010206",
"B  c #000207",
"V  c #000307",
"C  c #030207",
"Z  c #040004",
"A  c #040005",
"S  c #060004",
"D  c #070004",
"F  c #060005",
"G  c #070005",
"H  c #070105",
"J  c #040007",
"K  c #060006",
"L  c #060007",
"P  c #070007",
"I  c #050306",
"U  c #000504",
"Y  c #000604",
"T  c #000605",
"R  c #000507",
"E  c #070705",
"W  c #080000",
"Q  c #0A0000",
"!  c #0B0000",
"~  c #080002",
"^  c #0A0002",
"/  c #0B0002",
"(  c #0E0000",
")  c #0D0002",
"_  c #090700",
"`  c #0C0401",
"'  c #080005",
"]  c #0A0004",
"[  c #0B0004",
"{  c #0A0005",
"}  c #080007",
"|  c #0D0005",
" . c #0E0004",
".. c #0F0006",
"X. c #000800",
"o. c #000900",
"O. c #000803",
"+. c #060E03",
"@. c #000904",
"#. c #000806",
"$. c #040905",
"%. c #000009",
"&. c #010009",
"*. c #000109",
"=. c #030009",
"-. c #000209",
";. c #00000B",
":. c #040008",
">. c #040009",
",. c #060009",
"<. c #070009",
"1. c #040309",
"2. c #000709",
"3. c #06000C",
"4. c #0B0009",
"5. c #0B010A",
"6. c #0D0009",
"7. c #0C0109",
"8. c #08020C",
"9. c #04080B",
"0. c #120000",
"q. c #150000",
"w. c #170001",
"e. c #160002",
"r. c #120005",
"t. c #1C0005",
"y. c #130800",
"u. c #180009",
"i. c #240F0C",
"p. c #3E1815",
"a. c #31131B",
"s. c #34151B",
"d. c #36151C",
"f. c #3C141D",
"g. c #361C1F",
"h. c #3B1D1B",
"j. c #3D1A1E",
"k. c #0A2A00",
"l. c #1C2705",
"z. c #112E00",
"x. c #172B06",
"c. c #1B2B06",
"v. c #1C2E04",
"b. c #14230E",
"n. c #1E2F0F",
"m. c #103200",
"M. c #143100",
"N. c #152211",
"B. c #1F2A19",
"V. c #202604",
"C. c #232112",
"Z. c #252519",
"A. c #30221F",
"S. c #21301B",
"D. c #281F20",
"F. c #391322",
"G. c #3F1320",
"H. c #3E1621",
"J. c #341827",
"K. c #3B1A23",
"L. c #3C1F23",
"P. c #3E1F24",
"I. c #3D1E2E",
"U. c #520B13",
"Y. c #40121D",
"T. c #4A1318",
"R. c #4F1019",
"E. c #451E19",
"W. c #4B0623",
"Q. c #4D0E21",
"!. c #4A0F2D",
"~. c #510523",
"^. c #550A29",
"/. c #5B0C29",
"(. c #4E1423",
"). c #531429",
"_. c #432328",
"`. c #7A2636",
"'. c #7B2736",
"]. c #75203D",
"[. c #77283D",
"{. c #3B6F2F",
"}. c #4D6239",
"|. c #556538",
" X c #712D42",
".X c #74294A",
"XX c #792A49",
"oX c #7C2E48",
"OX c #653640",
"+X c #613840",
"@X c #753140",
"#X c #7E3046",
"$X c #75314A",
"%X c #635F56",
"&X c #5E6543",
"*X c #961B3A",
"=X c #87263A",
"-X c #852A3B",
";X c #802C39",
":X c #92223B",
">X c #971F42",
",X c #8C2246",
"<X c #842841",
"1X c #822D40",
"2X c #882A44",
"3X c #812E4C",
"4X c #88284D",
"5X c #933F4E",
"6X c #973752",
"7X c #A2264A",
"8X c #A03D4F",
"9X c #B5334F",
"0X c #BA3248",
"qX c #BB334B",
"wX c #BE324C",
"eX c #A73D53",
"rX c #B53651",
"tX c #B83253",
"yX c #B23D50",
"uX c #B03F51",
"iX c #B13B55",
"pX c #B43956",
"aX c #BF3952",
"sX c #B63959",
"dX c #BD3A59",
"fX c #C82F4D",
"gX c #C7334B",
"hX c #C23054",
"jX c #CB3052",
"kX c #C63F5D",
"lX c #96434B",
"zX c #9B444C",
"xX c #9B4B54",
"cX c #9D4A54",
"vX c #A0454E",
"bX c #AA4553",
"nX c #B64151",
"mX c #B54253",
"MX c #B9415D",
"NX c #769166",
"BX c #809365",
"VX c #888C75",
"CX c #988171",
"ZX c #F57C8B",
"AX c #FA7C8A",
"SX c #FF7A8D",
"DX c #FF7A8E",
"FX c #F67D90",
"GX c #FF7890",
"HX c #FF7C94",
"JX c #A1B68F",
"KX c #FF8394",
"LX c #9CC992",
"PX c #A0C98F",
"IX c #A7C194",
/* pixels */
"< O O   X + + + + + X X % f %.;.=.L Z < < + r o.e @ 2 2   X - 7 ",
"< O .   X X X + X o . X   % f f g s & . O X e r 9 X 2 2 X * & - ",
"O .   % a d a % & O O O O . X X @ 9 9 + .   + > d g G A d > * X ",
".   X % f b b b l j 6 < < O O X @ 9 9 @ . 6 s f &.>.,.M h > @ @ ",
"X   X % f b b %.M A S 7 2 < O O O . X   7 ' } <.,.,.,.g z t 9 9 ",
"X   X X * d f g l A Z Z 6 < O O O & % a A G } P L A j a : @ @ 9 ",
"    X X + +   . O - j j l g f f b %.-.B b f s &   X X + X X     ",
"      X + + + X . . & s a f f f b %.m m f a     + @ 9 @ X . O O ",
"& %   X + + + X X E   u X 9 9 O.X . I & ; . 5 . + @ @ + . O < < ",
"s s     X + + X   p X + +.N.S.b.B.@ < ` 2 4 O . . X + X . O 6 6 ",
"l s a % % % % % a c + 9 e n.JXIXNXx._ W 2 < & C - - .   & & s a ",
"l g a a a a f f v a w @ X.c.BXM.PXk.q y.< # d h g j & & s a f f ",
"g f a % % a f n 8.l ; i 9 l.|.z.{.LXV.W o @.#.2.h a %   % % a a ",
"f a % X X   s l J 5.K < Z.VX&Xv.m.}.CXp.0.. U T z         X % a ",
"a * + + + X . < S 4.' 8 D.%XC.1 ! E.`.<X).e.s T X O o + + + X % ",
"a X + @ + + X . 7 / w.G.OX+Xg.q.T.5XMXsX6X(.W + < 2 o + X X % a ",
"F - + 9 + X h f k 0.U.bXyXeX XQ.-XmX0XDXFXxXA.@ 3 W X + < 3 A M ",
"G 6 X + .   *.*.N P.zXAXGXkX]./.:XqXgXSXKXvXi.$.^ ^ X + < 3 l n ",
"A 6 < 2 W 2 m *.a L.lXZXHXrXoX~.>XhXjXfXwX8X_.2  .[ X @ X   d h ",
"f % O 2 Q 3 b %.k s.cXnXaXpX3X^.,X7XtXdXiX1Xa.6 | ] X 9 @ + : d ",
"Y y + . 2 6 b %.7.f.'.uX9X*X4X.XW.$X#X[.@XY.7 V A l : 9 9 + X % ",
"Y 0 @ X O - b &.D t.R.;X=X2XXX!.u.J.F.H.K.r.a R b f : @ @ + O < ",
"* X X . . % b b 1.2 ( h.j.d.I.6.>.:.] ..8 - 9.d f g % X +   2 W ",
"& . O O .   f b f , $ X X . A 3.b f j H & = = % j j s % X   3 Q ",
"% . O O . . j l j & X + + X A L g s 7 2 O O 2 3 3 7 Z s d % < 3 ",
"* X . O . . s s s % X + @ X l A %   O O . . 2 3 2 2 j f h : . O ",
"t @ X . O . % d d d : + + : a * + 9 + + @ @ X o .   a f x z + X ",
"t @   O < O X : > d * % % % * + @ @ + + @ @ @ + + X a b x z @ 9 ",
"X   < 2 3 2 . X * % j S D 7 &   . . . % . X + + + X a b b d @ 0 ",
"O O O < 2 < O   X % j S D 7 .   O < j j 6 . + @ +   a n M s + 9 ",
"< O * : X X   X X : d f s & X X . & b n l . @ 0 + . j L { ~ O + ",
"2 . : t @ + X X + > d f a % + +   a %.%.M & 9 0 + O Z } | ) 2 O "
};
