/* XPM */
static char *result[] = {
/* columns rows colors chars-per-pixel */
"50 50 185 2 ",
"   c #E47E46",
".  c #37B91F",
"X  c #3CBB1E",
"o  c #049F37",
"O  c #019D39",
"+  c #0B9F3D",
"@  c #169C3C",
"#  c #14A72F",
"$  c #1AAA2D",
"%  c #06A036",
"&  c #0AA234",
"*  c #0BA03D",
"=  c #11A631",
"-  c #23AF29",
";  c #26B127",
":  c #28B126",
">  c #32B623",
",  c #34B725",
"<  c #34AA3C",
"1  c #40BD1D",
"2  c #4AB539",
"3  c #64B333",
"4  c #5DCC0E",
"5  c #4BC316",
"6  c #51C713",
"7  c #56C911",
"8  c #5DCC10",
"9  c #62CC14",
"0  c #68CB17",
"q  c #65CE19",
"w  c #6BCB1A",
"e  c #70C81E",
"r  c #5AC825",
"t  c #69C223",
"y  c #79C527",
"u  c #71C920",
"i  c #72D42C",
"p  c #75D434",
"a  c #189F40",
"s  c #0DA243",
"d  c #1DA244",
"f  c #19A74A",
"g  c #28A247",
"h  c #25AF4D",
"j  c #33A749",
"k  c #28AC58",
"l  c #3EAA50",
"z  c #2FB452",
"x  c #3DBA5A",
"c  c #3CB468",
"v  c #54AB55",
"b  c #42BC5C",
"n  c #66AF5C",
"m  c #48BA67",
"M  c #46B86F",
"N  c #54BD79",
"B  c #6EAF60",
"V  c #75B365",
"C  c #7CB264",
"Z  c #7CB668",
"A  c #66CB5D",
"S  c #48C060",
"D  c #56C767",
"F  c #F38F32",
"G  c #F2913B",
"H  c #80C026",
"J  c #AA9A56",
"K  c #ABBC54",
"L  c #94AE67",
"P  c #86B569",
"I  c #95B66D",
"U  c #A2AE6A",
"Y  c #A0B26C",
"T  c #BEBC65",
"R  c #A6BC75",
"E  c #B5B672",
"W  c #DF945C",
"Q  c #F79944",
"!  c #F79B47",
"~  c #E38853",
"^  c #EEA75F",
"/  c #D8AA67",
"(  c #C5B569",
")  c #CFAA71",
"_  c #D1A771",
"`  c #D4AD75",
"'  c #D9AD75",
"]  c #D6AF7C",
"[  c #DAAF7B",
"{  c #C4BB79",
"}  c #D6B177",
"|  c #D9B176",
" . c #D6B27A",
".. c #DCB57C",
"X. c #DEB97E",
"o. c #E8AB67",
"O. c #E9B477",
"+. c #E2B57C",
"@. c #E0BA7F",
"#. c #EAB97C",
"$. c #84DA48",
"%. c #8EDC58",
"&. c #93DD5F",
"*. c #ACC656",
"=. c #B4C35B",
"-. c #96DE63",
";. c #9ADF69",
":. c #8FD97B",
">. c #BBC261",
",. c #A3E275",
"<. c #5FC182",
"1. c #64C387",
"2. c #7BD18E",
"3. c #7DCD9A",
"4. c #B3A38F",
"5. c #C6AA82",
"6. c #CCB182",
"7. c #DEB680",
"8. c #D7BC83",
"9. c #DEBB82",
"0. c #D8B98A",
"q. c #D1B893",
"w. c #E1B781",
"e. c #E2BD83",
"r. c #E9BB83",
"t. c #E5BE89",
"y. c #80CE9C",
"u. c #83D09A",
"i. c #97E68A",
"p. c #A1E080",
"a. c #AAE482",
"s. c #B1E78B",
"d. c #A6EE92",
"f. c #BBE99B",
"g. c #AFF296",
"h. c #B8F69C",
"j. c #B9F79C",
"k. c #85D1A0",
"l. c #9FDAB4",
"z. c #ABDFBE",
"x. c #A5E1AF",
"c. c #AFE1B0",
"v. c #CAC386",
"b. c #D3C282",
"n. c #DDC385",
"m. c #DCC589",
"M. c #E4C186",
"N. c #EAC086",
"B. c #E6C48B",
"V. c #E8C68E",
"C. c #E6C98D",
"Z. c #E9C98E",
"A. c #E7C690",
"S. c #E9C691",
"D. c #E7CA91",
"F. c #EACC93",
"G. c #ECCE98",
"H. c #ECD097",
"J. c #EDD39B",
"K. c #EED5A1",
"L. c #EED8A2",
"P. c #C5EDA9",
"I. c #C6FBA7",
"U. c #C8FEA4",
"Y. c #CDFEAC",
"T. c #CDEFB5",
"R. c #CFF0B7",
"E. c #D2F5B9",
"W. c #D6FEBB",
"Q. c #BBE5CA",
"!. c #C4EEC2",
"~. c #DAF7C7",
"^. c #C9EBD4",
"/. c #D6EFDF",
"(. c #DFF5D0",
"). c #E1FECD",
"_. c #E6FED4",
"`. c #E5F8DA",
"'. c #E9FEDC",
"]. c #DDF2E5",
"[. c #EEFDE3",
"{. c #F3FEEB",
"}. c #F5FCF3",
"|. c #F8FDF4",
" X c #FDFEFD",
/* pixels */
"M.t.M.9...| | ` `  .X.M.B.C.B.B.S.t.t.w.@...@.e.M.M.M.M.M.M.C.C.M.9.9.X.8.X.e.e.e.M.M.M.e.e.e.e.e.M.",
"e.M.t.t.w...|  . .` | ..@.B.A.F.F.S.B.M.w.....X.M.n.M.M.@.M.M.M.M.w.....X.X.X.X.X.X.9.n.X.....@.@.@.",
"9.M.t.C.M.t.w..... ... ...e.t.C.S.t.t.w.w.X.@.e.M.M.M.n.N.C.C.M.M.e.9.X.X...X.X.X.M.n.9.X.X.X.X...w.",
"C.C.F.F.F.V.B.M.9.9.......w.@.r.t.w.7.........X.X.M.C.C.Z.Z.M.M.M.B.C.C.C.B.M.B.M.M.C.B.M.M.9.e.M.r.",
"A.F.G.J.G.F.F.A.B.B.M.t.t.e.w.+.w.w.w.w.[ w.....X.X.@.@.C.M.M.n.w.M.e.B.t.B.A.F.H.H.H.H.H.F.V.C.D.A.",
"M.B.A.D.V.C.A.A.C.F.S.D.D.C.M.w...w.w.w.w.w.e.w.X.@.@.@.@.@.X.O...7.w.9.] 4.0.t.M.V.B.C.Z.F.F.C.M.B.",
"9.9.9.9.q.t.B.M.M.M.B.e.t.r.B.t.w.w.t.t.B.B.V.Z.C.C.C.N.@.@.X.| [ ..7...[ ] [ [  . .X.e.M.M.C.M.9.9.",
"....9.9.9.t.B.M.M.n.e.9...5.....w.w.B.F.S.F.+.S.H.H.J.H.Z.C.M.n.7.w.[ 7. .[ ] ' | .... .X.@.e.X.X...",
"+...X.e.M.C.B.M.e.n.9.9...4. .` ....w.A.S.t.  B.H.H.Z.F.F.F.F.G.B.t.t.t.w.[ ] [  . . .X.X.X.X.X.9.X.",
"9.9.9.B.B.M.V.B.M.9.9..... . .| [ ..w.e.B.B.r.C.B.M.e.@.t.t.t.B.t.@.t.t.t.t.7.w.......X.X.X.X.@.X.X.",
"X.9.M.M.M.V.V.Z.M.X.@... . .| T < o O O o O o O x i.h o O O o O O O 3 / w.t.t.w.7.7.@.@.X.@.n.@.9.9.",
"M.9.M.e.e.M.M.C.D.B.M.9.9.X.>.t = O O O O O o N j.U.i.h O O O O O O : H ) w.w.t.t.t.M.M.M.M.M.M.B.M.",
"@.n.M.M.n.@.t.M.C.C.n.@.@.=.w 5 o O O O O s 2.I.U.U.U.d.z O O O O O # 4 y ( ....9.B.B.B.M.M.X.X.X.M.",
"M.M.M.M.M.e.e.t.M.C.M.X.=.w 4 , O O O o k x.Y.I.U.U.U.U.d.h O O O O o 1 4 y ( X.7.9.w.7.| b.X.} ..e.",
"Z.H.Z.H.B.C.B.B.C.F.Z.=.w 4 4 : O o O N !.Y.U.U.U.U.U.U.U.g.z O O O O . 4 4 e ( @. ... .| X.| X.X.M.",
"J.J.J.J.H.D.F.S.B.B.*.9 4 4 7 = O s k.`.Y.U.U.U.U.U.U.U.U.U.g.x O O O ; 4 4 4 w ( ..X.X.X.X.X.M.C.Z.",
"L.L.F.G.F.V.r.w. .K 9 4 4 4 1 o f l.'.Y.U.U.U.U.U.U.U.U.U.U.U.h.x O O # 7 4 4 4 u >.w.X.#.M.M.Z.J.K.",
"F.Z.B.B.e.| o. .*.9 4 4 4 4 1 c ^.[.Y.U.U.U.U.U.U.U.U.U.U.U.U.U.h.b O % 5 4 4 4 4 w T e.Z.F.J.L.K.H.",
"C.B.e.e.@.+.....4 4 4 4 4 9 i.]._.Y.U.U.U.U.U.U.U.U.U.U.U.U.U.U.U.j.S O X 4 4 4 4 4 0 o.o.J.J.H.H.D.",
"B.M.t.M.M.t.B.Z.4 4 9 9 w f.|.'.Y.Y.U.U.U.U.U.U.U.U.U.U.U.U.U.U.U.U.j.D , 4 4 4 4 8 8 Q G e.F.C.B.C.",
"B.B.t.B.M.t.M.N.&.,.f.R.`. X X|.{.{.{.'.'.'.`._.).).).W.E.W.Y.Y.Y.Y.U.I.A 4 4 4 4 4 4 O.^ n.M.M.t.q.",
"r.B.M.t.M.t.t.M.y.z.Q./.}. X X X|.|.{.[.`.).~.R.R.P.f.f.s.a.,.,.;.%.$.p i X # & = # = M.9.9.M.e.9.q.",
"e.e.t.e.M.e.t.t.O O O O + <. XT.q 9 8 8 8 4 4 4 4 4 4 4 4 4 9 8 4 4 4 4 7 & O O O O O e.e.M.@.M.e.e.",
"B.B.B.M.M.M.B.B.O O O O O O z.|.%.4 4 4 4 4 4 4 4 4 4 4 4 8 8 8 4 4 4 4 ; o O o O O O w.M.M.C.V.C.V.",
"t.B.V.V.C.C.C.D.l % % O O O k ].R.q 4 4 4 4 4 4 4 4 4 4 4 4 4 4 4 4 4 X % O O O O % V Z.D.F.F.G.C.t.",
"..7...w.w.M.M.M.b.v % O O O O 1.|.-.4 4 4 4 4 4 4 4 4 4 4 4 4 4 4 4 6 # o O O O * Z D.D.G.F.B.e.w.+.",
"..+.7...9.M.M.M.M.b.v & O O O s c.(.0 4 4 4 4 4 4 4 4 4 4 4 4 4 4 4 : O O O O * Z C.Z.D.Z.t.e.@.....",
"......7.9.M.M.M.M.C.b.v O O O O c ].&.4 4 4 4 4 4 4 4 4 4 4 4 4 4 5 % O O O + Z D.C.Z.Z.M.e.@.@.....",
"....@.M.B.C.C.C.C.Z.Z.b.v O O O O 3.(.9 4 4 4 4 4 4 4 4 4 4 4 4 4 $ O O O & C X.8.n.M.M.M.M.e.w...@.",
"..@.@.C.D.Z.Z.D.C.C.M.C.M.n o O O s ^.,.4 4 4 4 4 4 4 4 4 4 4 4 > O O O + P X.X...X.X.X.+.X.9.......",
"+.e.M.M.B.M.C.C.M.M.M.M.B.n.B + O O M !.i 4 4 4 4 4 4 4 4 8 4 6 & O O s I B.M.n.X...X.X.@... .| | ..",
"X.e.M.M.M.M.M.M.M.M.M.B.Z.Z.m.V + O s u.a.9 4 4 4 4 4 8 4 4 7 - O O g R F.D.Z.M.M.X.X.....@.@.9.e.@.",
"H.H.Z.H.Z.Z.Z.C.C.M.M.B.C.F.H.J.P s % s c.p 4 4 4 4 4 4 4 4 . o O d R e.M.M.e.X... .X.@.w.e.C.S.G.G.",
"C.C.F.Z.Z.M.M.n.@.@.X.9.M.B.C.C.A.P s O M p.4 4 4 4 4 4 4 7 & o @ J e.X.X.X...|  ...e.M.V.D.D.V.B.V.",
"@.@.N.M.8.X.X...X.| } | 7.9.e.t.M.M.C + * 3.i 4 4 4 4 4 8 : + * J +.9.X.X.X.X.X.9.M.B.V.B.e.w.9.....",
"X.@.@.@.X.X.}  .} ( ) ` ..7.w.e.t.M.X.P s f :.4 4 4 4 4 1 o g U w.9.e.e.e.M.M.C.C.M.M.M.e.w.9...w.7.",
"@.@.M.M.e... . .[ _ ` ` [ 7.w.w.t.e.t.w.L a m i 4 4 4 7 # g E X.@.M.M.B.B.V.D.D.B.B.B.t.M.9.9...7.7.",
"@.M.M.M.w./ W  .....[ [ ..7.w.t.t.t.w.e.7.U a A 4 4 4 > j v.V.B.M.e.M.t.t.B.B.e.7...7.7...9...7./ ' ",
"o.n.M.M.X.~   ) ' ' [ w.t.t.t.S.S.S.B.w.9.7.L j r 4 5 j { B.S.G.F.V.B.t.e.e.....` `  . ...7.7.7.G F ",
"M.H.H.Z.r...' ' ) ) _ 5.4.t.S.G.H.K.J.F.C.0.X.Y 2 4 2 E ....w.F.G.G.C.e.@.....` ` | ..w.w.w.A.#.Q G ",
"C.F.H.G.V.e...|  .` _ ` 5.w.w.t.B.A.F.G.G.A.V.M.p.t { 9. .....9.N.V.e.@...X.....9.w.e.e.r.B.C.A.r.#.",
"t.B.V.F.F.V.B.t.9.....[ [ ..w.w...t.B.B.A.A.G.D.t.D.Z.M.r.9...7.e.M.e.e.e.M.V.A.S.B.t.w.w.w.r.t.t.r.",
"w.e.M.M.r.t.B.B.S.A.t.e.9.9.r.@.+.X.9.e.t.M.B.Z.S.G.C.B.B.e.e.r.e.e.e.e.t.M.M.M.B.D.B.t.w.w.7.w.e.7.",
"..w.w.@... .....9.B.V.S.B.B.B.t.w.w.7.w.w.w.t.V.S.t.B.M.X.X...X.e.V.N.e.M.t.t.e.t.V.A.A.B.w.w.e.w...",
"X.7.X... . . . .....w.C.G.G.G.V.r.t.e.e.M.e.n.M.t.0.0... . .X.M.Z.V.e.X.7... .....7.e.C.A.B.B.t.7...",
"e.e.e... .| ` '  ...X.9.B.F.J.V.! @.C.C.V.C.e.X.6.5...}  .X.M.Z.H.Z.t.X..... . .` ` ....t.C.F.G.B.e.",
"V.B.B.9...| ` ` ` `  ...e.M.Z.N.! V.G.F.C.e.9.X.X. . ...e.M.C.H.K.H.B.e.9... . .' ` |  ...t.B.S.C.C.",
"B.V.F.Z.M.X.| ` ` ' | | ..@.e.V.t.G.C.e.7...} } }  ...M.Z.D.Z.H.J.H.G.V.M.e.@... .|  . .....e.t.e.e.",
"w.e.M.e.B.B.M.9...........+.@.@.M.V.t.@...+.X.X.@.9.M.C.H.J.H.J.H.H.F.F.D.V.M.B.M.e.9.9...X.@.@.e.@.",
"e.e.e.X.X.X.w.e.e.e.M.e.e.@.e.M.M.M.e.@.@.e.e.e.M.Z.Z.H.H.H.D.H.F.C.B.B.B.M.B.B.B.B.C.C.C.M.M.M.X.@."
};
