/* XPM */
static char *result[] = {
/* columns rows colors chars-per-pixel */
"32 32 126 2 ",
"   c #010101",
".  c #0B0100",
"X  c #070800",
"o  c #090A03",
"O  c #02010A",
"+  c #0A020C",
"@  c #140302",
"#  c #190000",
"$  c #291306",
"%  c #2F1C00",
"&  c #29120C",
"*  c #371203",
"=  c #3C1803",
"-  c #371108",
";  c #3E160B",
":  c #341F0E",
">  c #351D13",
",  c #3F1F10",
"<  c #102000",
"1  c #1E2000",
"2  c #1A2A06",
"3  c #16290B",
"4  c #163108",
"5  c #19330E",
"6  c #192112",
"7  c #1B2B12",
"8  c #2B2B00",
"9  c #372706",
"0  c #2E2112",
"q  c #21291C",
"w  c #332312",
"e  c #3E2111",
"r  c #223515",
"t  c #431504",
"y  c #491402",
"u  c #421A0B",
"i  c #442010",
"p  c #264E10",
"a  c #2C5513",
"s  c #454502",
"d  c #66671B",
"f  c #6A681D",
"g  c #476434",
"h  c #4B683A",
"j  c #556E37",
"k  c #5A7139",
"l  c #BB5B33",
"z  c #9A7335",
"x  c #BB6920",
"c  c #B4693F",
"v  c #A77B34",
"b  c #A97D36",
"n  c #C6651C",
"m  c #D5651F",
"M  c #CE5E25",
"N  c #C26924",
"B  c #CB6B21",
"V  c #CC652A",
"C  c #CD6A2B",
"Z  c #D5652C",
"A  c #C06038",
"S  c #C4693B",
"D  c #CA6F38",
"F  c #D46635",
"G  c #D66837",
"H  c #C67037",
"J  c #8F7343",
"K  c #9C714F",
"L  c #AA6B4A",
"P  c #BA6642",
"I  c #BD6944",
"U  c #B3694E",
"Y  c #AE6D55",
"T  c #B36D53",
"R  c #B86E53",
"E  c #B56E58",
"W  c #A37855",
"Q  c #B27155",
"!  c #C06C47",
"~  c #DF7E53",
"^  c #729445",
"/  c #779847",
"(  c #75934B",
")  c #6D9B53",
"_  c #709B54",
"`  c #739266",
"'  c #D8813E",
"]  c #E0823C",
"[  c #E68C3E",
"{  c #9D814F",
"}  c #D8814B",
"|  c #C98A57",
" . c #DB8854",
".. c #DA875B",
"X. c #E58644",
"o. c #E98641",
"O. c #E58F46",
"+. c #EA8A44",
"@. c #E7874D",
"#. c #E48C4C",
"$. c #EF8949",
"%. c #F18A48",
"&. c #E39147",
"*. c #E89141",
"=. c #E7924F",
"-. c #E9934A",
";. c #E38D53",
":. c #EC8B58",
">. c #F38A50",
",. c #EB945F",
"<. c #ED9858",
"1. c #CF8E66",
"2. c #C88D6F",
"3. c #D79767",
"4. c #D1936E",
"5. c #C28F72",
"6. c #CF8E7A",
"7. c #D48F70",
"8. c #D38F78",
"9. c #D09175",
"0. c #E58E61",
"q. c #FFB469",
"w. c #FFAB73",
"e. c #9CB98B",
"r. c #FFB487",
"t. c #FFB48C",
/* pixels */
"        O   O           X   .   . .                 O           ",
"          O                         .             O O           ",
"                          O     O   O                           ",
"    X               X       O O O O O                       X   ",
"                                                      O         ",
"  O     O                                         O     O   O   ",
"                O                   .     O                     ",
"                O   +                         O                 ",
". .               O .         7 7         + O                   ",
"                O +     q 7 5 ` e.4 5 6     . O               . ",
"O           O     O   X 2 h p ) _ a g r X     .             O O ",
"O O O           O O     2 j ^ / / ^ k <   o   O           O O O ",
"                  O   X o 1 s d f s 8 X     O O                 ",
"          .   O O O     % { z v b z J 9 .     O     . .     X   ",
"        .       O O X w W | <.~ X.;.3.K w     O O   .           ",
"  O O     .         . = 1.;.%.m m $. .4.= .             X       ",
"    O     X         i 2.c Z [ +.q.x H P 5.e X   X               ",
"    O O       X     ; 7.>.o.+.-.&.&.w.r.6.=       X             ",
"    O O   .       . u E ~ >.X.x x =.w.t.Y - .             O     ",
"    O O         O X - 8.S V C &.-.' D I 6.; @         X O       ",
"    O O O           i 4.} o.[ *.q.-.@...8.; .                   ",
"    O             . * L ,.+.B n n C @.:.Y t . X                 ",
".     O       X     , Q l G Z V Z V F c T ; .         O O +   . ",
"                    @ y R P P I P P I U y # .         O O       ",
"                  O   @ $ w w 0 0 w > & @ X O       .         X ",
"          . .   O O   O       O O O O   O O O O   .   .       X ",
"                    O   O O + O O O O   O O       .     O       ",
"          .             O   + O + O .                   O O O   ",
"                                O       X                 O     ",
"                          X . . O   .       X     .             ",
"        O   O                                 O .     O O     . ",
"          O O O               .               O   .     O O     "
};
