/* XPM */
static char *result[] = {
/* columns rows colors chars-per-pixel */
"32 32 212 2 ",
"   c black",
".  c #010000",
"X  c #000100",
"o  c #030000",
"O  c #020001",
"+  c #000200",
"@  c #010200",
"#  c #000300",
"$  c #030200",
"%  c #000002",
"&  c #010002",
"*  c #000102",
"=  c #000103",
"-  c #010103",
";  c #030002",
":  c #020003",
">  c #000202",
",  c #000302",
"<  c #000203",
"1  c #020202",
"2  c gray1",
"3  c #040000",
"4  c #060000",
"5  c #070000",
"6  c #070200",
"7  c #040002",
"8  c #060002",
"9  c #070002",
"0  c #070103",
"q  c #060203",
"w  c #000400",
"e  c #000500",
"r  c #000600",
"t  c #000402",
"y  c #000502",
"u  c #000602",
"i  c #000702",
"p  c #000004",
"a  c #010004",
"s  c #000104",
"d  c #000005",
"f  c #010005",
"g  c #000105",
"h  c #030004",
"j  c #030005",
"k  c #000204",
"l  c #010204",
"z  c #000304",
"x  c #000205",
"c  c #030305",
"v  c #010006",
"b  c #000007",
"n  c #030106",
"m  c #000306",
"M  c #040004",
"N  c #040005",
"B  c #050005",
"V  c #060004",
"C  c #070004",
"Z  c #060005",
"A  c #070005",
"S  c #040205",
"D  c #050007",
"F  c #060107",
"G  c #000404",
"H  c #000407",
"J  c #040404",
"K  c #060604",
"L  c #070707",
"P  c #080000",
"I  c #090001",
"U  c #0A0000",
"Y  c #0B0000",
"T  c #090003",
"R  c #0D0000",
"E  c #0F0503",
"W  c #080004",
"Q  c #090307",
"!  c #0F0005",
"~  c #0F0006",
"^  c #000800",
"/  c #000807",
"(  c #010109",
")  c #02020A",
"_  c #03020A",
"`  c #070008",
"'  c #040309",
"]  c #00070A",
"[  c #060409",
"{  c #050608",
"}  c #05040A",
"|  c #06030C",
" . c #0C0308",
".. c #100000",
"X. c #120000",
"o. c #140000",
"O. c #150000",
"+. c #170001",
"@. c #150200",
"#. c #130004",
"$. c #160004",
"%. c #180000",
"&. c #361705",
"*. c #35140D",
"=. c #3A1413",
"-. c #3C1214",
";. c #351D13",
":. c #3B1D12",
">. c #3A1914",
",. c #38131B",
"<. c #3C1F19",
"1. c #3C181C",
"2. c #3C1E1E",
"3. c #1B2A0D",
"4. c #162311",
"5. c #1B2616",
"6. c #1E2716",
"7. c #1F221B",
"8. c #1F251B",
"9. c #2C2103",
"0. c #33240D",
"q. c #232416",
"w. c #2F2712",
"e. c #23261B",
"r. c #2A2D24",
"t. c #451606",
"y. c #4A1704",
"u. c #4A150F",
"i. c #440C17",
"p. c #480911",
"a. c #441110",
"s. c #401117",
"d. c #421D14",
"f. c #451719",
"g. c #40151E",
"h. c #40171F",
"j. c #491218",
"k. c #4B131C",
"l. c #4B181D",
"z. c #74321C",
"x. c #635A3D",
"c. c #67593E",
"v. c #C33D24",
"b. c #C0352E",
"n. c #C13D38",
"m. c #8D473F",
"M. c #DE4C3F",
"N. c #CC5336",
"B. c #D2593E",
"V. c #E24939",
"C. c #E44B3D",
"Z. c #B43A49",
"A. c #BB3848",
"S. c #8F434F",
"D. c #9F4640",
"F. c #9E4946",
"G. c #97444E",
"H. c #994A4D",
"J. c #905340",
"K. c #925341",
"L. c #90514C",
"P. c #9F4151",
"I. c #984C50",
"U. c #9F4859",
"Y. c #945051",
"T. c #AC414B",
"R. c #B05D4F",
"E. c #BE584A",
"W. c #BD5E58",
"Q. c #B7645E",
"!. c #B76160",
"~. c #BC6160",
"^. c #B86265",
"/. c #B36268",
"(. c #C14E49",
"). c #DB4642",
"_. c #CF5747",
"`. c #C8584A",
"'. c #CE5D4B",
"]. c #D0504D",
"[. c #DF524B",
"{. c #D9544B",
"}. c #DE4F55",
"|. c #C25656",
" X c #CB5553",
".X c #C45953",
"XX c #D65156",
"oX c #D15850",
"OX c #E24742",
"+X c #E24B42",
"@X c #E44D42",
"#X c #E04D46",
"$X c #EE5547",
"%X c #E05149",
"&X c #E35048",
"*X c #E54B53",
"=X c #7C8572",
"-X c #818E74",
";X c #EF8578",
":X c #A9B19A",
">X c #ACBAA0",
",X c #C98D8F",
"<X c #D08987",
"1X c #CE958C",
"2X c #D59B8F",
"3X c #E49287",
"4X c #FFA3A7",
"5X c #FFA6A7",
"6X c #FFC0A3",
"7X c #FFC3BA",
"8X c #FFC4BB",
"9X c #FFC0BC",
/* pixels */
"^ r + . h a p * %     X X X . . .   . o 3 4 P P W C Z a p # e r ",
"e w +   & a a %   X X X X X . o o . . X . . o 3 V V N h % X # w ",
"4 o + + % & 8 8   X # + X   . o 8 3   + w w w # p a h M ; . X + ",
"U 5   X % & 7 7 X + + X . ; & & ; & % + # w w w > % p & o o . . ",
"4 4 4 3 .   X + + X & 7 8 M a s z z s % & ; o . X X > X X . 3 4 ",
"; o 4 4   + w w X . 7 8 M h a p z z p a 8 9 8 o   + # + X . 3 5 ",
"a & .   # e e # . 8 V M % % ; ; & a h M V 7 ; . X + + +   . 7 8 ",
"a % % + e e # + ; 8 M & % X   o o 3 7 7 h h &   X + + X   . 7 7 ",
"h % , w w +   . & S % % K + # ^ # X @ J % - - X X X X X   . & ; ",
"M & + # +   o o = < % L . r.5.4.^ 6.8.7.  c % 1 X X + + X X % % ",
"h ; o 3 4 3 . X > > { . o q.:X-X3.>X=Xe.$ . & .   + # # + X % p ",
"h 7 5 P 5 3   * s s   6 5 U 0.c.9.x.w.5 6 . 2 l X + + + + X * s ",
"7 7 5 5 o   X % a F o 5 R &.y.K.z.J.t.:.P X u t w + X . . . % p ",
"& o 3 3 X X X s ' B 5 ..d.2XR.E.`.;X3X1X<.E X / # X . o o . % s ",
"+ X X X X X > k x p #.-.<XW.7X{.&X[.9X~.,X1.Y ; &   . . .   * > ",
"# # # # + X % s ] % Y f.!. Xb.@XC.M.n.|./.k.O.T ; % . . .   * > ",
"* + # # + X 8 M p X 6 *.Q.oX+XV.6XN._..X^.p.%.! & * . o o & s k ",
"% X + # # X 9 C n % . ;.m.7X#X$Xv.B.'.8XH.j.+.4 * , X . o & p s ",
". X + + +   ; h d p . @.u.D.].).OX%X(.F.a.X.0 > , t # + X . ; 7 ",
"o . + + X   % d b } S U >.L.5XXX*X}.4XY.2.3 > G , w # # +   3 8 ",
"3 o X + X   * g ) b f  .Y =.I.T.A.Z.G.s.U * x H p X + # # + . o ",
"4 3 X X X X > s ( b | f O R l.S.P.U.i.o.Q g g d a o   X + + X   ",
"5 3 X X X X + * d b _ d m 0 o.h.g.,.$.~ N v v a 7 3 3 3 .   X X ",
"9 3   X + + X X : f d d s % I U 3 q 7 V ` D j [ o 3 4 4 3 o X X ",
"V 7   + + + . o o   * * % . . X e y % ; V 7 & X X X o 4 5 4 & % ",
"M h % + # + 3 4 o X + + o o X w i u > . 4 3   + + + . 3 4 3 % % ",
"h a % X + X 4 5 o X # + 4 4 + w w w X   o .   X + X   . % % > , ",
"a % % % X X 4 4 . X # X 4 4 + # X X X X X X X X         * > , w ",
"% % % % % . o o   X + X o o   X & .   X + X . o 3 3 & % X # w e ",
"X X . ; ; ; &   X X X X X   & ; 7 7   X + +   o 3 3 ; % X + + # ",
"+ X . 7 9 M s > * X   X , > a V V M & X X + X X % % & & o 3 4 4 ",
"# + o 4 W V s z > %   X G z j A Z M a % X + + + * % % o 4 P U Y "
};
