/* XPM */
static char *result[] = {
/* columns rows colors chars-per-pixel */
"32 32 109 2 ",
"   c #010102",
".  c #090001",
"X  c #000901",
"o  c #02010A",
"O  c #020808",
"+  c #181D19",
"@  c #32111A",
"#  c #1A2503",
"$  c #132C04",
"%  c #13270E",
"&  c #0F3003",
"*  c #112710",
"=  c #192616",
"-  c #132A13",
";  c #1B2B1B",
":  c #163317",
">  c #193114",
",  c #22210F",
"<  c #232210",
"1  c #24241D",
"2  c #232F19",
"3  c #322417",
"4  c #332518",
"5  c #233116",
"6  c #3C0B28",
"7  c #35142A",
"8  c #3A142D",
"9  c #272622",
"0  c #41142B",
"q  c #5B0032",
"w  c #5A003F",
"e  c #431532",
"r  c #3F6B30",
"t  c #426932",
"y  c #4C6E31",
"u  c #4B6739",
"i  c #4F693C",
"p  c #5C6532",
"a  c #5B6B35",
"s  c #536B3B",
"d  c #5A693C",
"f  c #477131",
"g  c #63004E",
"h  c #555D45",
"j  c #585B48",
"k  c #605746",
"l  c #60564C",
"z  c #4B6541",
"x  c #4D6940",
"c  c #516740",
"v  c #636445",
"b  c #676149",
"n  c #8F7F5E",
"m  c #9C5C74",
"M  c #95567B",
"N  c #9D567E",
"B  c #898852",
"V  c #90825C",
"C  c #978A5F",
"Z  c #AD548E",
"A  c #AE5593",
"S  c #DC76AB",
"D  c #DC7FAE",
"F  c #D56FBB",
"G  c #DF76B1",
"H  c #D57CB4",
"J  c #DE7BB2",
"K  c #D57BBA",
"L  c #DF7BBB",
"P  c #E26FBC",
"I  c #E370BD",
"U  c #E37ABC",
"Y  c #DF6EC8",
"T  c #DE75C5",
"R  c #D678C3",
"E  c #DC7AC7",
"W  c #E06EC6",
"Q  c #E070C4",
"!  c #E97FC1",
"~  c #B9AF96",
"^  c #BDBE99",
"/  c #C88098",
"(  c #D1AD8D",
")  c #C8B69E",
"_  c #D4BB92",
"`  c #D187A2",
"'  c #D288A3",
"]  c #D680B1",
"[  c #D184BB",
"{  c #CAB5A0",
"}  c #D2B5A6",
"|  c #D6A3B6",
" . c #D6A2B9",
".. c #DAA7B9",
"X. c #D3AFB9",
"o. c #D3B0B4",
"O. c #D7B9B7",
"+. c #D6B9BD",
"@. c #E0BAA3",
"#. c #E0ABBB",
"$. c #EA80C2",
"%. c #E59FC4",
"&. c #E99BCB",
"*. c #FF8FDB",
"=. c #FF90DC",
"-. c #E8A4CA",
";. c #F0A1D1",
":. c #FEA3DE",
">. c #F7DCCB",
/* pixels */
"                      o o o   .   . . o o o                     ",
"                      o o             o o o                     ",
"                      o o             o                         ",
"                                                                ",
"                o   .                   .   o                   ",
"                  .     .               .   .       .           ",
"                  o .                     .   o                 ",
"                            O                                   ",
"          o   X     X         O O         X             . .     ",
"      .       O     . . . . o o o o . . . .   X O   o           ",
"      .       + , 3 @ 0 6 e 8 7 7 8 e 0 0 @ 4 < =   o           ",
"      . .   o 9 ~ >...-.;.&.-.-.-.-.&.;.%.#.>.~ 9     . .       ",
"  X   .     o 1 V @./ q U $.J D ] S $.U q / } V 9 o           X ",
"  X     o   o 1 C ( ` U =.I G S S U P =.L ' ( C 1 o   .     X   ",
"      o .   o ; B _ m K g F :.] D :.F g K m _ B 1 o     .       ",
"  X .       o ; p V ..[ K E w K K w E R [ ..V p ;       o       ",
"    o o o   X X $ v o.M A K Y W Y Q T A M X.b # X       o o     ",
"    .           5 h k O.| Z A A Z Z N | +.l j 2 X         .   o ",
".         o o     5 u s s ^ { } } ) ^ d s c 5 X               . ",
". .       o o .   X & t f y a p p a y y t & X       o           ",
"X X     o o o o     X % : z c u u i z > % X X   o o o o     X X ",
"X       . . o .     O     ; - > : - ; X   X   X o o o o .   X X ",
"      . . .             O . O     O   O         . . o . .       ",
"o o   . . .       o             o o               . . .         ",
"o o   X                                 X                   . . ",
"o .                       X                     .             . ",
"                    o o o             o                         ",
"                    o               . o . o                 X   ",
"                .                                               ",
".                                             .               o ",
"              .                                     X           ",
"        o o o           .               o   o                   "
};
