/* XPM */
static char *f61ed448df554e8ea53a25df4d0579661dOS2QWor90upfzt[] = {
/* columns rows colors chars-per-pixel */
"17 17 139 2 ",
"   c #2C1C0C",
".  c #321A0A",
"X  c #331112",
"o  c #381615",
"O  c #351A13",
"+  c #3A1D15",
"@  c #3C1B19",
"#  c #2D200F",
"$  c #37200E",
"%  c #362714",
"&  c #382217",
"*  c #420C00",
"=  c #480F04",
"-  c #4D0D0B",
";  c #461207",
":  c #4A1005",
">  c #451B03",
",  c #46130A",
"<  c #55120A",
"1  c #461413",
"2  c #4B1114",
"3  c #521415",
"4  c #74331F",
"5  c #7A331F",
"6  c #782F26",
"7  c #7E3527",
"8  c #77372B",
"9  c #7C312C",
"0  c #773E2D",
"q  c #7C3B2B",
"w  c #793134",
"e  c #793B32",
"r  c #753E3A",
"t  c #6D402B",
"y  c #774638",
"u  c #84332C",
"i  c #833C2D",
"p  c #843132",
"a  c #8C3231",
"s  c #833935",
"d  c #8C373A",
"f  c #893B39",
"g  c #943C3A",
"h  c #804027",
"j  c #85432D",
"k  c #824737",
"l  c #8F4C32",
"z  c #834339",
"x  c #9B4935",
"c  c #9E463A",
"v  c #9D4D3D",
"b  c #A24B3B",
"n  c #824C4A",
"m  c #8F4B48",
"M  c #954D45",
"N  c #9C4F41",
"B  c #9B454D",
"V  c #924A4A",
"C  c #8C514D",
"Z  c #885750",
"A  c #935854",
"S  c #A14E4B",
"D  c #A74E54",
"F  c #9F725B",
"G  c #AD6D4D",
"H  c #B3674D",
"J  c #B46B4F",
"K  c #B86B4F",
"L  c #B3724F",
"P  c #AE6C54",
"I  c #A7675D",
"U  c #AD6559",
"Y  c #A66F5B",
"T  c #AE6B5B",
"R  c #B16653",
"E  c #BC6652",
"W  c #B46D55",
"Q  c #BC6C55",
"!  c #B3665C",
"~  c #B8655D",
"^  c #B66E5C",
"/  c #BA6B5B",
"(  c #AD7455",
")  c #AE725B",
"_  c #B37252",
"`  c #BC7154",
"'  c #B5735C",
"]  c #BA715A",
"[  c #B9785C",
"{  c #9F6C68",
"}  c #AD6A64",
"|  c #A66E6F",
" . c #B36C63",
".. c #BD6B65",
"X. c #A3746C",
"o. c #B37363",
"O. c #BC7264",
"+. c #B3746B",
"@. c #BC7468",
"#. c #A97174",
"$. c #B37673",
"%. c #C16A56",
"&. c #C46E5D",
"*. c #C2715A",
"=. c #C2746A",
"-. c #CB976F",
";. c #CD9677",
":. c #CE9B75",
">. c #CF967B",
",. c #CD9C7A",
"<. c #D49576",
"1. c #D29A76",
"2. c #D5957C",
"3. c #DA957A",
"4. c #D19B7B",
"5. c #D89B7C",
"6. c #D7A37C",
"7. c #BC9B8A",
"8. c #C18C84",
"9. c #CF9B83",
"0. c #C19D8B",
"q. c #CE9F8D",
"w. c #D49684",
"e. c #DD9580",
"r. c #DA9A85",
"t. c #D1958A",
"y. c #D49B8B",
"u. c #C49C94",
"i. c #CA9E95",
"p. c #C0A087",
"a. c #C3A38A",
"s. c #C6A294",
"d. c #CCA19B",
"f. c #DCC1AC",
"g. c #E3C7AF",
"h. c #E4C6AE",
"j. c #E7C3B5",
"k. c #E1C4B4",
"l. c #E3C8B7",
/* pixels */
"@ o X @ + . $ . . O O &   %     # ",
"X.i.d.u.0.0.p.a.0.s.j.7.h.k.f.l.k.",
"( i w.>.;.6.-.1.4.4.4.4.,.,.,.9.e ",
"l [ P ' [ L L K W ^ ] P G _ ) )  .",
"; r r - < 6 i u p d p s k : , y s ",
"Z | | 3 V V S S D B B V m C 1 n  .",
"Y y.t.0 T O.R ^ ~ ....@. .M w +.4.",
"_ 2.r.q ^ _ W Q b / v x / N s Y 1.",
"` 3.3.i W ` ` K Q &.x b %.b g ! 1.",
"K 3.3.5 _ J L %.%.E %.%.%.c a / 1.",
"_ <.2.j W ] ` H E ] E Q Q N u @.2.",
"L 5.r.4 ' W W ` ` E *.x / v 9  .4.",
"G 5.r.j P W W L E ` J Q H N f  .1.",
"( r.w.8 o.o.P P W / W ] O.M w +.4.",
"F q.8.2 $.} ! =.@.! ..U I A 2 #.y.",
"> t y : = 0 z 7 7 i q q k * 1 r 0 ",
"( ,.,.,.,.4.1.1.1.1.1.1.1.:.,.,.:."
};
