/* XPM */
static char *_30f975f99bd4612ab7a833304ec3c7buaob9fbb1JGKbo4M[] = {
/* columns rows colors chars-per-pixel */
"28 24 10 1 ",
"  c None",
". c #211F30",
"X c #48475B",
"o c #62677A",
"O c #843346",
"+ c #A14744",
"@ c #B96E54",
"# c #858D99",
"$ c #AFBBC3",
"% c #D8E1E4",
/* pixels */
"                            ",
"                            ",
"     ..................     ",
"    .#$$$$$$$$$$%$%%$$$.    ",
"    .#$$$$$$$$$$%$%%$$$.    ",
"    .o##########$#$$###.    ",
"    ..XX..XXXXXXXX..XX..    ",
"    .o##.++++++++++.o##.    ",
"    .#$$X@@@@@@@@@+X#$$.    ",
"    .#$$X+++++++@+OX#$$.    ",
"    .#$$X@@@@@@@@@+X#$$.    ",
"    .#$$X+@+++++++OX#$$.    ",
"    .#$$X@@@@@@@@@+X#$$.    ",
"    .#$$X+++++++++OX#$$.    ",
"    .#$$X@@@@@@@@@+X#$$.    ",
"    .#$$X+++++++@+OX#$$.    ",
"    .#$$.@@@@@@@@@+.#$$.    ",
"    ..XX..XXXXXXXX..XX..    ",
"    .#$$$$$$%%$%$$$$$$$.    ",
"    .#$$$$$$%%$%$$$$$$$.    ",
"    .o######$$#$#######.    ",
"     ..................     ",
"                            ",
"                            "
};
