/* XPM */
static char *result[] = {
/* columns rows colors chars-per-pixel */
"50 50 81 1 ",
"  c #F46E34",
". c #EF7B3E",
"X c #F37235",
"o c #FB7B32",
"O c #E47E46",
"+ c #EF7F40",
"@ c #ED8D39",
"# c #F38F32",
"$ c #FA8D30",
"% c #F7963C",
"& c #DF945C",
"* c #F28143",
"= c #F99740",
"- c #F79944",
"; c #F69D4A",
": c #E38853",
"> c #EA9556",
", c #E59C52",
"< c #E6935A",
"1 c #E79F58",
"2 c #EEA75F",
"3 c #DF9F68",
"4 c #E69C68",
"5 c #DDA669",
"6 c #DCAC6B",
"7 c #CFAA71",
"8 c #D1A771",
"9 c #DDA770",
"0 c #D4AD75",
"q c #DAAD75",
"w c #D6AE7C",
"e c #DAAE7B",
"r c #D6B276",
"t c #D9B176",
"y c #D6B37A",
"u c #DCB57C",
"i c #D5B97D",
"p c #DEB97E",
"a c #E3A561",
"s c #EDAD65",
"d c #E2A569",
"f c #E4AF6E",
"g c #E3AA70",
"h c #E8B370",
"j c #E1B57C",
"k c #EAB67C",
"l c #E0BA7F",
"z c #EAB97C",
"x c #B3A38F",
"c c #B7AA93",
"v c #C4AB83",
"b c #CBAA81",
"n c #CDB383",
"m c #CDB88C",
"M c #D6B784",
"N c #DEB680",
"B c #D7BB85",
"V c #DEBB81",
"C c #D9BC8B",
"Z c #D1B893",
"A c #E1B781",
"S c #E2BD83",
"D c #E9BB83",
"F c #E5BE89",
"G c #DFC085",
"H c #DCC18F",
"J c #E4C186",
"K c #EAC086",
"L c #E6C48A",
"P c #E8C68E",
"I c #E7C98D",
"U c #E9C98F",
"Y c #E7C690",
"T c #E9C691",
"R c #E7CA91",
"E c #EACC93",
"W c #ECCF98",
"Q c #ECD097",
"! c #EDD39B",
"~ c #EED5A1",
"^ c #EED8A2",
/* pixels */
"JFJNutw00upJPPPPPLSAppplJJJJJJIIJSVpVpSSSJJJSASFSJ",
"SJJFSutyy0ttAJYTEYLFApupJJGJJJJJSVuipuVpppVGluppll",
"VJJPJFAuiwyupAJPTFFAAApJJJJJIIIJJJVVpuVppGGGppppul",
"PIEETTLJVVuupAAFFSNueuuuVJJIIIJJJLPPPJJLLIJLJJVSFJ",
"RW!!QEEYPLJJFSAjAAAANeuuppllJJJJAJSJFFTWQQQQQTIIYT",
"FJPTTUYYPIYRTPJAeAAAAFSSlpplzpppNAAVnxMFJKPIEEUILJ",
"VVSVZFJJJLJFJKLFDAFFFLPIUUIJVphieeuueeeeuupVJLJJAV",
"uupACLJJJSSVuvuuuSLTTTkYQ!!QUIJGNjNAeeb9rryuppJVup",
"uppSJPPJJGGpixyqetFLTF+YUQPEEEEEFFFFANeeutyurpppVp",
"VVSJJLLLSVVpury0yplJJLFPIKJSJFFTLFFFFFNNeNupppllpp",
"pVJJLLPULppiiuyyuVVASJLJJSlASAAAAf@gFFFANNppllJJAp",
"JVSSSSLUULJAppVp4gVGJJJSSllDSAjje5@3eNAFFFJJJLJJLJ",
"JVGJGJJJILJpVJG< .VYIILLSSSVSlSpuuqeeeeuVLLFJJppVJ",
"JJJJJpSSLIJpppB1 *VIIQQEEYPLLJJJFAAueeuNAVANiiitpl",
"UQUQLPPPLEULJJJJppVJLLIUEQWWQQWEETLFAAAAuyuptpippJ",
"!!!!QYEYIJJSVVppGVVVJSSupVJPITEEEEWTFAuVuupppppJIR",
"^~WERPDSuuppppicJllppVj$2upSSlJJJLJVSVApVpVplJJU!!",
"EIPLSjatrujllIHIIJJpppp,6ulASJJpppSFFJJVVpVVUEQ!^!",
"PJFSpjuVpLUQUUQURUIJJJVVyuVlSSVplplFJJJSVJVss!!QQE",
"LJFJFJJTERUUIJJGLIUURRETJpppVBVVpSSJJLJJJYJ-%JUPYL",
"LLFLJFJKLLJSllpppplJJT!QEJFANcVApAJJJJLREQRhsGJJVC",
"LJFFJJSJJVpppi6iryujSJTETJpluVVASAFSJJIQQRJJVGSJCZ",
"SSFFLJJJppppptr6rrypAFJJPSuuulSSVSJJLIURLJllJlJJSS",
"LLJJJJJIJJJJliiiryipSSFFSSSlllFJPTETREUJJGGJJJJUPP",
"FLLLTIYRIIJJlllpuypAlAASJLJUUIRYEQTULKKJJJIUREQTYJ",
"uAuVAJJLJJJiiplipuuuupJJLLJJJJSVllSSlLLIURUEEEPSAj",
"juNjpJLJJJJGcGJJppy0dVJJJlpVpppupppJJLUUIUURUJFlpp",
"uuuNVJJJJIIIIIJJJVt.odJJlpplpVpVpJJJUUUURUUILFAupu",
"tpjJLLIIIUUIUJLJLLL>@zILJJJJJJJplVlpVGJJGJJJJJSSpu",
"pllIURRRUJIJJJJLJJJLIIQURQQIJJppiipppVpppipppjAuuu",
"jJJJIIJIJJJJJILJILGJJJJJIUIRIIGpGppJJJJpppppputuqt",
"lVJJJJJJJJJIUUIIUUJGGlpGpllJIIRUQUUQQQILlppppupVSA",
"UQQUUUIJIJLLIQE!!!QTLLGpiriuppGCkPLKLJVpuyplAJLTEW",
"UUUQUIJJpJppSLPUEEEEUImVirrrrpp1XaVDVppryypLPYYUPL",
"llJlpppyirrrNVFFKJJJUUIUJiiupuu9<jSpppppSJLPJSSVlu",
"lllJpirrr77rtupDFFJFJJIUUJJJApluVVSSVJJLLJJKJAVupN",
"llSJSpuyw08wuNAAFSFAAjSJUQQUUKJppJJJPPEELLJFJVVNuN",
"lJJJV3&yuuteuNAFFFSApupplJJIUUPLJSFFJJLFVuNNuNuM5e",
"fJLJp:Or0qeAFFFTTTLSpuupllllJJTQTTPJFAlt00uyeuAN@#",
"JEEUStq0088bxFTWW~~ELSlllJppupSTQQYSVuty0euAAFLk=%",
"YEQQPFAt0808bNAFLYWWWELLIIJpuupALLSlupuMuASFDJPYDk",
"FLPTTTJFVNetuNAAuFFJYEQERRILlVuASJSlSKFETLFSNAFFFF",
"ASJFSFJLTYJSVSSAuppFSFFTTRPIJJAADJDJFJJJPTTFAAAAAN",
"pApjppuNVLTTTLLFDuAANSFLIILJVjpVFJFSJFSJJLYLJADANN",
"pVuuuyrtuuAPE!ETFFSSSJJLGBVurypJUUSuuuNuuVFPYPPFVN",
"SVSut000yuuVJE!P;DJUILSpnvyrrpJIQTJlNyr000yuFPREJS",
"ULLAur0000tulLTK;LWEPVVuyyuyVLIQ^QLFVNtyq08yuFYYPP",
"JUETJlu000ryplSUJEPSVuurrypJIERQ!QEPJSuVtryupuSJSS",
"SSJJJPSVpuupujlSLLFljupppVJUQ!Q!WWEERLLJJVVpppSSll",
"SSAVVpSASSSSSlSSJSSlAJSSKUUQUQQQEPPJLLLLLIIILJJJpp"
};
