/* XPM */
static char *result[] = {
/* columns rows colors chars-per-pixel */
"32 32 200 2 ",
"   c #010102",
".  c #0A0102",
"X  c #010A00",
"o  c #080900",
"O  c #02010A",
"+  c #090309",
"@  c #0A0A0D",
"#  c #110008",
"$  c #140304",
"%  c #020111",
"&  c #171D12",
"*  c #200000",
"=  c #3D0E00",
"-  c #291B0C",
";  c #3B0C1E",
":  c #2C151B",
">  c #2D1C1B",
",  c #34171D",
"<  c #341B15",
"1  c #0E2800",
"2  c #162602",
"3  c #132C02",
"4  c #1B2C05",
"5  c #1A260A",
"6  c #142A0C",
"7  c #1B2B0C",
"8  c #152508",
"9  c #053300",
"0  c #0E3801",
"q  c #113302",
"w  c #1A3302",
"e  c #1C340B",
"r  c #142714",
"t  c #1C2614",
"y  c #122A14",
"u  c #1B2912",
"i  c #1E261A",
"p  c #1C2B1B",
"a  c #1A3419",
"s  c #232204",
"d  c #213104",
"f  c #232914",
"g  c #29231D",
"h  c #242619",
"j  c #372116",
"k  c #2D1924",
"l  c #3B1C24",
"z  c #371725",
"x  c #1A2423",
"c  c #2C2723",
"v  c #490B0E",
"b  c #460B07",
"n  c #48140A",
"m  c #470C1A",
"M  c #490919",
"N  c #41121D",
"B  c #4A1615",
"V  c #511517",
"C  c #650018",
"Z  c #420F22",
"A  c #550621",
"S  c #530A21",
"D  c #5B0920",
"F  c #471728",
"G  c #511320",
"H  c #63313A",
"J  c #0F4000",
"K  c #145700",
"L  c #1B5C00",
"P  c #1E590E",
"I  c #195000",
"U  c #1C5510",
"Y  c #265707",
"T  c #265618",
"R  c #1E6202",
"E  c #176200",
"W  c #226304",
"Q  c #3A7702",
"!  c #3E791C",
"~  c #2B4C2A",
"^  c #386E32",
"/  c #387623",
"(  c #447A06",
")  c #437D13",
"_  c #497718",
"`  c #446E22",
"'  c #456A2C",
"]  c #4B7026",
"[  c #4D722A",
"{  c #48762A",
"}  c #4B6631",
"|  c #4C6A34",
" . c #456A38",
".. c #546D3B",
"X. c #4B7334",
"o. c #45713C",
"O. c #7B2D49",
"+. c #6C3745",
"@. c #7B3045",
"#. c #7D464B",
"$. c #7B5057",
"%. c #546449",
"&. c #546941",
"*. c #9C1A35",
"=. c #872C3E",
"-. c #9A223C",
";. c #97203E",
":. c #B0213D",
">. c #AB3C4E",
",. c #B8334E",
"<. c #B7314C",
"1. c #A43E53",
"2. c #AD3C57",
"3. c #BB3953",
"4. c #B52C48",
"5. c #9E434A",
"6. c #8D455F",
"7. c #9A465A",
"8. c #A4434E",
"9. c #AD435C",
"0. c #A84457",
"q. c #B14859",
"w. c #904B60",
"e. c #955065",
"r. c #B65A66",
"t. c #BC5D6A",
"y. c #A55F77",
"u. c #936472",
"i. c #9F6178",
"p. c #9B666C",
"a. c #A36069",
"s. c #BD626B",
"d. c #AA6879",
"f. c #C05569",
"g. c #43820D",
"h. c #5F9E1C",
"j. c #6D9D1B",
"k. c #6A9A18",
"l. c #729F1E",
"z. c #6CA413",
"x. c #6EA21B",
"c. c #68A41E",
"v. c #73A616",
"b. c #72A41C",
"n. c #73AC1F",
"m. c #5B9D39",
"M. c #6E9C23",
"N. c #6E9C2C",
"B. c #739D2C",
"V. c #719F22",
"C. c #6B9E33",
"Z. c #6C9D3A",
"A. c #639B3A",
"S. c #729939",
"D. c #5FA02A",
"F. c #5EA633",
"G. c #5FA13F",
"H. c #65A321",
"J. c #6DA224",
"K. c #6AA02A",
"L. c #69A42A",
"P. c #74A425",
"I. c #71A329",
"U. c #77A928",
"Y. c #63A53B",
"T. c #68A335",
"R. c #74A33A",
"E. c #77A335",
"W. c #6B9B47",
"Q. c #719C43",
"!. c #759549",
"~. c #779746",
"^. c #739951",
"/. c #7C9B5C",
"(. c #789555",
"). c #5CA343",
"_. c #67A744",
"`. c #70AD45",
"'. c #9CCD3D",
"]. c #99C738",
"[. c #A4C83D",
"{. c #888563",
"}. c #8B836A",
"|. c #8A8669",
" X c #8E9166",
".X c #938A72",
"XX c #9FC847",
"oX c #A4CA44",
"OX c #A9CE44",
"+X c #A3CC4B",
"@X c #A3C441",
"#X c #A8D449",
"$X c #A1CD52",
"%X c #A6C359",
"&X c #AAC366",
"*X c #ADC668",
"=X c #EBFFEA",
"-X c #F1FFED",
";X c #EDFFF3",
":X c #F2FFF2",
/* pixels */
"    . + +   .         X                           . +         . ",
"              +                                     O           ",
"X         .     .               O     .         +               ",
"X   X             .             O O                             ",
"O O       X                       O                 X   X       ",
"O O O   X   X                   O       .                   . . ",
".                     +         O         .           O     . . ",
".       . . .                 X     O                       O O ",
"        $ Z z l .     f 4 2 e 2 7 X   X u 7 7 7         .       ",
"      . ; d.d.u., $ < .X{.{. X{.}.- . > }..X|.|.g     X X   @ O ",
"      . N e.6.6.+.m V v B n = n v V M V v b n B l .         O % ",
"    X . $ S D O.S O.1.t.r.s.5.t.8.8.9.9.t.0.r.a.u.k   O     O % ",
". +   + F 6.O.A S A C ;.;.-.3.*.3.3.,.4.:.<.-.=.G , @     +   X ",
"O +   . Z y.w.v +.H 7.7.7.1.2.2.2.q.>.q.>.2.0.7.$.>   X         ",
"+     . m d.6.j t p f & c : l l , k j - : , z z g h     O O   X ",
"      . z p.j - o.^ o.o.~ =X:X:X;X~ ^ T =X:X:X:X~ %.c   O       ",
"        # : f } _.T.N.R./ U P U U / _.! R L Y T ] /.u   O O     ",
"    X +   X 7 ^.N.x.k.B.`.).)._.)._.F.D.F.)._.A.C.!.6           ",
"            3 Q.P.v.V.E.I W R K L W K E E L Y Y N.T.u @         ",
"        .   4 !.x.v.M.( Z.m.`.Y.T.Y.Y.G.m._.S.S.g.A.8       .   ",
"            f (.M.v.U.l.U.c.c.h.( Q ) ) g.D.C.R.C.!.r O     O O ",
"        +   X 3 _ B.B.M.x.z.z.n.H.H.K.K.h.H.C.`.` w X       O % ",
"O O +   O O X X e } ] S.P.b.b.P.U.J.M.b.P.L._ ^ a X   X X X + O ",
"% O O   O O   X 3 q q S.P.j.j.V.J.P.b.v.z.H.0 q r X X   X   + O ",
"O O     X     4 S.B.S.`.k.B.$X@XOXOX].'.#XM.~.3 ' 3             ",
"O O       X i &.S.N.g.J E.+XoXOXOX[.OXXX'.$X~.d [ X.f       O   ",
"          X i %.&.[ 9 N.M.OXOX[.[.oXoX#X].XX~.4 ' ..i           ",
"            X t y q { Z.S.E.%X%X*X&X&X%X$XK.!.3 w 7     O   + O ",
"            X X X 6 / _.^.w 2 4 7 8 7 d 3 S./.w X   O O     O + ",
"                O y ' ^...u       O % & ../.} 8   O % O   X   O ",
"    +   O         r o.' y     +   O O x &.| u X X   O   X     . ",
"    + O O     +   X 9 0 X O     X   % O 3 1 X   X X   +     o   "
};
