/* XPM */
static char *result[] = {
/* columns rows colors chars-per-pixel */
"50 50 200 2 ",
"   c #74483E",
".  c #323443",
"X  c #3A3644",
"o  c #323A47",
"O  c #3D3C47",
"+  c #333B49",
"@  c #3C3C4B",
"#  c #3D3F51",
"$  c #433545",
"%  c #433A45",
"&  c #4E3D46",
"*  c #493A48",
"=  c #553647",
"-  c #5B3B49",
";  c #603F4B",
":  c #6A384A",
">  c #77374B",
",  c #32424A",
"<  c #2E4754",
"1  c #2C4D59",
"2  c #314750",
"3  c #2C525B",
"4  c #335051",
"5  c #32545E",
"6  c #335E58",
"7  c #346C5F",
"8  c #2A5660",
"9  c #285E68",
"0  c #27676F",
"q  c #28636B",
"w  c #337967",
"e  c #257077",
"r  c #257C7E",
"t  c #47444A",
"y  c #48444B",
"u  c #564047",
"i  c #534249",
"p  c #5D4349",
"a  c #544B4E",
"s  c #454658",
"d  c #534750",
"f  c #5E4E54",
"g  c #5C5552",
"h  c #5F5A56",
"j  c #6B474A",
"k  c #64494B",
"l  c #6E4C4D",
"z  c #76454F",
"x  c #784C4C",
"c  c #7A5549",
"v  c #675657",
"b  c #775A57",
"n  c #6A615B",
"m  c #72655A",
"M  c #7B605A",
"N  c #75685C",
"B  c #4F5268",
"V  c #57586B",
"C  c #5E627B",
"Z  c #726364",
"A  c #7E6C6A",
"S  c #717071",
"D  c #88384D",
"F  c #97394F",
"G  c #A33A50",
"H  c #AC3A51",
"J  c #BD3B53",
"K  c #C03D54",
"L  c #87514D",
"P  c #96564F",
"I  c #915654",
"U  c #A35157",
"Y  c #A45B51",
"T  c #BB575B",
"R  c #88695E",
"E  c #9D6559",
"W  c #84705C",
"Q  c #A86557",
"!  c #AC695A",
"~  c #B06D5D",
"^  c #896765",
"/  c #8A7662",
"(  c #8B7965",
")  c #8B7A67",
"_  c #92776C",
"`  c #977F77",
"'  c #A47669",
"]  c #B57562",
"[  c #B97B66",
"{  c #AD7D75",
"}  c #C34055",
"|  c #C84557",
" . c #CC4A59",
".. c #D24F5B",
"X. c #CC515B",
"o. c #D7555D",
"O. c #DD595F",
"+. c #E15D60",
"@. c #DD6061",
"#. c #E86363",
"$. c #E96966",
"%. c #E96A66",
"&. c #EC746B",
"*. c #ED7C6D",
"=. c #35896E",
"-. c #27817E",
";. c #2B8C7D",
":. c #2F947D",
">. c #359373",
",. c #329B7C",
"<. c #36A57C",
"1. c #F29038",
"2. c #998469",
"3. c #9A8870",
"4. c #A18B6E",
"5. c #B3826B",
"6. c #BE826A",
"7. c #AE936D",
"8. c #B2946E",
"9. c #B4986F",
"0. c #AF8178",
"q. c #B78178",
"w. c #A69374",
"e. c #B59B73",
"r. c #B89C74",
"t. c #BBA177",
"y. c #BBA57D",
"u. c #DF9A5E",
"i. c #F79843",
"p. c #C2896E",
"a. c #C58D71",
"s. c #C99476",
"d. c #CD9B7C",
"f. c #EF8371",
"g. c #F29378",
"h. c #C4A475",
"j. c #C6A678",
"k. c #CCAC7C",
"l. c #D5AE75",
"z. c #D7AE7B",
"x. c #D7B176",
"c. c #DAB377",
"v. c #D6B37A",
"b. c #DCB57C",
"n. c #DEB97E",
"m. c #E8AB67",
"M. c #E8B679",
"N. c #E0BA7F",
"B. c #626680",
"V. c #676B85",
"C. c #6F7987",
"Z. c #6D718E",
"A. c #767D93",
"S. c #7C8695",
"D. c #B19284",
"F. c #BD9B8A",
"G. c #9B9DA2",
"H. c #CD8E80",
"J. c #D79686",
"K. c #E39B89",
"L. c #C4AC82",
"P. c #D2A483",
"I. c #D7A98A",
"U. c #CDB282",
"Y. c #D3B585",
"T. c #DDB680",
"R. c #DEBB82",
"E. c #D8B68D",
"W. c #CAA591",
"Q. c #D7AE97",
"!. c #D5B892",
"~. c #E7A08D",
"^. c #E8A48F",
"/. c #E4B882",
"(. c #E2BD83",
"). c #E6BF89",
"_. c #EAA691",
"`. c #ECAB95",
"'. c #E6B49C",
"]. c #F0B39A",
"[. c #F4B89E",
"{. c #F6BDA1",
"}. c #DFC087",
"|. c #E4C186",
" X c #EAC086",
".X c #E6C48B",
"XX c #E8C68E",
"oX c #E7C98D",
"OX c #E8C98E",
"+X c #E7C790",
"@X c #E7C991",
"#X c #EACC93",
"$X c #EACD96",
"%X c #EDD197",
"&X c #EDD39B",
"*X c #F1C1A4",
"=X c #F9C3A6",
"-X c #FBC7A9",
";X c #FDCAAB",
":X c #EED7A1",
/* pixels */
"|.).|.R.b.c.z.l.l.v.n.|.XX.XXXXXXX).)./.b.N.b.(.|.|.|.|.|.|.oX|.|.(.R.R.n.n.|.R.(.|.|.|.(.(.(.(.|.(.",
"(.|.|.)./.b.c.v.v.x.x.b.(..X@X#X#X+X|.).N.N.b.N.(.}.|.|.|.|.oX|.(.(.v.b.n.n.n.n.n.n.R.}.n.b.b.N.N.(.",
"R.|.|..X).).R.b.v.v.z.b.v.(.).XXXX).)./.(.N.R.|.|.|.|.|.|.oXoX|.|.|.R.R.n.b.R.n.n.N.}.}.n.n.n.b.b.N.",
"XXoX#X$X@XXX|.).R.R.b.b.v.W / / ) ) / z.z.b.b.b.n.|.oXoXoXoX|.|.|..XXXXXXX|.|..XoX.XoX|.|.(.|.}.).).",
"@X#X&X&X%X$X#X+XXX.X|.).U.. k T T T T v b.N.b.b.n.n.n.|.oX|.|.|.N.|.).|.}.}.OX$X%X%X%X%X$X@XoXoXXX@X",
".X).XX@XXXXX+X+X@X@X@X@XY.. z #...K K y (.(././.N.n.n.n.M.n.n.n.b.N.N.b.Y.F.T.).|.|.XXoX#X#XoXoX|.|.",
"T.R.(.R.!.).|.|.|.|.|.(.k.y : H H = . $ * * X w.Y.Y.v.k.j.t.l.t.h.h.h.d.v.z.z.z.v.b.n.(. X|.oX|./.R.",
"b.b.n.E.R..X|.|.|.(.(./.T.L.2.. . . . K o.T ; . & p - p k   p p ; ; ; k _ 7.z.x.c.v.v.b.b.N.N.|.n.b.",
"N.b.n.R.|.XXXX|.|.}.R.n.k.) ^ z : X . D > = : : X.O.#.$.%.&.&.&.&.%.#.#.U z 2.7.v.v.v.v.n.n.n.n.R.n.",
"n.(.(..X|..X.X.X|.R.R.n.h.. ; ..} = . X > F | ....o.#.%.%.&.*.f.g.&.#.#.#.+.z a 8.n.n.n.n.n.n.n.n.n.",
"n.(.|.|.|..XXXoX|.n.n.v.h.. $ = : $ . $ J J | +.#.#.#.#.#.#.#.f.g.&.&.&.#.#.@.z a 8.n.n.n.n.n.n.R.R.",
"|.R.(.(.(.|..XoXOXoX|.R.j.. . . . . D G J | O.#.#.#.#.#.#.#.#.g.g.*.*.&.#.#.#.U . 3.|.|.|.oXoXoX.X|.",
"n.|.}.|.}.N.(. XoX2.a g 9.h.k.u.  . H J J ..#.#.#.#.#.#.#.#.#.$.%.#.#.#.+...O.T > O j.|.|.}.n.R.n.|.",
"|.|.|.|.|.(.(.).}.2.^ a.t g |.u.  . H J J  .O.O.O.O.#.+.#.#.#.#.#.#.#.#.#.O.O. .> . e.R.n.n.v.c.n.R.",
"OX%XOX%XoX.X.XXXoXe.A R p k 3.j.m . H J J J | K | ..+.o.#.#.#.#.#.#.#.+.#...| J > . 7.v.c.c.n.c.n.|.",
"&X&X&X&X%X@X#X@XoX}.m . P L o W m . H J J J  .K ....................o....... .J > . 9.n.n.n.n.|.oXOX",
":X:X%X$X#XXXM.(.R.v.n o u - . S N . H J J J J J J J J J J J J J J J J J J J J J > . e.n.N.|.|.OX%X:X",
"$XoXXX X(.b.m.v.7.h C S.V.A.C V O . = - G = = = = = = = = = = = = = = = = = = = $ . 9.R.oXOX&X:X:X&X",
"XX|.).N.n.b.T.T.2.. C.G.A.G.Z.B . . F H J > . + . . . . . . . . . . . . . . . . . . e.m.m.%X&X&X$X@X",
".X|.).|.).).|.Y.3.. . . . . . . . . $ . . # * { ~.~.~.~.~.~.~.~.K.~.~.~.~.^.~.0.% . r.i.i. XOXXX+X+X",
".X).|.).).j.3.. . . @ 2 s 2 * . . . F . f ' K.K.{.;X*XW.W.W.W.-X-X=X=X=XQ.W.W.Q.` . L.m.m.R.|.|.(.E.",
"|.XX).|.).y . @ B B V.Z.Z.Z.V.B % . . * ~.].].].'.;X'.Z . A ` ;X=X{.{.=XD., s F.` . r.|.R.}.|.(.E.!.",
"(.).).w.M @ . + V Z.Z.Z.B B.B s @ . _ { _.;X;X;X;X;X*XJ.{ Q.;X{.A A A A '.q.{ [.` . e.|.}.(.N.|.n.|.",
"|.XX|.( . . C B.V.Z.Z.Z.B.V.B . . . H.v _.;X;X;X;X;X-X{.{.-X;X*XW.W.W.W.*X{.{.-X3.. e.E.|..XoXXXoXoX",
").r.y % . . @ @ @ @ @ @ @ @ X . . + H.* K.K.{.`.-X;X;X;X;X;X;X;X{.~.~.{.;X;X;X;X3.. t.OX@X#X#X#XXX.X",
"/.e.. j Y Y Y Y Y Y Y Y Y U Y Y Y & { H.J.].=X{.=X-X;X;X;X;X;X;X;X;X;X;X;X;X-X-X` . y.#X$X#XXX(.(.b.",
"b.8.. j Y Q ! ! ! ! ! ! ! Y Q Y Y j X . ^ K.K.K._.`.;X;X;X-X;X;X;X;X;X;X;X;X=X_.^ . y.#XOX|./.(.b.M.",
"b.7.. j Y ] a.a.a.a.a.[ ] Q ~ Y L z . @ ' ' H.K.].{.{.].{.{.].{.[.[.[.[.[.[.[.J.v h L.@X X(.N.b.b.b.",
"v.7.. c ] ] a.a.a.a.a.[ ] ~ Y Y p . . . . . v ^ ^ K.K.K.K.K.K.K.K.K.K.K.K.J.^ v g h.).|.|.|.).(.N.b.",
"b.e.. l 6.a.a.a.a.a.a.a.p.Q L & 5 0 0 q . . . . . f f f f f f f f f f f f d . . y g r.R.N.b.N.b.b.v.",
"n.e.. M a.I.Q.I.d.P.a.a.a.p.^ . w ,.r e . k P * . . . . . . . . . . . . . L x . . . 9.n.R.b.c.x.c.b.",
"N.e.. M a.I.E.I.d.d.a.a.5.. 6 <.<.;.r e . X $ . . r r r 8 . . . . 1 r 1 . % X . 5 r < . b.b./.R.R.(.",
"#Xj.. M a.s.E.s.s.s.s.a.5.. 7 ,.<.<.<.e . l Q i . <.<.<.w 4 o . 4 w :.1 . E L . 7 <.4 . n.}.}.#X#X$X",
"OXy.. M a.I.I.P.d.d.s.a.5.. 6 <.<.<.<.e . M p.f . <.<.<.>.,., , >.=.;.1 . 5.' . 3 :.4 . oXoX@XoXXX X",
"n.e.. M d.a.J.P.d.a.a.a.5.. 6 <.<.w 7 8 . M a.a . <.<.<.7 =., , =.7 ;.1 . 5.' . 8 :.4 . |./.R.R.N.b.",
"n.e.. M d.a.j.d.s.a.a.a.5.. 6 <.<.=.+ . . M a.f . ;.<.<.>.>., , >.w -.1 . 5.' . 8 :.4 . |.(.R.b.N.T.",
"N.e.. M a.a.a.a.a.a.a.a.5.. , 4 4 4 . . . l ! u . ,.<.<.<.<.=.=.<.<.-.1 . E I o + 2 o . ).R.R.T.z.T.",
"n.e.. b a.a.a.a.a.a.a.6.[ . O y * y . . . b 6.i . r ;.<.<.<.<.;.,.r r 1 . ' E . @ y . . b.R.b.Y.m.z.",
"m.e.. l p.a.a.a.a.[ [ ] E . b _._._.t . . j Y & . r ,.,.,.:.,.,.,.;.r 1 . P L . _ ^.f . b.b./.T.1.1.",
"|.L.. v [ [ a.a.a.a.6.] ] u ^ D.D.w.t . . u c % . q 9 9 9 9 9 9 9 0 0 < . x j . Z D._ m /.).).M.i.1.",
"@XY.3.M k ~ a.a.a.a.[ ] Y Y x . . . . . . & j % . 8 1 . . . 3 o 3 0 0 , . k p . . . r.(.(.)..X+X).M.",
".X|.XX) . Q ~ ~ ~ ~ ~ ~ Q Y P x & . . . . & u % . 3 < . . . < o 3 1 1 o . u u . v 4.k.(././.(.).).).",
"R./.).k.e.f & & & & & & & & & & O . . . . . . . . . . . . . . . . . . . . . . . ) @XXX).R././././.T.",
"b.R.(.N.n.t . . . . . . . . . . . . . . . . . . . . . . . . . o . . . . . . . . ) OX+X+X)././././.b.",
"T.R.R.v.b.z.x.c.b.n.(.XX$X&X$XXXN . . . . . . t t t t t t t t t y @ . . . . . . W R.R.oX+X+X).).R.T.",
"R.(.(.b.c.l.l.l.v.v.b.(.|.$X&XXXc . . . . . . 9.U.L.v.x.v.n.|.OX&Xw.. . . . . . W z.v.b.).+X$X$X|.(.",
"XXXX|./.b.x.l.l.l.l.v.v.R.|.#X Xc . . . . . o 8.v.v.v.n.R.|.OX%X:Xw.. . . . . . W l.l.z.b.).+X+XoXXX",
"|.XX$X@X|.N.x.l.l.l.x.b.b.n. X XN . . . o v 2.h.x.v.n.R.oX$XOX$X&Xw.. . . . a 2.r.c.v.b.b.n./.(.(.(.",
"(.(.|.)..X.X|.N.b.b.b.b.b.N.N.N.N . . . . W n.n.N.R..XOX%X&X%X%X&Xw.. . . . g |.|.R.R.R.b.n.(.n.(.N.",
"(.(.(.b.b.N.(.(./.(.).(.(.N.(.(.N . . y k.n.(.|.|.OXOX#X#X%X%X%X@Xw.. . . t.U.+XXXXXoXoX.X|.|.|.n.N."
};
