/* XPM */
static char *result[] = {
/* columns rows colors chars-per-pixel */
"50 50 199 2 ",
"   c #74483E",
".  c #323443",
"X  c #3A3644",
"o  c #323A47",
"O  c #3D3C47",
"+  c #333B49",
"@  c #3C3C4B",
"#  c #3D3F51",
"$  c #433545",
"%  c #433A45",
"&  c #4E3D46",
"*  c #493A48",
"=  c #553647",
"-  c #5B3B49",
";  c #603F4B",
":  c #6A384A",
">  c #77374B",
",  c #32424A",
"<  c #2E4754",
"1  c #2C4D59",
"2  c #314750",
"3  c #2C525B",
"4  c #335051",
"5  c #32545E",
"6  c #335E58",
"7  c #346C5F",
"8  c #2A5660",
"9  c #2C5960",
"0  c #285E68",
"q  c #27676F",
"w  c #28636B",
"e  c #2C696A",
"r  c #337967",
"t  c #257077",
"y  c #257C7E",
"u  c #47444A",
"i  c #48444B",
"p  c #564047",
"a  c #534249",
"s  c #5D4349",
"d  c #544B4E",
"f  c #454658",
"g  c #534750",
"h  c #5E4E54",
"j  c #5C5552",
"k  c #6B474A",
"l  c #64494B",
"z  c #6E4C4D",
"x  c #76454F",
"c  c #784C4C",
"v  c #7A5549",
"b  c #675657",
"n  c #775A57",
"m  c #6A615B",
"M  c #72655A",
"N  c #7B605A",
"B  c #75685C",
"V  c #4F5268",
"C  c #57586B",
"Z  c #5E627B",
"A  c #726364",
"S  c #7E6C6A",
"D  c #88384D",
"F  c #97394F",
"G  c #A33A50",
"H  c #AC3A51",
"J  c #BD3B53",
"K  c #C03D54",
"L  c #87514D",
"P  c #96564F",
"I  c #915654",
"U  c #A35157",
"Y  c #A45B51",
"T  c #BB575B",
"R  c #88695E",
"E  c #9D6559",
"W  c #84705C",
"Q  c #A86557",
"!  c #AC695A",
"~  c #B06D5D",
"^  c #896765",
"/  c #8A7662",
"(  c #8B7965",
")  c #8B7A67",
"_  c #92776C",
"`  c #977F77",
"'  c #A47669",
"]  c #B57562",
"[  c #B97B66",
"{  c #AD7D75",
"}  c #C34055",
"|  c #C84557",
" . c #CC4A59",
".. c #D24F5B",
"X. c #CC515B",
"o. c #D7555D",
"O. c #DD595F",
"+. c #E15D60",
"@. c #DD6061",
"#. c #E86363",
"$. c #E96966",
"%. c #E96A66",
"&. c #EC746B",
"*. c #ED7C6D",
"=. c #35896E",
"-. c #27817E",
";. c #2B8C7D",
":. c #2F947D",
">. c #359373",
",. c #329B7C",
"<. c #36A57C",
"1. c #F29038",
"2. c #998469",
"3. c #9A8870",
"4. c #A18B6E",
"5. c #B3826B",
"6. c #BE826A",
"7. c #AE936D",
"8. c #B2946E",
"9. c #B4986F",
"0. c #AF8178",
"q. c #B78178",
"w. c #A69374",
"e. c #B59B73",
"r. c #B89C74",
"t. c #BBA177",
"y. c #BBA57D",
"u. c #DF9A5E",
"i. c #F79843",
"p. c #C2896E",
"a. c #C58D71",
"s. c #C99476",
"d. c #CD9B7C",
"f. c #EF8371",
"g. c #F29378",
"h. c #DCA66A",
"j. c #C4A475",
"k. c #C6A678",
"l. c #CCAC7C",
"z. c #D5AE75",
"x. c #D7AE7B",
"c. c #D7B176",
"v. c #DAB377",
"b. c #D6B37A",
"n. c #DCB57C",
"m. c #DEB97E",
"M. c #E8AB67",
"N. c #E8B679",
"B. c #E0BA7F",
"V. c #626680",
"C. c #676B85",
"Z. c #6D718E",
"A. c #767D93",
"S. c #7C8695",
"D. c #B19284",
"F. c #BD9B8A",
"G. c #9B9DA2",
"H. c #CD8E80",
"J. c #D79686",
"K. c #E39B89",
"L. c #C4AC82",
"P. c #D2A483",
"I. c #D7A98A",
"U. c #CDB282",
"Y. c #D3B585",
"T. c #DDB680",
"R. c #DEBB82",
"E. c #D8B68D",
"W. c #CAA591",
"Q. c #D7AE97",
"!. c #D5B892",
"~. c #E7A08D",
"^. c #E8A48F",
"/. c #E4B882",
"(. c #E2BD83",
"). c #E6BF89",
"_. c #EAA691",
"`. c #ECAB95",
"'. c #E6B49C",
"]. c #F0B39A",
"[. c #F6BDA1",
"{. c #DFC087",
"}. c #E4C186",
"|. c #EAC086",
" X c #E6C48B",
".X c #E8C68E",
"XX c #E7C98D",
"oX c #E8C98E",
"OX c #E7C790",
"+X c #E7C991",
"@X c #EACC93",
"#X c #EACD96",
"$X c #EDD197",
"%X c #EDD39B",
"&X c #F1C1A4",
"*X c #F9C3A6",
"=X c #FBC7A9",
"-X c #FDCAAB",
";X c #EED7A1",
/* pixels */
"(.}.(.(.(.(.}.}.}.B.B.}.m.m.R.T.(.}. XXX}.}.}.}.}.}.}.m.m.m.m.}.).OX.X).OX.X}.n.n.z.z.z.v.n.T.).}.).",
"(.m.B.n.n.B.R.R.{.B.B.m.m.m.b.n.R.}.}. X}.}.}.}.B.}.m.v.m.m.}.}.OX#X#XOX).(.n.b.z.b.b.v.N.(.(. X}.(.",
"(.T.B.m.m.m.{.{.B.m.m.T.m.m.m.m.}.}.}.}.XXXX}.}.}.}.}.}.B.B.B.}.).OX X).(.v.v.x.b.n.n.T.(.(. X X}.R.",
"(.(.(.(.}.}. X XXX X X}.}.XX.XXXXX}. X}.XXXXXX X}.m.m.v.n.v.m.W / ) / / / x.T.n.T.(.(..X.X@X#X+XOXXX",
"+X.XXXoXoX#X$X$X#X$X$X.X X(.)./.}.B.(.}.}. X{.m.n.n.n.n.n.n.b T T T T l . U.|.}. XXX.X#X#X#X$X%X#X+X",
"}. XXX@X@X@XoX X X X).Y.F.Y.T./.B.B.n.N.m.m.m.m.B.(.(.(./.(.i } } ..#.x . Y.+X+X+X+XOX.X.XOX+X.X). X",
"T.R.}.}.}.}.(.m.n.v.b.b.U.x.k.k.j.j.j.j.l.l.l.b.Y.Y.4.X * * $ . = H H : i l.}.}.}. X}. X}.!.E.(.R.T.",
"n.m.B.{.R.m.n.b.v.x.z.b.7.' ; ; l - ; ; s ; ; ; s - . l T o.} . . . . 2.L.n.m.{.(.}.}.}. XR.R.m.n.n.",
"T.m.m.R.m.v.v.b.b.b.7.2.c P #.#.&.&.&.&.&.%.%.#.o.X.: : * > D . X : x R ) U.T.R.{.}. X.XXX}.R.m.m.m.",
"B.m.B.B.m.m.m.m.m.7.d x @.#.#.#.&.g.*.*.&.&.%.#.o.....| F > X . = } ..: . k.m.m.R.}.}. X X}. XB.R.T.",
"m.m.(.(.{.m.m.{.9.d x O.#.#.%.&.&.g.f.#.+.#.#.#.#.#.+.| J J $ . X : : X . j.b.m.m.}.XXXX X X}.}.B.m.",
"}. X X X}.}.}.}.3.. U #.#.#.&.*.*.g.g.#.#.#.#.#.#.#.#.O. .J G D . . . o . k.(.}.XX@XXX X(.(.{.(.R.(.",
"}.R.}.m.{.{.}.k., > J O...#.$.#.%.%.%.#.+.#.#.#.#.+.#.+...J J H .   u.k.t.9.d d 2.XX X}.R.}.}.{.}.B.",
"R.m.b.b.v.m.b.9.. > ..O.+.#.#.#.#.#.#.#.#.#.+.#.+.+.+.+. .K J H .   u.R.j u a.^ ) }.}.B.(.(.}. X}.}.",
"}.R.m.v.b.m.v.9.. > J | ..#.#.#.#.#.#.#.#.#.o.+... .K K J J J H . B j.4.h l ^ R e..X X X X.X+X+X$XoX",
"oX}.{.m.m.m.m.9.. > J  ........................... .K  .J J J H . B W . L P . B  X.X@X@X#X#X%X;X%X%X",
"%X%X$X}.}.m.T.9.. > J J J J J J K K K K J J J J J J J J J J J H . A S . p p . M b.m.{.B.XX+X#X#X;X;X",
"%X%X;X%XoX.XR.9.. @ = = = = = = = = = = = = = = = = = = = G - = . @ C Z A.C.S.Z j 7.c.M.N.(.}..XoX$X",
"$X#X$X%X$XM.M.e.. . . . . . . . X X . . . . . . . . . . : J H G . . V Z.G.A.G.Z.. 3.n.n.B.B.(.).|..X",
"XXXXoXoX}.i.i.e.. @ 0.~.~.~.~.~.~.K.K.K.~.~.~.^.~.~.{ i @ . . $ . . . . . . o . . 3.Y.}.|.).(.(.}. X",
"!.{.}.}.}.M.M.y.. ` Q.W.W.Q.*X=X[.-X-XW.W.W.W.&X=X[.K.K.' h . F . . . # f * 2 @ . . . 4.k.). X X X X",
"!.R.}.{.}.R.}.y.. ` F.g # D.[.[.[.*X-X` S . A '.-X].].].].~.* . . # V V.Z.Z.Z.V.V V @ . i ).(. X X(.",
"(.R.(.(.R.R.R.r.. ` [.{ 0.'.S S S S [.-XQ.{ J.&X-X-X-X-X-X^.{ _ . + V f C.V Z.Z.Z.C + . O B w.).(.(.",
" X.X.XXX.X}.).e.. ` [.[.[.[.W.W.W.W.&X-X-X[.[.=X-X-X-X-X-X^.b H.. . . V Z.V.Z.Z.Z.C.Z Z . . ( }..X.X",
" X.X@X#X#XoXoXt.. 3.-X-X-X-X[.~.~.[.-X-X-X-X-X-X-X[.`.[.~.K.* H.. . . . @ @ @ @ @ @ @ @ . . , i r.).",
"n.B.(..X#X@X@Xy.. ` *X=X-X-X-X=X-X-X-X=X-X-X-X-X[.=X-X[.].J.H.q.& Y Y Y Y Y Y Y Y Y Y Y Y Y k . 8.B.",
"N.n.T.(. XXX@Xy.o ^ _.[.-X*X-X*X-X-X=X=X-X-X=X=X].^.K.K.K.A . X k Y Y Q Y ! ! ! ! ! ! ! ! Y k . 8.B.",
"n.n.m.B.(. XoXL.b b J.[.[.[.[.[.[.[.[.].[.[.[.[.[.].K.H.{ ' @ X c L Y ~ Y [ [ a.a.a.a.a.] Y k . 8.n.",
"n.m.m.}.}.}.}.}.y.j b ^ J.K.K.K.K.K.K.K.K.K.K.K.K.^ ^ b . . . . . ; Y Y ~ ] [ a.a.a.a.a.] ] c . 8.B.",
"n.n.n.m.n.B.m.s.j i . . g h h h h h h h h h h h h . . . . . w w q 5 & L Q a.a.a.a.a.a.a.a.p.z . 8.x.",
"n.v.v.n.n.m.m.9.. . . c L . . . . . . . . . . . . . * I ; . t y ,.r X R p.p.a.a.d.d.P.Q.I.a.n . 9.B.",
"T.(.R.n.m.m.. 2 y 9 . X $ . 1 t 1 . . . . 9 y y y . . $ X . t y ;.<.<.6 . 5.a.a.P.s.Y.'.I.s.n . 9.B.",
"$X$X@X X).(.. 4 ,.7 . L E . 1 ;.r 2 . o 4 r <.<.<.. a ! z . t <.<.<.<.6 . 5.a.s.s.s.s.E.s.a.N . y.@X",
" X X.X.XOXOX. 4 :.8 . ' 5.. 1 ;.=.>., , ,.>.<.<.<.. d a.N . t <.<.<.<.6 . 5.a.s.s.P.P.P.P.a.N . y.oX",
"n.B.(.(.(.).. 4 :.8 . ' 5.. 1 ;.6 =., , =.7 <.<.<.. d a.N . 3 7 r <.<.6 . 5.a.a.a.d.P.P.s.J.N . e.m.",
"/.n.B.n.(.(.. 4 :.8 . ' 5.. 3 -.=.,., + >.>.<.<.;.. d a.N . . o =.<.<.6 . 5.a.a.a.s.d.P.a.d.n . e.m.",
"T.n.T.T.(.).. + 4 o . R E . 4 ;.<.<.>.=.<.<.<.<.,.. a ! z . . . 4 4 4 2 . 5.a.a.a.a.a.a.a.a.N . r.T.",
"x.h.n.n.T.n.. . i X . E ' . 1 y -.,.;.<.<.<.<.;.y . a 6.n . . . i i * @ . ' p.a.p.a.a.a.a.a.N . r.R.",
"1.1.T./.n.b.. h _.^ . L P . 1 t ;.:.,.:.:.,.:.,.-.. a Y k . . i _._._.n . E ! [ [ a.a.a.a.6.z . e.h.",
"1.i.N..X)./.M ) D.A . k k . < t q 0 w 0 0 w 0 0 9 . % c p . . u D.D.D.R l ] [ 6.a.a.a.a.[ ] n . L.(.",
"N./.OXOX).(.(.e.. . . s l . , q e 3 o 3 . . . 3 3 . % k a . . . . . . c Y Y ] [ a.a.a.a.! l N 2.Y.OX",
").).).(.(./.(.P.w.m . - & . + 1 1 1 o < . . . < 1 . % s % . . . . & c P Y Q ~ ~ ~ ~ ~ ~ Q . ) XX X).",
"/././.T./.T.). X@X( . . . . . . . . . . . . . . . . . . . . . . . X & & & & & & a u & & h r.U.}.(.(.",
"n./././.(.).OXOX X( . . . . . . . . . . . . . . . . . . . . . . . . . . . . . . . . . . i m.m.T.(.n.",
"/.T.).OX.XOX X(.}.W . . . . . . , i i u u u u u u u u . . . . . . B oX@X$X#X X(.n.n.x.v.v.n.n.m.m.m.",
"/.).#X#X.X XT.b.v.W . . . . . . w.%X@X Xm.b.c.v.L.U.9.. . . . . . v oX%X@X X(.n.v.x.z.z.c.c.m.B.T.(.",
".X.X.X X(.n.z.z.z.W . . . . . . w.;X%XoX}.R.m.c.b.b.7.o . . . . . v |.@X XR.n.v.b.z.z.z.b.n.(.}. X.X",
"R.(.).(.m.b.n.n.v.9.2.d . . . . w.%X@XoX@XXX{.m.b.c.j.2.b . . . . B |.|.T.n.b.z.z.z.z.v.B.}..X#X.X X",
"(.T.(.B.m.m.m.T.}.}.}.j . . . . w.%X%X%X%X%XXX}.{.m.m.m.W o . . . B B.B.B.n.n.n.N.v.B. XXX X(.}.(.(.",
"(.m.(.}. X XXXXX XXX XU.t.. . . 4.@X$X$X$XoX@XoXXX XB.(.m.l.u . . B }.}.B.(.(.}.(.(.B.B.m.m.B.B.(.(."
};
