/* XPM */
static char *ac5229ae1371408dd0950f19b709af18rwGHm9NA0k3zjE2B[] = {
/* columns rows colors chars-per-pixel */
"32 32 200 2 ",
"   c #010202",
".  c #0B0101",
"X  c #010901",
"o  c #02010A",
"O  c #0B010A",
"+  c #020A0D",
"@  c #120001",
"#  c #190102",
"$  c #1F1D05",
"%  c #131C00",
"&  c #000010",
"*  c #060910",
"=  c #1B1E16",
"-  c #2A180E",
";  c #3D160F",
":  c #2B1E1B",
">  c #22171F",
",  c #341D16",
"<  c #3C171A",
"1  c #3A1C1B",
"2  c #34181A",
"3  c #122703",
"4  c #142D02",
"5  c #1A2C02",
"6  c #1B230A",
"7  c #152B0B",
"8  c #1D2E0B",
"9  c #142208",
"0  c #0F3300",
"q  c #133400",
"w  c #1C3203",
"e  c #1E350B",
"r  c #1C2B15",
"t  c #142B19",
"y  c #1D3519",
"u  c #232A12",
"i  c #292919",
"p  c #36231A",
"a  c #253216",
"s  c #242909",
"d  c #3F0921",
"f  c #351624",
"g  c #3C1822",
"h  c #3E1927",
"j  c #2B1A24",
"k  c #1E2722",
"l  c #1C312A",
"z  c #352029",
"x  c #440E0E",
"c  c #43140C",
"v  c #40180E",
"b  c #420D1B",
"n  c #4B0C1D",
"m  c #510011",
"M  c #4B1115",
"N  c #431716",
"B  c #51131E",
"V  c #4C0D22",
"C  c #490420",
"Z  c #560C24",
"A  c #570B27",
"S  c #431B23",
"D  c #600023",
"F  c #722E3D",
"G  c #165D01",
"H  c #1B5E00",
"J  c #1F5C0A",
"K  c #175208",
"L  c #225C01",
"P  c #21540A",
"I  c #255C0A",
"U  c #204F1B",
"Y  c #265713",
"T  c #1D6200",
"R  c #3A7C03",
"E  c #3A7B06",
"W  c #397919",
"Q  c #2F5227",
"!  c #265133",
"~  c #487707",
"^  c #486D1A",
"/  c #4B7316",
"(  c #4E5E2F",
")  c #4B6B23",
"_  c #4B6828",
"`  c #417824",
"'  c #517424",
"]  c #476A35",
"[  c #556C3B",
"{  c #5D6F3D",
"}  c #467332",
"|  c #58753A",
" . c #6A3645",
".. c #416444",
"X. c #506942",
"o. c #795360",
"O. c #971F3C",
"+. c #A1172E",
"@. c #A21D3A",
"#. c #9F383B",
"$. c #872D46",
"%. c #952046",
"&. c #82365C",
"*. c #A93E4B",
"=. c #BA3244",
"-. c #BB354E",
";. c #A73B56",
":. c #B63657",
">. c #9D3864",
",. c #C33C4A",
"<. c #9F454E",
"1. c #864E59",
"2. c #95465B",
"3. c #9A4759",
"4. c #8D535F",
"5. c #AF464D",
"6. c #A64559",
"7. c #B44055",
"8. c #8E5460",
"9. c #9D5D6D",
"0. c #B14461",
"q. c #A75D67",
"w. c #B85C6B",
"e. c #BC4F78",
"r. c #B95672",
"t. c #957F68",
"y. c #9B6573",
"u. c #9A676C",
"i. c #A6636B",
"p. c #AF647B",
"a. c #408008",
"s. c #5E9A16",
"d. c #689D1A",
"f. c #749E15",
"g. c #6AA10F",
"h. c #6DA90B",
"j. c #6DA11B",
"k. c #69A515",
"l. c #72A215",
"z. c #73AA19",
"x. c #6C9425",
"c. c #6D9C26",
"v. c #69982A",
"b. c #719B2E",
"n. c #709E24",
"m. c #6C9E34",
"M. c #649F3A",
"N. c #729C32",
"B. c #739B3B",
"V. c #7A993A",
"C. c #5DA133",
"Z. c #5FA63E",
"A. c #66A324",
"S. c #6CA424",
"D. c #6BA52A",
"F. c #69A729",
"G. c #73A423",
"H. c #74A02C",
"J. c #7AA727",
"K. c #64A136",
"L. c #63A53B",
"P. c #62A93E",
"I. c #6CA230",
"U. c #79A635",
"Y. c #748F42",
"T. c #669A46",
"R. c #739545",
"E. c #7B9146",
"W. c #72934A",
"Q. c #79934C",
"!. c #779B46",
"~. c #7B9557",
"^. c #798752",
"/. c #5EA443",
"(. c #62A342",
"). c #65AA47",
"_. c #7BA340",
"`. c #6BA453",
"'. c #82A338",
"]. c #A2CF39",
"[. c #839F54",
"{. c #848C59",
"}. c #8B8269",
"|. c #8A8A64",
" X c #908571",
".X c #9EC54C",
"XX c #99C443",
"oX c #A3CC44",
"OX c #A3CC4A",
"+X c #A7D14B",
"@X c #A4CD54",
"#X c #A5C859",
"$X c #A7D055",
"%X c #A2C36B",
"&X c #A2C569",
"*X c #A8C974",
"=X c #EAFFE6",
"-X c #F1FFEE",
";X c #E7FFF5",
":X c #F2FFF6",
/* pixels */
"o     .                 o o       .                             ",
"                        o o                             o       ",
"        . o o       X     o                     o       .       ",
"        . O o       X X     . o     o o         o o o     .     ",
"        o o o o   o     . . .       o o           o             ",
"        . O @ .   +       .         O o                       X ",
"      . @ S b N .     s 5 w q 8 u       u 5 8 6 @ . .   X     + ",
"      . 2 u.i.i., . ; t.|.{.^.|. X: # 2 }.|.|.}.- # .     X     ",
"      . 1 1.3.3. .C A Z M c c ; ; B n B c c N ; 1 # @ .     .   ",
"        # M m $.V &.>.e.r.r.<.w.6.*.;.6.w.6.q.q.y.g @ . . .   o ",
"o O   . < 4.F Z C A A %.%.O.:.@.=.,.,.=.+.=.%.$.V f O . . .     ",
"o O o . d 9.4.M  . .2.2.3.6.0.;.-.#.#.5.7.;.;.2.o.> o +         ",
". o . # V p.o.1 i - 6 u - : < S z : i - 2 h f j k l +       .   ",
"  .   . n y.1 $ _ | } } U =X-X-X;X! ] Q -X:X:X:X! ..t X         ",
"        . p % | !.x.I.m.W J K Y J ` v.~ L P K I ^ ~.r X X   . . ",
"      X     e W.b.S.G.D.Z./.(.T./.P.A.A.C.).L.L.N.!.5 X     o o ",
"            w R.c.S.S.K.J K I T T G T H G T T H c.U.5         . ",
"    o       5 Q.U.k.k.R T.`.L.K.C.P.P.P./.)./.C.~ B.q     o .   ",
"            a ~.b.z.z.h.s.I.S.A.a.E E R R F.v.I.B.W.r   o   o . ",
"              5 ^ n.g.h.z.k.k.j.c.D.A.A.F.s.U.B.) q     o   o   ",
"    X   o o   X w ' b.j.z.f.l.l.G.S.G.S.j.S.~ ' 7 X   o         ",
"  o         o X 5 W.N.H.~ J.f.f.f.G.G.j.J.c.q 4 X o o           ",
"            o X e Q.N.b.0 B.$XOXOXXX$X$XXXx.[.5   X   . +       ",
"o           o   7 _ / / q &X.XoXoXoX.X.X+X#XE.8     o     X   o ",
"o               X 7 0 0 N.@X.XoX].].OXOXoX#XY.5                 ",
"o               X l ] T.U.XX.XOXOX+X.X#X.X#XV.5 X               ",
"o               7 [ B.m.v._.*X%X&X&X%X*X#X'.V.V.7             o ",
"  o             7 _ V.U.R.4 q w w 5 3 4 5 Y.V.E.i o         o o ",
"o o           o t X._ ) { 3 X       X X 8 [ _ { = &           o ",
"    o       o   X r 5 w r       o         r 8 9 * &       . .   ",
"                  X X X     o o .   X   X   X   o o           o ",
"      o         X   X X     o o O . .     +       o           o "
};
