/* XPM */
static char *result[] = {
/* columns rows colors chars-per-pixel */
"50 50 208 2 ",
"   c #7A4A3E",
".  c #323443",
"X  c #3B3645",
"o  c #393B47",
"O  c #303C4A",
"+  c #3D3F51",
"@  c #443A45",
"#  c #463846",
"$  c #4E3D46",
"%  c #553647",
"&  c #5E3648",
"*  c #543D49",
"=  c #603F4B",
"-  c #6B384A",
";  c #77374B",
":  c #2F404E",
">  c #33424A",
",  c #2E4552",
"<  c #2C4D59",
"1  c #2E5059",
"2  c #305659",
"3  c #335D58",
"4  c #33665E",
"5  c #346C5F",
"6  c #2A5660",
"7  c #2A5B64",
"8  c #2E6B67",
"9  c #26666E",
"0  c #337163",
"q  c #357A66",
"w  c #25767A",
"e  c #47444A",
"r  c #48444B",
"t  c #54464B",
"y  c #5D4249",
"u  c #4C4750",
"i  c #46495A",
"p  c #5A4D54",
"a  c #4B5557",
"s  c #5D5652",
"d  c #5F5854",
"f  c #6A474B",
"g  c #73484C",
"h  c #794C4C",
"j  c #77524F",
"k  c #665859",
"l  c #755856",
"z  c #6C6157",
"x  c #73665A",
"c  c #7B605A",
"v  c #4B4E64",
"b  c #4F5268",
"n  c #54596B",
"m  c #6F5D60",
"M  c #796665",
"N  c #6B6D71",
"B  c #80384C",
"V  c #88384D",
"C  c #97394F",
"Z  c #AC3A51",
"A  c #BD3B53",
"S  c #C03D54",
"D  c #87514D",
"F  c #8C5852",
"G  c #9C5A51",
"H  c #B04655",
"J  c #A35157",
"K  c #A45B51",
"L  c #BB575B",
"P  c #8A6753",
"I  c #976658",
"U  c #85725E",
"Y  c #A86255",
"T  c #A8685A",
"R  c #B06E5D",
"E  c #8E6B60",
"W  c #8B6967",
"Q  c #966E6B",
"!  c #897863",
"~  c #8B7B65",
"^  c #987663",
"/  c #8B7670",
"(  c #927670",
")  c #977F77",
"_  c #A77765",
"`  c #A1756F",
"'  c #B57662",
"]  c #BB7D67",
"[  c #AC7B73",
"{  c #C34155",
"}  c #C84557",
"|  c #CC4959",
" . c #D24F5B",
".. c #C65A5D",
"X. c #D7535D",
"o. c #D8545D",
"O. c #D25D5F",
"+. c #DD595F",
"@. c #E25E61",
"#. c #E76564",
"$. c #E86363",
"%. c #EA6B67",
"&. c #EC746A",
"*. c #ED7B6D",
"=. c #27807E",
"-. c #28837E",
";. c #2B8C7D",
":. c #348B70",
">. c #2E917D",
",. c #359574",
"<. c #30977D",
"1. c #339C7B",
"2. c #36A57C",
"3. c #F29038",
"4. c #9A8265",
"5. c #9A876B",
"6. c #9D8569",
"7. c #A38B6D",
"8. c #AA8F6D",
"9. c #B3826B",
"0. c #BD8169",
"q. c #B2956E",
"w. c #B4986F",
"e. c #A28F70",
"r. c #B68177",
"t. c #B78178",
"y. c #A99776",
"u. c #B59A73",
"i. c #B59D79",
"p. c #B99E78",
"a. c #B7A078",
"s. c #BAA37C",
"d. c #D89E5F",
"f. c #F79A46",
"g. c #EEA75F",
"h. c #C1866D",
"j. c #C38A6F",
"k. c #C58D71",
"l. c #C99376",
"z. c #CD9A7B",
"x. c #EF8170",
"c. c #F18C75",
"v. c #F29377",
"b. c #DCA66A",
"n. c #C4A475",
"m. c #C9A777",
"M. c #C9A878",
"N. c #CEAD7D",
"B. c #D5AE75",
"V. c #D3AC7B",
"C. c #D7B176",
"Z. c #DAB377",
"A. c #D7B27A",
"S. c #DCB57C",
"D. c #DEB97E",
"F. c #E9AD68",
"G. c #E6B579",
"H. c #E0BA7F",
"J. c #656984",
"K. c #696D89",
"L. c #6F7987",
"P. c #6D718E",
"I. c #777D97",
"U. c #BA9587",
"Y. c #8B95A7",
"T. c #95A2B0",
"R. c #CD8E80",
"E. c #D89484",
"W. c #E39B89",
"Q. c #D1A281",
"!. c #D6AC89",
"~. c #CEB181",
"^. c #D1B384",
"/. c #DCB681",
"(. c #DEBB82",
"). c #DAB78C",
"_. c #CAA591",
"`. c #D8B792",
"'. c #E6A18D",
"]. c #E1B781",
"[. c #E2BD83",
"{. c #E9BB83",
"}. c #E6BF89",
"|. c #EAA691",
" X c #ECAB94",
".X c #E3B69E",
"XX c #F1B49B",
"oX c #F4B89E",
"OX c #F7BEA2",
"+X c #DFC087",
"@X c #E4C186",
"#X c #EAC086",
"$X c #E6C48B",
"%X c #E8C68D",
"&X c #E7C98D",
"*X c #E8C98E",
"=X c #E7C790",
"-X c #E8C790",
";X c #E7CA91",
":X c #EACC93",
">X c #ECCF98",
",X c #ECD097",
"<X c #EDD39B",
"1X c #F7C1A5",
"2X c #F9C3A6",
"3X c #FBC7A9",
"4X c #FDCAAB",
"5X c #EED7A1",
/* pixels */
"[.@X[.[.[.[.@X@XH.H.H.@XD.+XD.D.@X@X$X$X@X@X@X@X@X@XD.D.D.D.D.C.^.!.^.^.^.$X[.D.A.B.C.B.A.Z.].}.}.@X",
"[.D.S.S.H.S.(.(.+XD.H.H.D.Z.S.D.D.@X@X$X@X@X@X@X@XH.D.Z.D.D.u.t = = & o . M.D.A.B.A.C.A.D.[.[.$X@X[.",
"[./.H.D.D.H.+X+X+XD.D.D.D.D.+XD.@X@X@X$X&X&X@X@X@X@X@XZ.D.H.e O.o.+.$.g . m.A.B.A.A./.[.[.#X$X$X@X(.",
"[.[.[.[.@X@X$X$X$X$X$X$X@X$X@X&X$X@X@X$X&X&X&X@X@XH.M.4.U U @ ; V { X.- . M.D.S.(.[.{.$X%X;X:X:X=X$X",
";X$X&X*X*X,X,X,X,X>X>X$X$XM.s s d s s s d d s s s d t - L L C . X % % ^ u./.#X@X$X$X=X:X:X>X,X,X>X;X",
"$X$X$X;X:X:X*X$X$X[.[.).a y O.O.O.O.O.O.O.O.O.O.O.L . @ $ J A . . . . 7.&X;X;X*X=X=X=X$X=X=X=X$X}.$X",
"(.(.@X@X@X@X[.D.Z.B.k X O.$.$.$.x.v.c.c.x.*.&.$.} { S S B X . . % } @.g . N.@X@X$X@X$X$X$X`.).+X(.(.",
"D.D.@XD.@XD.A.A.n.z * ..$.$.%.%.%.c.&.$.#.#.$.$.#.#.@.| S A # . % C C & . M.H.@X[.@X@X@X}.(.(.D.S.D.",
"D.D.D./.D.D.A.C.4.. J $.$.$.&.*.x.v.v.$.$.$.$.$.$.$.+.| } A - = . . . . . a.H.H.(.@X@X&X$X@X(.D.D.S.",
"D.D.H.H.D.D.D.M.z $ H @.o.$.%.&.&.*.*.$.$.$.$.$.$.$.$.$. .A A Z . t U U U m.U U u.@X$X$X$X$X$XD.D.D.",
"D.[.[.[.(.H.D.w.. ; | @.+.$.$.$.$.$.$.$.$.$.$.$.$.$.$.$. .A A Z . x S.Z.4.z U k ! @X&X$X$X$X@X@XH.H.",
"@X$X@X@X@X@X+Xa.. ; { } | $.$.$.$.$.$.$.$.$. .+.| } } } S A A Z . c Z.H.s @ j.E 4.;X&X$X@X[.[.@X(.[.",
"@X(.(.(.@X@X+Xa.. ; A X.+.@.@.@.@.@.@.@.@.@.+.@.+.X.S  .S A A Z .   P r h D e x ^.&X@X[.[.+X@X+X[.@X",
"(.D.A.A.A.D.D.w.. ; A A A A A A S S A A A A S A S A S S A A A Z . h P . g D . M ;X&X[.[.[.[.@X@X@X@X",
"@XD.D.Z.D.A.D.q.. & V V V V V V V V V V V V V V V V V V V Z C ; . s M i n a n N y.^.$X$X$X=X:X=X;X*X",
";X$X+XD.Z.D.D.w.. . . . . . . . . . . . . . . . . . . . % Z ; ; . . b P.Y.I.T.L.. e.;X:X:X,X<X<X<X<X",
"<X,X*X&X@XD.D.w.. . m ` ` ` ` ` ` ` ` ` ` ` ` ` ` ` W . % - - % . . + i n b n i . 6.[.G.$X:X:X>X5X5X",
"<X5X5X,X&X@X+Xw.. W .XOXOXOXOXOXoXoX2X2XOXOXOXOXOXOXE.t.l . . V . . . . . . . . . r d d.H.[.$X%X*X:X",
",X,X,X5X,XF.g.a.. ) / u u m OXOX X1X4Xr u u r _.4XW.W.W.E.R.# # . . . b J.J.J.n . . . r s D.[.}.$X%X",
"$X&X*X*X&X3.f.a.. ) 4Xm p 3X.X.X.X.X4X4X_.r U.3X4X4X4X4X4X|.p r . i J.J.K.J.P.P.P.P.> . r N./.}.@X$X",
").+X+X+X[.F.F.U.. ) XX|. X`.k k k k .X4X2X|.|.1X4X3X4X4X4X|.t.R.. . . + J.v P.P.P.n # 1 X . ~ $X#X$X",
"`.+X@X@X[.(.+Xa.. ) 4X4X4X4XOXXXXX3X4X4X4X4X4X4X4X3XOXOXXX'.r R.. . . i b b b b b b b b . . d ~ ~.#X",
"[.[.@XD.[.[.].i.O 5.4X4X4X4X2XoXoX4X4X4X4X4X4X4X4X3XOX1X|.W.[ R.@ h h h h h h h h h h h h h * . u.[.",
"$X$X*X$X$X}.(.i.. W |.OX4X4X4X4X4X4X4X4X4X4X4X4X X|.|.|.'.W p p $ K K K K K K K K K K K J K g . p.$X",
"$X$X:X>X:X=X*Xa.. W oX4X4X4X4X4X4X4X4X3X4X4X4X4X1XOXW.W.W.R.u X G K K ' R ] h.h.h.j.h.j.0.K f . p.}.",
"D.[.[.$X:X>X:X:Xa.> Q R.W.W.W.W.W.W.W.W.W.W.W.W.W.R.R.Q . . . . . y K K K Y R k.j.k.j.k.Y T f . q./.",
"S.H.H.{.$X*X:X*X^.x . . ( t.t.t.t.t.r.r.t.r.t.t.t.. . . . . , , , r D G ' k.k.k.k.k.j.k.j.j.l . q.G.",
"S.S.Z.H.[.$X&X&Xe.. . $ * . . . . . . . . . . . . . . y # . w ;.-.8 . F R k.k.k.l.l.z.z.z.h.g . q.S.",
"D.].[.[.[.@X/.~ x < . y y . > 6 : . . . . , 6 6 6 . @ f $ . w >.2.q . E k.k.k.k.Q.m.!..X).k.l . q.S.",
"S.Z.S.].H.H.M.. 3 4 . g h . < ;.3 . . . . 4 1.1.1.. # D & . :.1.2.q . E k.k.k.k.l.l.l.).z.k.W . q.S.",
"A.Z.Z.A.S.D.M.. 1 6 . ^ _ . < >.1.,.> > ,.1.2.2.2.. t j.l . ,.2.2.q . E k.k.k.z.V.Q.)..X!.k.l . u.D.",
"[.[.(.D.D.D.m.. < 6 . _ 9.. < ;.3 :.> > :.5 1.,.a r . > > > > 2.2.q . E k.k.k.k.k.k.l.k.k.l.c . u.(.",
":X>X-X$X[.[.M.. , < . _ ] . < -.0 :.> > ,.q 3 . .XR.. 3 2.2.2.2.2.q . W k.k.k.k.k.z.!.!.l.V.P . s.,X",
"#X%X%X-X=X=X^.. . . . E _ . < =.1.2.4 4 2.2.3 . .XR.. 3 2.2.2.2.2.q . E k.k.k.k.k.k.k.k.k.k.l . s.%X",
"D.D.[.].[.}.^.. t p . I T . < =.;.2.>.2.2.2.3 . !.R.. 2 ;.>.;.>.;.8 . E k.k.j.j.k.k.k.k.k.k.c . u.D.",
"D.D.D.(.[.[.N.. M ( . I I . < w -.2.<.2.2.2.3 . k k . O 1 < < 1 1 a h I R R ' h.] k.k.k.k.t.j . w.D.",
"/.S.S.].].}.}.p.~ u . D G . < w =.-.-.-.-.-.w O . . . . . . . . . = K K ' h.h.h.h.k.k.k.k.j.l . w.H.",
"B.b./.]././.D./.8.+ . # $ . O 7 6 > O , O O O O o . . # . . . . # G K K Y K T ' k.k.k.j.R G j r n.H.",
"3.3.].].S.A.A.A.n.l . g h . < 9 9 9 O 9 . . . 7 9 . # D & . . . $ K K K K K h.] 0.0.h.] _ . ~ $X}.Z.",
"3.f.G.}.}./.].V.z . . . . . . . . . . . . . . . . . . . . . . . # h h h h h h h h h h h j x i.:X:X[.",
"G.{.=X=X}.[.{.u.. . . . . . . . . . . . . . . . . . . . . . . . . . . . . . . . . . . . r %X>X<X:X=X",
"{.}.}.}.].].[.i.. . . . . . . . . . . . . . . . . . . . . . . . . . k 6.7.^ 6.6.6.7.7.7.y.:X-X$X$X}.",
"/.].].].].[.}.p.. . . . . . z w.u.u.u.u.u.p.a.s.U.s.5.O . . . . . . r u.(.[.[.[.$X$X$X}.[.{.}.}.{.(.",
"/.].].].].}.=Xp.. . . . e N.D.@X$X{.H.S.H.D.[.$X&X*X(.4.. . . . . . . 7.$X$X;X*X$X[.].S.S.H.H.[./.D.",
"/./.}.=X=X=X=X}.8.o . . m.S.D.(.*X*X[.D.A.A.Z.+X+X+X+X+X[.k r r r u u i.>X:X$X[.].S.C.C.B.A.D.D./.D.",
"{.}.:X:X$X}.S.B.Z.^ s s n.D.(.[.;X<X:X@XD.A.C.A.~.~.D.+X$X-X;X$X[.f.*X<X:X$X{.S.A.C.B.B.B.S.S.[.[.[.",
"=X$X-X=X[.D.B.B.B.B.C.Z.D.(.[.$X,X<X,X*X@X+XS.A.A.A.A.(.(.$X:X,X&Xf.#X*X$X(./.C.B.B.B.B.A.S.[.}.$X%X",
"[.[.}.[.D.S.S.A.Z.A.D./.(.$X$X>X<X<X,X*X*X&X@XD.A.Z.A.A.S.[.[.%X:X$X@X@X/.S.A.B.B.B.C.A.H.@X-X;X$X$X",
"(.H.[.[.D.D.D.(.@X@X@X$X$X;X,X,X,X,X,X<X<X<X&X@X(.D.D.D.D.D.H.[.$X#X[.H.H.Z.S.S.D.S.H.[.%X$X[.@X[.[.",
"].D.[.@X@X$X$X$X$X&X$X$X@X$X@X$X$X;X,X,X,X;X,X*X&X@X@XH.[.H.[.[.@X@X@X[.H.[.[.[.[.{.[.H.H.D.H.H.[.[."
};
