/* XPM */
static char *result[] = {
/* columns rows colors chars-per-pixel */
"50 50 212 2 ",
"   c #7A4A3E",
".  c #323443",
"X  c #3B3645",
"o  c #393B47",
"O  c #303C4A",
"+  c #3D3F51",
"@  c #443A45",
"#  c #463846",
"$  c #4E3D46",
"%  c #553647",
"&  c #5E3648",
"*  c #543D49",
"=  c #603F4B",
"-  c #6B384A",
";  c #77374B",
":  c #2F404E",
">  c #33424A",
",  c #2E4552",
"<  c #2C4D59",
"1  c #2E5059",
"2  c #305659",
"3  c #335D58",
"4  c #33665E",
"5  c #346C5F",
"6  c #2A5660",
"7  c #2A5B64",
"8  c #2E6B67",
"9  c #26666E",
"0  c #337163",
"q  c #357A66",
"w  c #25767A",
"e  c #47444A",
"r  c #48444B",
"t  c #54464B",
"y  c #5D4249",
"u  c #4C4750",
"i  c #46495A",
"p  c #5A4D54",
"a  c #4B5557",
"s  c #5D5652",
"d  c #5F5854",
"f  c #6A474B",
"g  c #73484C",
"h  c #794C4C",
"j  c #77524F",
"k  c #665859",
"l  c #755856",
"z  c #6C6157",
"x  c #73665A",
"c  c #7B605A",
"v  c #4B4E64",
"b  c #4D5163",
"n  c #4F5268",
"m  c #54596B",
"M  c #6F5D60",
"N  c #796665",
"B  c #6B6D71",
"V  c #80384C",
"C  c #88384D",
"Z  c #97394F",
"A  c #9D3C50",
"S  c #A03E51",
"D  c #AC3A51",
"F  c #BD3B53",
"G  c #C03D54",
"H  c #804F4C",
"J  c #87514D",
"K  c #8C5852",
"L  c #9C5A51",
"P  c #B04655",
"I  c #A35157",
"U  c #A45B51",
"Y  c #BB575B",
"T  c #8A6753",
"R  c #976658",
"E  c #85725E",
"W  c #A86255",
"Q  c #A8685A",
"!  c #B06E5D",
"~  c #8E6B60",
"^  c #8B6967",
"/  c #966E6B",
"(  c #897863",
")  c #8B7B65",
"_  c #987663",
"`  c #8B7670",
"'  c #927670",
"]  c #977F77",
"[  c #A77765",
"{  c #A1756F",
"}  c #B57662",
"|  c #BB7D67",
" . c #AC7B73",
".. c #C34155",
"X. c #C84557",
"o. c #CC4959",
"O. c #D24F5B",
"+. c #C65A5D",
"@. c #D7535D",
"#. c #D8545D",
"$. c #D25D5F",
"%. c #DD595F",
"&. c #E25E61",
"*. c #E76564",
"=. c #E86363",
"-. c #EA6B67",
";. c #EC746A",
":. c #ED7B6D",
">. c #27807E",
",. c #28837E",
"<. c #2B8C7D",
"1. c #348B70",
"2. c #2E917D",
"3. c #359574",
"4. c #30977D",
"5. c #339C7B",
"6. c #36A57C",
"7. c #F29038",
"8. c #9A8265",
"9. c #9A876B",
"0. c #9D8569",
"q. c #A38B6D",
"w. c #AA8F6D",
"e. c #B3826B",
"r. c #BD8169",
"t. c #B2956E",
"y. c #B4986F",
"u. c #A28F70",
"i. c #B68177",
"p. c #B78178",
"a. c #A99776",
"s. c #B59A73",
"d. c #B59D79",
"f. c #B99E78",
"g. c #B7A078",
"h. c #BAA37C",
"j. c #D89E5F",
"k. c #F79A46",
"l. c #EEA75F",
"z. c #C1866D",
"x. c #C38A6F",
"c. c #C58D71",
"v. c #C59572",
"b. c #C99376",
"n. c #CD9A7B",
"m. c #EF8170",
"M. c #F18C75",
"N. c #F29377",
"B. c #DCA66A",
"V. c #C4A475",
"C. c #C9A777",
"Z. c #C9A878",
"A. c #CEAD7D",
"S. c #D5AE75",
"D. c #D3AC7B",
"F. c #D7B176",
"G. c #DAB377",
"H. c #D7B27A",
"J. c #DCB57C",
"K. c #DEB97E",
"L. c #E9AD68",
"P. c #E6B579",
"I. c #E0BA7F",
"U. c #656984",
"Y. c #696D89",
"T. c #6F7987",
"R. c #6D718E",
"E. c #777D97",
"W. c #BA9587",
"Q. c #8B95A7",
"!. c #95A2B0",
"~. c #CD8E80",
"^. c #D89484",
"/. c #E39B89",
"(. c #D1A281",
"). c #D6AC89",
"_. c #CEB181",
"`. c #D1B384",
"'. c #DCB681",
"]. c #DEBB82",
"[. c #DAB78C",
"{. c #CAA591",
"}. c #D8B792",
"|. c #E6A18D",
" X c #E1B781",
".X c #E2BD83",
"XX c #E9BB83",
"oX c #E6BF89",
"OX c #EAA691",
"+X c #ECAB94",
"@X c #E3B69E",
"#X c #F1B49B",
"$X c #F4B89E",
"%X c #F7BEA2",
"&X c #DFC087",
"*X c #E4C186",
"=X c #EAC086",
"-X c #E6C48B",
";X c #E8C68D",
":X c #E7C98D",
">X c #E8C98E",
",X c #E7C790",
"<X c #E8C790",
"1X c #E7CA91",
"2X c #EACC93",
"3X c #ECCF98",
"4X c #ECD097",
"5X c #EDD39B",
"6X c #F9C3A6",
"7X c #FBC7A9",
"8X c #FDCAAB",
"9X c #EED7A1",
/* pixels */
"*XoX*X'.J.G.S.S.S.H.J.*X-X`._._.`._.(..XK.J.I..X*X*X*X*X*X*X:X:X*X.X'.K.].K.*X.X.X*X*X*X.X.X.X.XoX.X",
".X*XoXoX.XJ.H.H.H.H.H.J.Z.. X f = = = s.I.K.J.K.*X*XI.*X*X*X*X*X.XI.K.J.K.K.K.K.K.K.&X].K.J.J.I.I.I.",
"].*X*X;XoXoX.XJ.H.H.H.J.C.. g =.%.#.@.r .XI.].*X*X*X*X*X:X:X:X*X*X*X'.'.K.J.K.K.].].&X&XK.K.K.J.K..X",
";X:X2X2X<X;X*XoX*X'.H.J.C.. - @.X.C ; o E E E Z.K.*X:X:X:X:X*X*X-X-X>X,X:X*X&X-X:X-X-X*X*X.X*X.X.X*X",
"2X2X5X5X3X2X2X,X;X*X-X*X'.s._ % % X . A Y Y - t s s s s d d d s s d s d Z.*X-X4X4X4X4X4X4X>X:X:X;X,X",
"oX*X-X,X;X<X,X,X:X,X,X,X<X-Xq.. . . . F S # @ . Y $.$.$.$.$.$.$.$.$.$.$.y a `.*X*X*X-X:X>X2X:X:X*XoX",
"].].&X].}.oX*X*X*X-X-X*XH.. g &.o.% . . # V G G G X.=.;.:.m.l.M.N.:.=.=.=.$.X k F.G.J.&X*X*X:X*X].'.",
"J.J.K.].[.-X*X*X*X*X.X'.V.. & Z Z # . # F F O.&.=.=.=.=.=.=.=.;.M.-.-.-.=.=.+.* z V.H.J.I.I..X.XK.K.",
"J.K.K.].*X;X;X*X*X&X].K.V.. . . . . = - F ..o.&.=.=.=.=.=.=.=.N.N.m.:.:.=.=.=.I . 8.H.H.G.K.K.K.'.K.",
"'..X.X-X-X-X-X-X*Xs.( E Z.E E E t . D F F O.=.=.=.=.=.=.=.=.=.:.:.;.-.-.=.#.&.P $ z Z.K.K.K.K.K.I.K.",
"K.K.*X*X*X-X;X>X-XE k ~ z E G.J.x . D F F O.=.=.=.=.=.=.=.=.=.=.=.=.=.=.=.%.=.o.- . y.K.K.].].*X.XK.",
"*X].*X.X.X.X-X>X>X) ~ x.e s &XG.j . D F F ..X.X.X.o.%.O.=.=.=.=.=.=.=.*.=.o.X...; . g.*X*X:X*X:X-X*X",
"I.*X&X*X&XK..X*X:X&Xx r K h e R   . D F F F O...@.%.&.&.&.&.&.&.&.&.&.&.&.%.@.F ; . g.=X*X&XK.].].*X",
"*X*X*X*X*X.X.XoX*X:Xx o h g . T   . D F F F F F F F F F G G F F F F F F F F F F ; . y.K.K.G.H.G.K.K.",
">X4X>X4X:X-X;X;X`.u.B m b m a N s . V Z D C C C C C C C C C C C C C C C C C C C & . t.G.G.K.K.G.K.*X",
"5X5X5X5X4X:X2X<Xu.. T.!.E.Q.R.n . . - ; D % . . . . . . . . . . . . . . . . . . . . y.K.K.K.K.*X:X>X",
"9X9X3X3X2X,XP. X8.. b m v m v + . . = - - # . ^ { { { { { { { { { { { { { { { l . . d.'.I.*X:X2X5X5X",
"2X:X;X*X.XP.j.s e . . . . . . . . . C . . l  ./.%X%X%X%X%X%X%X%X%X%X%X%X%X%X%X@XN . t..X=X4X4X5X9X5X",
";X*XoX.X'.s r . . . m U.U.U.n . . . X $ ~.^./././.8X{.u u u u 8X%X#X$X%XM u u ` ] . d.L.L.5X5X5X3X1X",
"-X*X*X].A.r . + Y.R.R.R.U.Y.U.U.i . $ p OX8X8X8X7X8X7XW.$ {.8X8X@X@X@X@X8Xk M 7X] . s.k.7.*X>X;X,X:X",
"-X*XoX) . . , i m R.R.R.v U.+ . . . ~.p.OX8X8X8X8X8X%X+XOX%X8X@XM k m k }.+XOX#X] . h.P.L.I.*X=X].}.",
"oX_.) k . . n n n n n n n n i . . . ~.$ |.#X%X%X8X8X8X8X8X8X8X8X%X+X#X%X8X8X8X8X] . f.*X]..X.X*X[.}.",
".Xs.. * h h h h h h h h h h h h h @ b. ./.+X7X%X7X8X8X8X8X8X8X8X7X%X%X%X8X8X8X8X] . s..XI..X.X*X&XK.",
"-Xf.. f U U U U U U U U U U U U U $ p p N /.OXOXOX+X8X8X8X8X8X8X8X8X8X8X8X8X6XOX^ . s..X*X-X:X-X:X:X",
"oXf.. f U r.x.z.z.z.z.z.| ! } U U L X $ ~./././.%X%X%X8X8X8X8X8X7X8X8X8X8X8X8X#X^ . g.>X<X2X2X2X;X*X",
"'.t.. f W W c.c.c.c.c.! U U U U y . . . . . / ~.~.|././././././././././././.~./ o d.2X2X3X2X;X.X.XJ.",
"I.t.. l x.c.c.c.c.c.c.c.c.} L J r , , , . . . . . p. .W.W. . .p.i.i.i.i.i._ . . x `.,X2X>X*X.XI.J.P.",
"J.t.. g z.n.n.n.b.b.c.c.c.! K . 8 <.<.w . @ y X . . . . . . . X . . . . . t $ . . a.>X>X*XoXI.J.J.J.",
"G.t.. c c.).@X).(.(.c.c.c.c.~ . q 6.2.w . $ f X . 6 6 6 O . . . . > 6 : . f y . , B E K.-X*X]..XJ.J.",
"P.y.. c c.n.[.v.b.c.c.c.c.c.~ . q 6.4.1.. f J @ . 5.5.5.4 . . . . 3 <.< . h g . 5 3 . Z.P.K.'.K.J.J.",
"K.s.. c c.).@X[.).(.n.c.c.c.~ . q 6.6.3.. l z.t . 6.6.6.5.3.+ O 3.3.<.1 . [ _ . 7 1 . Z.I.J.J.J.H.J.",
"K.s.. c b.x.b.b.c.c.c.c.c.c.~ . q 6.6.> > > O . r a 3.5.5 1.> > 1.3 2.1 . e._ . 6 < . Z.J.K.J.'.I..X",
"2XV.. c (.b.).).D.x.c.c.c.c.~ . q 6.6.6.6.6.3 . b.@X. 3 q 3.> > 1.0 <.< . e._ . < , . C..X.X-X<X3X3X",
">Xh.. c c.c.c.c.c.c.c.c.c.c.~ . q 6.6.6.6.6.4 . ~.@X. 3 6.6.4 4 6.5.w < . [ / . . . . _.,X,X<X<X=X;X",
"K.s.. c c.c.c.c.c.c.c.c.c.c.~ . 0 2.<.<.<.2.2 . ~./.. 3 6.6.6.2.5.<.,.1 . Q R . p t . `.*X.X.X'.I.J.",
"K.t.. l x.c.c.c.c.| | } ! ! L h u 1 < < < < O . k k . 3 6.6.6.4.6.<.w < . Q K . ' ^ . A..X.X'.I.J.'.",
"].s.. l c.c.c.c.c.z.c.r.r.} U U y . . . . . . . . . O w >.>.>.>.,.>.w 6 . K J . u ) f.-X*X].].'.'.'.",
"K.V.e j L Q c.c.c.c.} ! W W U U L @ . . . X X . . O O O O O , O , 7 7 O . * @ . X w.'.J.J.'.J.'.B.B.",
"G.*X-X) . } r.r.| | r.r.U U U U U t . . . y J @ . 9 7 . . . 9 O 9 9 9 , . H g . z V.J.D.H.'. X'.7.7.",
".X2X2Xs.x j j h h h h h h h h h h @ . . . . . . . . . . . . . . . . . . . . . . . z D. X XXX<XP.k.k.",
"<X2X5X3X;Xr . . . . . . . . . . . . . . . . . . . . . . . . . . . . . . . . . . . . s.XX.XoX;X,XXXP.",
"*X*X-X;X<Xa.q.q.q.9.8.8.0.0.q.k . . . . . . . O . . . . . . . . . . . . . . . . . . d..X X.X.XoXoXXX",
".X.XoXoXXXoXoX;X<X,XoX.X.X].y.r . . . . . . . 9.h.h.h.h.f.s.s.s.s.s.s.z . . . . . . f.XX.X X X X X'.",
"'. XI..XJ.J.J.I.].oX<X<X-X-Xq.. . . . . . . 8.[.>X:X-X.XK.I.J.K.oX*X*X'.A.r . . . . h.;XoX X X X XJ.",
"J.'.'.J.H.H.F.H.J.J..X;X3X3Xd.u u u e e z *X&X*X*X`.].H.H.J.K.*X>X;X.XJ.'.V.. . o w..X;X<X,XoXoX.X'.",
".X.X.XJ.J.S.S.S.H.J.J.'.-X2X5X;Xk.XX-X:X:X-X*X]._._.H.F.H.K.*X>X5X<X*XI.J.V.s s 8.D.H.J.oX,X<X3X*X.X",
";X-X-X.XJ.S.S.S.S.S.H.J.].*X<X=Xk.-X5X2X-X].].J.H.H.H.H.].*X>X4X9X3X;X.X'.K.J.S.S.S.S.D.J.oX,X<X:X;X",
"*X;X2X;X*XI.H.S.S.S.F.J.J.I.*X-X=X2X;X*X'.H.H.J.G.H.K.*X:X2X>X2X3X5X3X;X*X.XJ.K.G.G.H.J.J.J..XoX.X.X",
".X.X*XoX-X-X*XK.P.J.H.J.J.P.K..X*X-XoXK.J.J.J.K.I.I.*X>X5X5X4X5X3X3X4X2X>X:X*X*X*X].].'.K.K.I.I.I..X",
".X.X.X'.K.K.I..X.X.XoX.X.X].*X.X*XoX.XI..X.X.X.X-X>X>X2X>X5X4X4X<X;X-X-X-X*X-X;X;X-X:X:X:X*X*X*XK.I."
};
