/* XPM */
static char *result[] = {
/* columns rows colors chars-per-pixel */
"50 50 211 2 ",
"   c #7A4A3E",
".  c #323443",
"X  c #3B3645",
"o  c #3D3C47",
"O  c #303C4A",
"+  c #3E3D49",
"@  c #3D3F51",
"#  c #473545",
"$  c #443A45",
"%  c #4E3E47",
"&  c #443F49",
"*  c #553647",
"=  c #5E3648",
"-  c #543D49",
";  c #603F4B",
":  c #6B384A",
">  c #77374B",
",  c #2F414E",
"<  c #33424A",
"1  c #32494E",
"2  c #2E4552",
"3  c #2D4956",
"4  c #2C4D59",
"5  c #324C52",
"6  c #2E5159",
"7  c #335051",
"8  c #325B58",
"9  c #33675D",
"0  c #2A5660",
"q  c #295C67",
"w  c #26666E",
"e  c #347665",
"r  c #257077",
"t  c #247B7E",
"y  c #47444A",
"u  c #48444B",
"i  c #55444A",
"p  c #5D4349",
"a  c #544B4E",
"s  c #4C4750",
"d  c #45485B",
"f  c #594D54",
"g  c #5D5653",
"h  c #5F5854",
"j  c #6B464B",
"k  c #69484B",
"l  c #73484C",
"z  c #794C4C",
"x  c #77524F",
"c  c #714E50",
"v  c #645657",
"b  c #645A5D",
"n  c #725251",
"m  c #775B55",
"M  c #745A5D",
"N  c #6C6158",
"B  c #7B605A",
"V  c #75685C",
"C  c #4B4E64",
"Z  c #4D5163",
"A  c #4F5268",
"S  c #54596B",
"D  c #6F5D60",
"F  c #7B6867",
"G  c #6F6F71",
"H  c #88384D",
"J  c #97394F",
"K  c #9D3C50",
"L  c #A03E51",
"P  c #AC3A51",
"I  c #BD3B53",
"U  c #C03D54",
"Y  c #804F4C",
"T  c #86514E",
"R  c #89554F",
"E  c #96564F",
"W  c #9C5B52",
"Q  c #B04655",
"!  c #A45B51",
"~  c #BB575B",
"^  c #8A6753",
"/  c #956759",
"(  c #85725E",
")  c #A86255",
"_  c #A8685A",
"`  c #B06E5D",
"'  c #8A6766",
"]  c #8B6C63",
"[  c #897762",
"{  c #897864",
"}  c #8B7B66",
"|  c #987663",
" . c #92716C",
".. c #977F77",
"X. c #A77865",
"o. c #A1756F",
"O. c #B77864",
"+. c #AC7B73",
"@. c #C34155",
"#. c #C84557",
"$. c #CC4959",
"%. c #D24F5B",
"&. c #C65A5D",
"*. c #D8545D",
"=. c #D25D5F",
"-. c #DD595F",
";. c #E25E61",
":. c #E76564",
">. c #E86363",
",. c #EA6B67",
"<. c #EC746A",
"1. c #ED7B6D",
"2. c #35896E",
"3. c #2A827A",
"4. c #28837E",
"5. c #2B8B7D",
"6. c #2E937D",
"7. c #359574",
"8. c #30977D",
"9. c #329B7C",
"0. c #36A57C",
"q. c #F29038",
"w. c #9B8367",
"e. c #9E8569",
"r. c #A18B6D",
"t. c #B3826B",
"y. c #BD8169",
"u. c #A7906F",
"i. c #B2956E",
"p. c #B4986F",
"a. c #B68177",
"s. c #B78178",
"d. c #AC9675",
"f. c #B59A73",
"g. c #B99C74",
"h. c #B99E78",
"j. c #B7A078",
"k. c #BAA47C",
"l. c #D89E5F",
"z. c #F79A46",
"x. c #EEA75F",
"c. c #C1866D",
"v. c #C38A6F",
"b. c #C58D71",
"n. c #C79073",
"m. c #C99376",
"M. c #CD9A7B",
"N. c #EF8170",
"B. c #F18C75",
"V. c #F29377",
"C. c #DCA66A",
"Z. c #C4A475",
"A. c #C9A777",
"S. c #CDAC7C",
"D. c #D5AE75",
"F. c #D5AC7A",
"G. c #D7B176",
"H. c #D9B276",
"J. c #D7B27A",
"K. c #DCB57C",
"L. c #DEB97E",
"P. c #E9AD68",
"I. c #E6B579",
"U. c #E0BA7F",
"Y. c #656984",
"T. c #696D89",
"R. c #6F7987",
"E. c #6D718E",
"W. c #777D97",
"Q. c #9E999F",
"!. c #CD8E80",
"~. c #D89484",
"^. c #E39B89",
"/. c #CCA98F",
"(. c #D1A281",
"). c #D6AD88",
"_. c #CEB182",
"`. c #D2B384",
"'. c #DDB681",
"]. c #DEBB82",
"[. c #DAB78C",
"{. c #D8B792",
"}. c #E6A18D",
"|. c #E1B781",
" X c #E2BD83",
".X c #E9BB83",
"XX c #E6BF89",
"oX c #EAA691",
"OX c #ECAB94",
"+X c #E3B69D",
"@X c #F1B39B",
"#X c #F4B89E",
"$X c #F7BEA2",
"%X c #DEC189",
"&X c #E4C186",
"*X c #EAC086",
"=X c #E6C48B",
"-X c #E8C68D",
";X c #E7C98D",
":X c #E8C98E",
">X c #E7C790",
",X c #E8C790",
"<X c #E7C991",
"1X c #EACC93",
"2X c #ECCF98",
"3X c #ECD097",
"4X c #EDD39B",
"5X c #F9C3A6",
"6X c #FBC7A9",
"7X c #FDCAAB",
"8X c #EED7A1",
/* pixels */
" X&X X X X X&X&X&X X X XL.L.L.L.%X&X=X;X&X&X&X&X&X&XL.L.L.L.U.G.).`.`.`._.-X&XK.K.D.D.G.H.L. X&X X=X",
" XL.L.K.K.U.].].].].L.L.L.L.K.K.L.&X&X&X&X&X&XU.&X&XL.G.L.L.p.a ; ; = o . A.K.J.D.J.J.J.K.|.|.=XXX X",
" X'.U.L.L.L.%X%XL.L.L.L.L.L.L.L.&X&X&X=X;X;X&X&X&X&X&XG.U.U.y =.*.-.>.l . Z.K.J.J.K.K.'.|.=X=X=X&X].",
" X X X X&X*X=X&X;X=X=X&X&X;X;X;X=X&X&X=X;X;X;X&X&XU.A.w.( ( $ > H @.%.> . A.K.K.'. X X=X-X1X1X1X-X-X",
"<X-X;X:X:X3X3X3X3X2X2X-X=XZ.v v v g g g g h g g g g a j ~ ~ L . X * * | f.'.&X&X=X;X-X1X1X2X4X2X1X<X",
"=X=X;X:X1X1X;X=X&X&X X[.s p =.=.=.=.=.=.=.=.=.=.=.~ . X y L I . . . . r.-X1X1X<X<X<X>X-X>X>X;X=X=X=X",
"'.'.&X&X&X&X XL.K.D.v o =.:.>.>.N.V.B.B.N.1.<.>.#.U @.U > # . . * $.;.l . S.&X&X&X=X&X=X=X{.[.%X].'.",
"L.L. XL.%XL.K.J.Z.N - &.:.:.,.,.,.B.<.:.>.>.:.>.>.>.;.%.U I # . # J K = . Z.L. X X&X&X&XXX].].L.K.L.",
"L.L.L.].L.H.J.J.w.. W >.>.>.<.1.N.V.V.>.>.>.>.>.>.>.-.$.#.I : ; . . . . . Z.L.%X%X&X=X-X-X&X].L.L.L.",
"L.L.U.L.L.L.L.A.N % Q ;.*.>.,.,.<.1.1.>.>.>.>.>.>.>.>.>.%.I I P . a V ( ( A.( { f.].=X=X=X=X=XU.L.L.",
"L.U. X X&XL.L.p.. > $.;.-.>.>.>.>.>.>.>.>.>.>.>.>.>.>.>.%.I I P . V K.G.w.N ^ n ( &X;X;X=X&X&X&XU.L.",
"&X;X&X&X&X&X%Xf.. > U #.$.>.>.>.>.>.>.>.>.>.%.-.$.#.#.#.U I I P . m K.].g o n.( w.1X;X=X&X X X&X]. X",
"&X].].].%X&X&Xj.. > I %.-.;.;.;.;.;.;.;.;.;.-.;.-.%.U %.U I I P .   / y z R y V `.;X&X&X X].&X%X&X].",
"%XL.H.J.J.L.L.p.. > I I I U I I U U I U I I U I U U U U I I I P .   ^ . l x . G ;X=X X X X X&X=X=X&X",
"&XL.K.H.L.G.L.i.. ; H H H H H H H H H H H H H H H H H H H P J > . g G d S Z S G u.`.=X=X=X=X1X1X:X:X",
":X=X&XL.L.L.L.p.. . . . . . . . . . . . . . . . . . . . * P > > . . Z T.Q.W.Q.R.. u.1X1X1X2X4X4X4X4X",
"4X3X:X=X&XL.L.p.. . M o.o.o.o.o.X.o.o.o.o.o.o.o.o.o.' X # : : = . . @ d S Z S Z . w. XI.;X1X2X2X8X8X",
"4X8X8X3X<X=X].f.. F +X$X$X$X$X$X#X$X$X$X$X$X$X$X$X$X~.+.M . . H . . . . . . . . . y g l.K. X=X=X;X1X",
"3X3X3X8X3XP.x.f.. .. .d s F $X@X@X$X7Xu s s s /.7X}.^.^.~.!.& # . . . S Y.Y.Y.S . . . u g L. XXX=X-X",
";X;X:X1X=Xq.z.f.. ..7XD f 6X+X+X+X+X7X7X/.< !.6X7X7X7X7X7XOXf & . d Y.Y.T.Y.E.E.E.E.< . u S.'.XX&X=X",
"[.%X%X&X&XP.P.k.. ..@XoXoX{.b b b b +X7X$XoXoX5X7X7X7X7X7XoX+.~.. . . @ Y.C E.E.E.S & d . . } =X=X*X",
"{.%XU.&X&X].%Xj.. ..7X7X7X7X$X@X@X6X7X7X7X7X7X7X7X6X$X$X@X}.& !.. . . d Z A A A A A A A . . v } _.XX",
" X X&XU.U. X Xf.. ..7X7X7X7X6X#X#X6X7X7X7X7X7X7X7X6X$X$XoX^.+.!.$ z z z l z z z z z z z l z - . g. X",
"=X-X-X;X=X&X Xf..  .oX5X7X7X7X7X7X7X7X7X7X7X7X7XOXoXoXoX^.' v f % ! ! ! ! ! ! ! ! ! ! ! ! ! j . h.-X",
"=X-X1X2X2X;X;Xk.. ' @X7X7X7X7X7X7X7X7X7X7X7X7X7X$X$X^.^.^.!.& + W ! ! O._ O.v.c.c.c.c.c.y.! k . g.XX",
"L.U. X=X1X1X1X1Xh.<  .!.^.^.^.^.^.^.^.^.^.^.^.^.}.!.!. .. . . . . . . . R ) ` b.b.b.b.b.) ) k . i.K.",
"K.K.U.|.=X;X;X=Xj.V . . o.a.a.a.a.a.a.a.s.a.s.s.s.. . . . . 2 2 2 2 2 2 ] X.b.b.b.b.b.b.n.b.m . i.K.",
"K.K.U.U. X=X;Xk.. . . % - . . . . . . . . . . . . . X ; # . r t 4.5.5.5.5 y b.b.M.n.M.M.M.y.n . i.U.",
"K.L.'. X X X} F 0 0 < p k . O 0 O . . . . 2 0 0 0 . $ j % . r t 8.0.0.0.7 & b.b.(.M.).{.oXb.B . i.K.",
"K.K.L.L.U.U.. 7 9.9.8 l l . 4 5.8 . . . . 9 9.9.9.. $ T p . r 8.9.0.0.0.7 & b.b.n.n.m.+XM.b.B . i.K.",
"K.H.K.K.K.L.. 7 0.6.6 | X.. 4 6.0.7., < 7.0.0.0.0.. i c.M . O < < 9 0.0.7 & b.M.(.F.[.+X).b.m . f.U.",
"L. X'.K.L.L.. 7 7.3.3 X.t.. 4 5.8 2.< < 2.9 0.0.0.. f n.B . . . 7 7.7.7.1 & b.b.b.n.n.n.n.m.m . f.U.",
"2X3X,X=X X X. & b b & o.t.. 4 5.e 2., < 2.e 0.0.9.. a b.m . . . . . . . . & b.b.b.(.).).m.(.B . k.3X",
"=X=X-X,X>X,X. v @X$XF ] ` . 4 4.8.0.9 9 0.0.0.0.5.. a O.m . . . o M M M & & b.b.b.b.b.b.b.b.B . k.-X",
"L.L. XU. XXX} { ' ' s W / . 4 4.5.0.6.0.0.0.0.8.5.. i O.x . . . f @X@X@Xv & n.n.b.b.b.b.b.b.B . f.U.",
"L.U.L.|. X X=Xg.. . . / _ . 4 t 5.0.8.0.0.0.0.9.t . i ` c . . . d { F F c Y O.O.O.n.b.b.b.c.n . i.U.",
"'.K.K.|.|.XXXX[.j.V . T E . 4 t t 4.4.4.4.4.4.4.t . % ! j . . . . . . . T O.y.b.c.b.b.n.b.v.M . f.U.",
"F.C.|.K.'.'.'.'.K.[ . % % . O q 0 , O 2 O O O < 2 . X u $ . . . . p E E ! ) ` O.b.b.b.n.` W c u Z.U.",
"q.q.K.|.K.J.J.J.D.( . l z . 2 w w w O w . . . q w . $ T p . . . . p ! ! ! ! c.O.O.c.c.O.X.. } =XXXH.",
"q.z.I.-XXX|.|.K.D.( . . . . . . . . . . . . . . . . . . . . . . . % z z z z z z z z z z z V f.1X1X X",
"I..X>X>XXX X X|. X[ . . . . . . . . . . . . . . . . . . . . . . . . . . . . . . . . . . u >X2X4X1X>X",
"XXXXXXXX|.|. XXX=X} . . . . . . . . . . . . . . . . . . . . . . u e.r.e.r.| e.e.e.r.r.r.f.<X>X-X=XXX",
"|.|.|.|.|. XXX=X>X} . . . . . . . . u.f.g.g.k.k.o . . . . . d.f.g.U.U. X'. X X X-X-X-XXXXX|. XXX X|.",
"K.|.|.|.|.XX>X>X=X[.v . . . . . . . u K.U.U. X=Xu . . . ( A.'.'.|.I. X=X=X-X1X-X=X].K.K.K.U. X|.U.L.",
"|.|.XX>X>X>X=X XL.L.L.K.A.y y y u u u L.J.G.K.].[.< y u w.XX]. X X=X,X1X4X1X=X XU.K.J.J.H.K.L.L.'.L.",
"|.XX2X1X-XXX'.J.D.D.F.H.K.K.U.&X1X3X1X&XL.J.G.K._._.L.=X=X>X;X=X|.z.-X8X1X=X XK.J.D.F.D.D.H.L.'.]. X",
">X=X>X-X XK.D.F.D.D.F.H.L. X X=X3X8X3X:X&X%XJ.J.J.J.K.'. X-X1X3X:Xz..X1X=X'.K.H.D.D.D.D.J.K. X=X=X-X",
" X XXX XL.K.K.H.J.H.L.L. X&X=X2X4X4X3X:X:X;X&XL.J.G.K.K.H. X X=X3X&X*X&XL.K.J.D.D.D.D.H. X X-X1X-X=X",
"|. X X XL.L.L. X].=X&X&X=X<X3X3X3X3X3X4X4X4X:X=X%XL.L.L.K.K.U.*X=X*X XU.U.K.K.H.K.K.U.&X=X=X X&X X X",
"L.L. X X=X&X;X;X=X=X-X=X&X=X&X=X;X<X3X1X3X<X:X:X;X=X X X&XU.U. X X&X&X XU. X X&X X.X|. XL.U.U.U. X X"
};
