/* XPM */
static char *result[] = {
/* columns rows colors chars-per-pixel */
"50 50 214 2 ",
"   c #7A4A3E",
".  c #323443",
"X  c #3B3645",
"o  c #3D3C47",
"O  c #303C4A",
"+  c #3E3D49",
"@  c #3D3F51",
"#  c #473545",
"$  c #443A45",
"%  c #4E3E47",
"&  c #443F49",
"*  c #553647",
"=  c #5E3648",
"-  c #543D49",
";  c #603F4B",
":  c #6B384A",
">  c #77374B",
",  c #2F414E",
"<  c #33424A",
"1  c #32494E",
"2  c #2E4552",
"3  c #2D4956",
"4  c #2C4D59",
"5  c #2E5159",
"6  c #335051",
"7  c #325B58",
"8  c #33675D",
"9  c #2A5660",
"0  c #295C67",
"q  c #26666E",
"w  c #347665",
"e  c #257077",
"r  c #247B7E",
"t  c #47444A",
"y  c #48444B",
"u  c #554047",
"i  c #55444A",
"p  c #5D4349",
"a  c #544B4E",
"s  c #4C4750",
"d  c #45485B",
"f  c #594D54",
"g  c #5D5653",
"h  c #5F5854",
"j  c #6B464B",
"k  c #69484B",
"l  c #73484C",
"z  c #794C4C",
"x  c #77524F",
"c  c #714E50",
"v  c #645657",
"b  c #645A5D",
"n  c #725251",
"m  c #775B55",
"M  c #745A5D",
"N  c #6C6158",
"B  c #7B605A",
"V  c #75685C",
"C  c #4B4E64",
"Z  c #4D5163",
"A  c #4F5268",
"S  c #54596B",
"D  c #6F5D60",
"F  c #7B6867",
"G  c #6F6F71",
"H  c #80384C",
"J  c #88384D",
"K  c #97394F",
"L  c #9D3C50",
"P  c #A03E51",
"I  c #AC3A51",
"U  c #BD3B53",
"Y  c #C03D54",
"T  c #804F4C",
"R  c #86514E",
"E  c #89554F",
"W  c #96564F",
"Q  c #9C5B52",
"!  c #B04655",
"~  c #A35157",
"^  c #A45B51",
"/  c #BB575B",
"(  c #8A6753",
")  c #956759",
"_  c #85725E",
"`  c #A86255",
"'  c #A8685A",
"]  c #B06E5D",
"[  c #8A6766",
"{  c #8B6C63",
"}  c #897762",
"|  c #897864",
" . c #8B7B66",
".. c #987663",
"X. c #92716C",
"o. c #977F77",
"O. c #A77865",
"+. c #A1756F",
"@. c #B77864",
"#. c #AC7B73",
"$. c #C34155",
"%. c #C84557",
"&. c #CC4959",
"*. c #D24F5B",
"=. c #C65A5D",
"-. c #D7535D",
";. c #D8545D",
":. c #D25D5F",
">. c #DD595F",
",. c #E25E61",
"<. c #E76564",
"1. c #E86363",
"2. c #EA6B67",
"3. c #EC746A",
"4. c #ED7B6D",
"5. c #35896E",
"6. c #2A827A",
"7. c #28837E",
"8. c #2B8B7D",
"9. c #2E937D",
"0. c #359574",
"q. c #30977D",
"w. c #329B7C",
"e. c #36A57C",
"r. c #F29038",
"t. c #9B8367",
"y. c #9E8569",
"u. c #A18B6D",
"i. c #B3826B",
"p. c #BD8169",
"a. c #A7906F",
"s. c #B2956E",
"d. c #B4986F",
"f. c #B68177",
"g. c #B78178",
"h. c #AC9675",
"j. c #B59A73",
"k. c #B99C74",
"l. c #B99E78",
"z. c #B7A078",
"x. c #BAA47C",
"c. c #D89E5F",
"v. c #F79A46",
"b. c #EEA75F",
"n. c #C1866D",
"m. c #C38A6F",
"M. c #C58D71",
"N. c #C79073",
"B. c #C99376",
"V. c #CD9A7B",
"C. c #EF8170",
"Z. c #F18C75",
"A. c #F29377",
"S. c #C4A475",
"D. c #C9A777",
"F. c #CDAC7C",
"G. c #D5AE75",
"H. c #D5AC7A",
"J. c #D7B176",
"K. c #D9B276",
"L. c #D7B27A",
"P. c #DCB57C",
"I. c #DEB97E",
"U. c #E9AD68",
"Y. c #E6B579",
"T. c #E0BA7F",
"R. c #656984",
"E. c #696D89",
"W. c #6F7987",
"Q. c #6D718E",
"!. c #777D97",
"~. c #9E999F",
"^. c #CD8E80",
"/. c #D89484",
"(. c #E39B89",
"). c #CCA98F",
"_. c #D1A281",
"`. c #D6AD88",
"'. c #CEB182",
"]. c #D2B384",
"[. c #DDB681",
"{. c #DEBB82",
"}. c #DAB78C",
"|. c #D8B792",
" X c #E6A18D",
".X c #E1B781",
"XX c #E2BD83",
"oX c #E9BB83",
"OX c #E6BF89",
"+X c #EAA691",
"@X c #ECAB94",
"#X c #E3B69D",
"$X c #F1B39B",
"%X c #F4B89E",
"&X c #F7BEA2",
"*X c #DEC189",
"=X c #E4C186",
"-X c #EAC086",
";X c #E6C48B",
":X c #E8C68D",
">X c #E7C98D",
",X c #E8C98E",
"<X c #E7C790",
"1X c #E8C790",
"2X c #E7C991",
"3X c #EACC93",
"4X c #ECCF98",
"5X c #ECD097",
"6X c #EDD39B",
"7X c #F7C1A5",
"8X c #F9C3A6",
"9X c #FBC7A9",
"0X c #FDCAAB",
"qX c #EED7A1",
/* pixels */
"=XOXOX{.L.K.G.J.G.L.P.=X>X'.'.'.`.].'.XXP.P.T.XX=X=X=X=X=X=X>X>X=XXX{.P.{.{.*XT.XX=X=X=XXXT.XX=XXX=X",
"XX=X=XOXXXP.K.L.J.J.J.P.F.. X k = p ; j..XT.P.T.=X*XT.=X=X=X=X=XXX{.P.P.I.P.I.I.T.T.T.*XI.I.T.P.T.T.",
"{.=X=X:XOXOX.X[.P.J.J.P.S.. l 1.>.-.-.y XXT.XXXX=X=X=X=X=X>X>X=X;XXX{.{.I.P.I.I.T.T.*X*XI.I.I.I.P.XX",
":X>X3X3X,X;X;XOX*X[.P.P.D.. : -.$.J > o _ _ _ D.I.=X>X>X>X>X=X=X=X;X:X<X>X;X=X;X>X>X;X=X=XT.*X=XOXoX",
"2X3X6X6X4X3X3X<X:X;X=X;XP.k...* * X . K / / j a g g g g N h g g g g g h '.*X,X5X5X5X5X5X5X,X,X>X:X<X",
"}.;X;X2X:X<X<X<X>X<X<X<X<X:Xu.. . . . U P # X . / :.:.:.:.:.:.:.:.:.:.:.i a [.XX=X=X>X>X,X3X,X>X;X=X",
"XX{.{.{.|.OX;X=X=X;X;XXXF.. l ,.&.* . . # > Y Y Y %.1.3.4.C.b.Z.A.4.1.1.1.:.$ h G.P.P.XX=X=X;X=X{.{.",
"P.I.[.{.{.;X=X=X=XXX{.XXD.. = L K * . # U U -.1.1.1.1.1.1.1.1.3.Z.2.2.<.1.1.=.- N S.L.L.I.XXXXT.I.P.",
"P.P.I.XX=X:X:X=X=X*X{.I.S.. . . . . = : U $.&.,.1.1.1.1.1.1.1.A.A.C.4.4.1.1.1.~ . t.L.L.I.I.I.I.{.I.",
"T.XX{.;X=X;X;X;XXXj.| _ D._ _ _ a . I U U *.1.1.1.1.1.1.1.1.1.4.4.2.2.2.1.;.,.! % N D.I.I.I.I.I.I.P.",
"I.I.=X=X;X;X:X,X*X_ v ) N _ K.K.V . I U U *.1.1.1.1.1.1.1.1.1.1.1.1.1.1.1.>.1.&.> . d.I.I.I.{.=XXXI.",
"=X{.=XXXXX=X=X,X2Xt.{ N.t g *XP.x . I U U $.%.%.%.%.,.*.1.1.1.1.1.1.1.1.1.&.%.$.> . z.=X=X*X=X>X;X=X",
"=XI.=X*XXXXX=X=X>X*XV t R n t )   . I ! U U *.$.;.>.,.,.,.,.,.,.,.,.,.,.,.>.*.U > . z.=X=XI.I.I.{.=X",
";X=X=X=X=XT.XXXX=X>XV , z c . (   . I Y U U U U U U U U U U U U U Y U U Y Y ! U > . d.I.I.I.L.I.I.I.",
">X5X,X5X;X;X>X:X'.a.G S Z A d G g . H K I J J J J J J J J J J J J J J J J J J J = . s.P.K.K.I.P.I.=X",
"6X6X6X6X5X3X3X<Xa.. W.~.!.~.Q.A . . : H I * . . . . . . . . . . . . . . . . . . . . s.I.I.I.I.=X>X>X",
"qXqX4X4X2X:XoX.Xy.. C S C A C @ . . : : : # . [ +.+.X.+.+.+.+.+.+.+.+.+.+.+.+.M . . h.[.T.=X=X,X6X6X",
"3X1X;X;X{.Y.c.g y . . . . . . . . . H . . M g./.%X&X&X7X8X&X&X&X&X&X&X&X&X&X&X#XF . j.XX>X3X6XqXqX6X",
":X;X=XXX{.g & . . . S R.R.R.S . . . X # ^./.(.(. X0X).d s s s 0X&X$X$X&XD s s X.o.. h.b.U.6X6X5X5X2X",
";X=X=X[.F.y . @ E.Q.Q.Q.R.E.R.E.s . y f +X0X0X0X0X0X8X^.y ).0X0X#X#X#X#X0Xb D 9Xo.. l.v.r.-X3X:X<X:X",
";XOX;X| . . d d S Q.Q.Q.C G @ . . . ^.g.+X0X9X0X0X0X8X+X+X&X0X#Xb b b b ).+X+X&Xo.. x.Y.U.XX=X=X{.|.",
"OX'.| v . . C A C A A A A A 3 . . . ^.y (.$X7X&X0X0X0X0X0X0X0X0X&X@X&X&X0X0X0X0Xo.. z.{.I.XX=XXX{.|.",
"XXj.. u z z z z z z z z z z z z z $ ^.#.(.@X8X&X8X0X0X0X0X0X0X0X9X&X&X9X0X0X0X0Xo.. j.XXXX=XT.=X{.*X",
":Xl.. j ^ ^ ^ ^ ^ ^ ^ ^ ^ ^ ^ ^ ^ % f f [ (.+X+X+X@X0X0X0X0X0X0X0X0X9X0X0X0X&X+XX.. j.XX=X=X>X:X:X<X",
"OXl.. j ^ @.M.n.n.n.n.n.@.] @.^ ^ Q $ y ^.(.(.(.&X8X0X0X0X0X0X0X9X9X0X9X9X0X0X$X[ . x.>X<X4X3X3X:X;X",
"P.s.. j ` ` M.M.M.M.M.] ` E . . . . . . . X X.B.^.(.(.(.(.(.(.(.(.(. X(.(. XB.X.+ j.,X3X3X3X:XXXT.P.",
"T.s.. m m.M.M.M.M.M.M.M.O.{ 2 2 2 2 2 2 . . . . . g.g.g.f.f.g.f.f.f.f.f.f.... . F z.*X3X3X=XoXI.P.Y.",
"P.s.. c n.V.V.V.B.B.M.M.y 3 8.7.8.7.r e . # p X . . . . . . . . . . . . . u y . . . x.,X;XXXT.P.P.P.",
"P.s.. B M.}.#X`._._.M.M.y 6 e.e.e.9.r e . y j $ . 9 9 9 2 . . . . , 9 , . k u , 9 9 G t.=XOXXXXXI.P.",
"P.j.. M M.V.}.N.B.B.M.M.& 6 e.e.e.w.w.e . p R # . w.w.w.8 . . . . 7 8.3 . z l 7 w.w.1 . T.P.T.P.P.P.",
"P.j.. ( M.`.#X[._._.V.M.& 6 e.e.8 < < O . m n.a . e.e.e.w.0.< < 0.0.9.3 . O...5 9.e.6 . XXP.L.K.L.P.",
"T.j.. M B.M.N.N.M.M.M.M.& 1 0.0.0.6 . . . B M.a . e.e.e.8 5.< < 5.8 8.5 . i...3 6.0.6 . P.P.T.{.XXT.",
"3XD.. B _.B.`.`._.M.M.M.t . . . . . . . . m M.a . w.e.e.w 0.< < 5.w 8.4 . i...& b b + . XXOX;X1X4X3X",
",Xx.. B M.M.M.M.M.M.M.M.& y M M M o . . . m @.i . 8.e.e.e.e.8 8 e.w.r 4 . O.) F &X&Xb . <X1X<X:X;X:X",
"[.j.. B N.M.M.M.M.B.M.M.& b $X$X$Xv . . . n @.i . 8.9.e.e.e.e.8.e.8.6.4 . ' ) a [ [ {  .OXXXXX[.XXP.",
"I.j.. n p.M.M.M.M.@.@.@.T c F F F y . . . c ] i . r w.e.e.e.e.q.e.8.r 4 . ) Q . . . l.OXXXXX{.P.P..X",
"I.j.. m M.M.M.M.M.n.M.p.@.E . . . . . . . j ^ % . r 7.7.7.7.7.7.7.r r 4 . W R . V l.}.;X=X{.{.[.H.[.",
"{.S.y n Q ' M.M.M.M.@.] ` ^ W W - . . . . $ % X . 3 , O O O 2 O 2 9 0 O . % # . } P.P.[.P.{.L.[.U.H.",
"U.=X;X .. @.p.p.@.@.p.p.^ ^ ^ ^ k . . . . - R # . q 0 . . . q O q q q 2 . T c . _ J.L.H.K.[..X[.r.r.",
"*X3X3Xh.V x z z z x z z z z z z % . . . . . . . . . . . . . . . . . . . . . . . _ J.[..X.XoX<XY.v.r.",
":X3X6X4X:Xy . . X . . . . . . . . . . . . . . . . . . . . . . . . . . . . . . . _ XXXXXXXXOX<X1XoXY.",
"OX;X;X:X3Xh.u.u.u.y.y...y.y.u.y.u.y . . . . . . . . . . . . . . . . . . . . . .  .OXOX.X.X.XXXOXOXOX",
"{.XXOXOXoXOXOX;X<X<XOXXX[.XXT.T.T.k.j.a.. . . . . o x.x.j.k.j.s.. . . . . . . .  .3X<XXX.X.X.X.X.X[.",
"P.XXT.XXP.P.P..X{.;X1X1X:X;X=XOXT..XT.XXD._ . . . t ;X=XI.I.I.t . . . . . . . b [.:X<X<XOX.X.XoX.XP.",
"P.[.P.P.L.K.J.K.L.T.XX:X4X4X4X:X;XOXXXXX=Xt.t t t ].{.L.L.P.I.t s s t t y S.P.P.T.[.OX;X<X<X;XOXI.P.",
"XXXXXXP.L.G.J.G.L.L.P.{.;X3X6X:Xv.T.;X:X>X;X=X*X'.'.L.L.L.P.=X>X5X,X=XT.[.L.J.L.G.L.K.P.OX1X4X3X;XOX",
":X;X;XXXL.J.G.G.G.G.J.L.XX=X,X-Xv.:X6X3X:X{.I.L.L.L.L.P.{.=X>X5XqX4X:XT.[.P.L.L.G.G.H.L.P.XX<X<X>X:X",
";X:X3X1XOXT.P.J.G.G.J.P.P.T.XX:X;X3X:XXX[.P.L.P.P.L.P.=X>X3X3X3X6X6X4X:XOXXXT.P.K.G.L.P.P.[.XXXXXXXX",
"XXXX=XOX;X;X=XI.L.P.P.P.P.Y.I.XX=X;XOXI.P.P.I.I.I.{.=X,X6X6X5X5X5X4X5X3X>X;X=X;X=X{.{.{.I.I.T.XXT.T.",
"XXXXXXP.P.I.XXXXoXXXOXXXXXXXXXXX=X=XXXT.XXXXXXXX-X,X3X,X5X5X5X5X,X:X:X-X=X;X;X;X;X>X>X>X;X=X=X=XI.T."
};
