/* XPM */
static char *f1b93d09b83d455bfa2a6263c45b4b59DItPwSpJE3EzMi2D[] = {
/* columns rows colors chars-per-pixel */
"32 32 206 2 ",
"   c #010202",
".  c #0A0103",
"X  c #010901",
"o  c #090903",
"O  c #02020A",
"+  c #0B010A",
"@  c #050B0B",
"#  c #110002",
"$  c #11010B",
"%  c #1C0000",
"&  c #161F08",
"*  c #020212",
"=  c #0C0011",
"-  c #2E1A0F",
";  c #3E1B05",
":  c #3C0912",
">  c #2B1E16",
",  c #2F1A18",
"<  c #341C14",
"1  c #3A151A",
"2  c #341C1C",
"3  c #3A191C",
"4  c #35141E",
"5  c #0E2F00",
"6  c #162400",
"7  c #1C2600",
"8  c #152D01",
"9  c #1B2B02",
"0  c #162C09",
"q  c #19270C",
"w  c #0B3600",
"e  c #0D3D00",
"r  c #0F3208",
"t  c #1C3303",
"y  c #173506",
"u  c #1A2514",
"i  c #162C12",
"p  c #1C2C13",
"a  c #14261A",
"s  c #1B2919",
"d  c #152415",
"f  c #222908",
"g  c #283907",
"h  c #272816",
"j  c #203016",
"k  c #342218",
"l  c #2E1A23",
"z  c #361924",
"x  c #381624",
"c  c #342423",
"v  c #440D0B",
"b  c #431303",
"n  c #481706",
"m  c #4B0A17",
"M  c #520E19",
"N  c #431215",
"B  c #4B121E",
"V  c #511515",
"C  c #64051D",
"Z  c #540525",
"A  c #5E0A22",
"S  c #4B1527",
"D  c #521423",
"F  c #1C4600",
"G  c #0F5B00",
"H  c #145900",
"J  c #1C5B01",
"K  c #1E550A",
"L  c #255408",
"P  c #2F4C1E",
"I  c #265712",
"U  c #254D07",
"Y  c #176500",
"T  c #1B6101",
"R  c #216500",
"E  c #3C7401",
"W  c #3D7D08",
"Q  c #387807",
"!  c #3E7517",
"~  c #2D4E24",
"^  c #3F6D2C",
"/  c #38702F",
"(  c #3D7035",
")  c #437707",
"_  c #4B6918",
"`  c #4A7219",
"'  c #4A7C16",
"]  c #4F6B2A",
"[  c #4B6B20",
"{  c #427627",
"}  c #517724",
"|  c #456937",
" . c #576C36",
".. c #537336",
"X. c #7E2A45",
"o. c #693945",
"O. c #73304F",
"+. c #7E2E51",
"@. c #7E555B",
"#. c #4D7F42",
"$. c #547047",
"%. c #536744",
"&. c #8E1D31",
"*. c #9A1B2C",
"=. c #A91C39",
"-. c #872F3F",
";. c #912439",
":. c #9F3D4C",
">. c #AE3C4A",
",. c #AD374D",
"<. c #BE334B",
"1. c #AE395B",
"2. c #BC3351",
"3. c #B23C59",
"4. c #C1364B",
"5. c #C23255",
"6. c #97495B",
"7. c #88535D",
"8. c #874B53",
"9. c #A3434E",
"0. c #AA4252",
"q. c #A54455",
"w. c #B04255",
"e. c #AF5E5A",
"r. c #B55A5F",
"t. c #964A61",
"y. c #A55E6F",
"u. c #BA5A66",
"i. c #BE5D70",
"p. c #A84562",
"a. c #97646C",
"s. c #92736C",
"d. c #A56368",
"f. c #AD6573",
"g. c #42830F",
"h. c #628E1D",
"j. c #6B9919",
"k. c #729A1D",
"l. c #6CA21C",
"z. c #6FA415",
"x. c #72A61C",
"c. c #5D9D2B",
"v. c #5D9D3A",
"b. c #6B9E25",
"n. c #6B9D29",
"m. c #6B9627",
"M. c #759C2A",
"N. c #6D9C33",
"B. c #6B9C38",
"V. c #739D32",
"C. c #799B34",
"Z. c #75983C",
"A. c #5BA336",
"S. c #6BA424",
"D. c #69A726",
"F. c #72A323",
"G. c #71A32B",
"H. c #7CAA2D",
"J. c #64A732",
"K. c #64A53A",
"L. c #69A13D",
"P. c #69A535",
"I. c #74A331",
"U. c #7AA33B",
"Y. c #77A433",
"T. c #6C9C42",
"R. c #699949",
"E. c #769742",
"W. c #7D9A4C",
"Q. c #779948",
"!. c #768F58",
"~. c #7B9359",
"^. c #748B47",
"/. c #5EA443",
"(. c #62A544",
"). c #69AB49",
"_. c #67A745",
"`. c #76A344",
"'. c #9AC93F",
"]. c #A6C63D",
"[. c #82964E",
"{. c #86885D",
"}. c #9FBF5E",
"|. c #8B8B62",
" X c #8C8D6D",
".X c #8C8673",
"XX c #ABBD75",
"oX c #9FCA42",
"OX c #9EC357",
"+X c #A3CB45",
"@X c #A2CB4E",
"#X c #A9CB4F",
"$X c #ABC44F",
"%X c #A5D147",
"&X c #A4C552",
"*X c #A9C557",
"=X c #AAD255",
"-X c #9AC26A",
";X c #A4C961",
":X c #ABC377",
">X c #B1C176",
",X c #EFFFEC",
"<X c #E8FFE6",
"1X c #EDFFF1",
"2X c #F5FFF4",
"3X c #F8FFFA",
/* pixels */
"X     O . .   X X   X   o     X         . . + O X X X X     O   ",
"  X O O + .         .     X     o           O +     X           ",
"              X   +   .     O       O   X             . .       ",
". .       . . . . + +     X X   X     O X X X X . . $ +         ",
". . O   . 3 N 1 . . . j 9 8 6 0 u X   X p p y 8 . . +     X     ",
". . O   x a.f.d.x + - s.|.{.|. X.X> # c s.!.{.|.> $ +     X     ",
"        4 8.t.t.O.x B V n b ; : N B m M v n n n 3 # + +       O ",
"O     . % m Z :.Z :.6.u.r.r.,.i.q.:.>.w.u.0.e.d.a.z       X   O ",
"      . : 6.X.Z Z Z C ;.*.=.4.=.2.<.4.<.=.2.C :.S x .         O ",
"      # B y.7.D o.o.8.6.0.,.3.1.w.w.>.>.3.3.p.t.@.c   X   X O   ",
"  . . . D y.7.< u i p q k 2 z z z , > < x S 4 l h & @ O       O ",
"  . . . S a.< h | #./ { ~ <X1X1X,X~ | ~ 1X3X3X2XP $.a         + ",
"  @     . < &  .W.N.B.`.^ R K K U ' _.! R I P L ` ^.s O   + .   ",
"    X     o 7 ^.C.k.H.S.A././.).J.c.J.A.A.)./.B.I.Z.s O       + ",
"O           g [.M.z.k.D.T H T J H T J J G Y Y Y D.B.a * O   .   ",
"  . X   X X & W.M.k.z.E L._.L.L._././.(./.A.K.D.) Q.d * O       ",
". .     X   j !.V.l.z.x.b.G.b.D.W Q W g.Q P.I.S.C.W.u   O O     ",
". .       X X 8 ` G.x.F.j.F.x.S.S.D.D.D.D.I.h.Z._ 9 X     O O   ",
"          O   X 8 Z.M.M.U.B.I.b.D.l.l.l.G.G.` ] t X   X         ",
"    .   O     X 9 ..Z.n.) e B.Y.x.l.x.x.k.Y.e 8     X     X   . ",
"X     .         X 6 Z.n.P.N.w OX@X'.oX@X%Xj.Z.t           .     ",
"      . . .     X 0 } ' Q Q F OX%X%X+X+X@XoXQ.t X O O o   . .   ",
"O *   . .       X 0 U e F e OX#X].].#X#XoX=Xm.8 X   O     .     ",
"O O     . .   X i | R.T.Q.-X;X*X$X$X*X*XOX@XY.Q.0   O O         ",
"  X     .     X 5 { B.B.T.E.XXXX:X>XXX:X}.C.M.C.~.q   *     O   ",
"X           * a | R.`.B._ g 9 7 7 f 6 7 g _ C.E.~.p   O     O   ",
"          O O a ( { ^ | p X X X o X X X X t ] ] %.d       X     ",
".         O O X y w r i   O           X X X 0 q d X             ",
"          X     X X X X   O O O O * O     X X X                 ",
"              O O   X X     + O O * O     X                     ",
"  O . .       O O     o o               X     O               O ",
"O O   .     O O O + .         . .             O         O O     "
};
