/* XPM */
static char *b19af87dfbb84e03c843e377b8cf9499dIlZIMetPuEcIxkl[] = {
/* columns rows colors chars-per-pixel */
"32 32 205 2 ",
"   c #010102",
".  c #0A0202",
"X  c #020A01",
"o  c #02020A",
"O  c #0A030A",
"+  c #03080A",
"@  c #0A090C",
"#  c #080800",
"$  c #130004",
"%  c #12020B",
"&  c #1A000C",
"*  c #000211",
"=  c #0A0013",
"-  c #1C1A15",
";  c #3F0D06",
":  c #2F1E0A",
">  c #371D00",
",  c #39190A",
"<  c #390E1B",
"1  c #380E17",
"2  c #2E1A13",
"3  c #341513",
"4  c #3D1314",
"5  c #341D14",
"6  c #3D1815",
"7  c #37181C",
"8  c #0D2B00",
"9  c #042F00",
"0  c #142B03",
"q  c #1A2C03",
"w  c #14230B",
"e  c #1C2C0C",
"r  c #17290B",
"t  c #0C3400",
"y  c #1A3300",
"u  c #103800",
"i  c #1A2A13",
"p  c #1A261B",
"a  c #1C281B",
"s  c #17241B",
"d  c #173116",
"f  c #232E0C",
"g  c #2E2100",
"h  c #342305",
"j  c #262619",
"k  c #302A1E",
"l  c #213315",
"z  c #1F1724",
"x  c #311423",
"c  c #381727",
"v  c #1A2A25",
"b  c #282724",
"n  c #460C1C",
"m  c #4D0B14",
"M  c #461718",
"N  c #42160B",
"B  c #660A1F",
"V  c #4A092C",
"C  c #580A2B",
"Z  c #481724",
"A  c #5D343A",
"S  c #7E2930",
"D  c #6A353D",
"F  c #1C5D00",
"G  c #175719",
"H  c #304A0D",
"J  c #235D00",
"K  c #25581A",
"L  c #31561F",
"P  c #1B6100",
"I  c #246200",
"U  c #3D7801",
"Y  c #2C781D",
"T  c #20592C",
"R  c #307F2E",
"E  c #2F7829",
"W  c #447E02",
"Q  c #497804",
"!  c #406B19",
"~  c #4C7519",
"^  c #52761C",
"/  c #4C692C",
"(  c #486827",
")  c #536C27",
"_  c #52732B",
"`  c #4D633D",
"'  c #546C36",
"]  c #546B3F",
"[  c #4A7133",
"{  c #4C7727",
"}  c #6D2C4C",
"|  c #712D56",
" . c #7A2F50",
".. c #466345",
"X. c #7F5362",
"o. c #9D1D34",
"O. c #8A182F",
"+. c #A91B33",
"@. c #982433",
"#. c #AC3F3A",
"$. c #B72D4A",
"%. c #B6394A",
"&. c #A73B56",
"*. c #B23E56",
"=. c #C73D5E",
"-. c #C5354E",
";. c #8C4D5E",
":. c #974857",
">. c #81525A",
",. c #A7424B",
"<. c #AB4255",
"1. c #A4445A",
"2. c #B4435F",
"3. c #AC5C5D",
"4. c #B9595B",
"5. c #AC635C",
"6. c #BD6152",
"7. c #8E4862",
"8. c #9A4263",
"9. c #885276",
"0. c #BC5E63",
"q. c #AA4B61",
"w. c #976774",
"e. c #A1637A",
"r. c #C5575A",
"t. c #458200",
"y. c #659B0C",
"u. c #6C9E16",
"i. c #69971B",
"p. c #6C9E1C",
"a. c #629E1A",
"s. c #729C1E",
"d. c #5FA11D",
"f. c #6DA31C",
"g. c #6EA313",
"h. c #72A21C",
"j. c #72A61A",
"k. c #5E9E30",
"l. c #6F9D22",
"z. c #6D9C29",
"x. c #649F27",
"c. c #749C2C",
"v. c #7A9A2C",
"b. c #759B2B",
"n. c #6F9931",
"m. c #679A34",
"M. c #719634",
"N. c #729C31",
"B. c #749438",
"V. c #759F3C",
"C. c #6DA223",
"Z. c #6DA32C",
"A. c #65AD27",
"S. c #72A221",
"D. c #79AC24",
"F. c #79A42A",
"G. c #77A72A",
"H. c #6BA53B",
"J. c #65AA32",
"K. c #78AB2D",
"L. c #5E9E4A",
"P. c #5E9E54",
"I. c #738E4C",
"U. c #689A49",
"Y. c #7C9B42",
"T. c #7B9249",
"R. c #779644",
"E. c #7B9759",
"W. c #6E8944",
"Q. c #5BA24D",
"!. c #5DA343",
"~. c #5BA355",
"^. c #5CA850",
"/. c #7C8D6A",
"(. c #778868",
"). c #7B8C77",
"_. c #7B9862",
"`. c #80A426",
"'. c #9DCB3B",
"]. c #9CC43D",
"[. c #A3CB3A",
"{. c #A5D33F",
"}. c #809B4C",
"|. c #9CB651",
" X c #818165",
".X c #8A9160",
"XX c #878878",
"oX c #9AC643",
"OX c #9DC74A",
"+X c #9DC753",
"@X c #A4CD43",
"#X c #A4C74A",
"$X c #A4CB4C",
"%X c #A5D147",
"&X c #A4D24B",
"*X c #AFD149",
"=X c #A5CA50",
"-X c #A7CA5C",
";X c #A8CA65",
":X c #EDFFDF",
">X c #EEFFE3",
",X c #F5FFE6",
"<X c #F5FFEC",
"1X c #EEFFF2",
"2X c #F4FFF3",
/* pixels */
".                     #                               o     o   ",
"    +                         X     o o                         ",
"      o   o     O O +     . . .     o o o o o                   ",
"#     + o o     O o       . .         o o                       ",
"                  O   o O o o o         o o     o         o     ",
"  +     . 5 5 2       b - b v v v o     j - k j O         o   o ",
"  o o % M 5.r.0.M . b XX/./.(.).).a   b (..X.X Xz =   . .   o   ",
"X   o $ n 1.%.,.D 7 3 , h g h : 5 3 7 6 > > > h c =   .         ",
"      O & V C O.Z A ;.0.4.0.,.0.<.%.2.%.r.#.6.5.w.c . O     X   ",
"      o c 9.| V c V B O.o.o.%.o.$.=.$.-.+.%.@.O.Z x =           ",
"      . < e.7.C }  .8.8.1.1.2.*.<.1.&.&.,.1.:.;.>.c o o     X   ",
"  @   $ Z w.>.1 6 6 6 Z 1 M m m ; N M M Z 1 c 7 7 j O   o     # ",
".   # . < w.k q ) ^ ~ Y L ,X<X,X:XK L L 1X1X2X<XH / p       .   ",
"  #   # $ b w [ H.d.A.J.Y G G K G R ^.R G T G K ~ R.d   @   . . ",
"o o   X . . q }.N.S.S.Z.k.~.P.P.P.U.!.^.~.~.P.m.Z.B.r o o   @   ",
"o o       . f T.c.S.s.Z.I F F F J J J F P P P I C.Y.i o o o o o ",
"o       +   q Y.c.h.l.Q Z.Z.l.C.m.H.H.k.J.J.x.Z.Q V.i o         ",
"            f I.M.F.f.p.f.h.u.D.t.U U W t.f.G.x.V.W.i +         ",
"              e _ M.p.D.h.l.G.i.g.D.C.C.C.f.a.n.) l             ",
"o             X 0 ~ K.y.S.l.c.F.A.g.y.f.j.Z.Q _ 0         . .   ",
"    o         X 0 R.x.p.Q N.z.C.g.g.g.h.f.c.9 0 X               ",
"    o .       X r E.V.z.F n.-X|.&X%X&XoX&Xn._.i X       .   .   ",
".           o + v ..[ { 9 ;XOX%X@X[.#X$XOX;XI.q X             o ",
"                  d 9 u H.OX%X[.[.%X=X=X$XOXY.y X       . .   o ",
"                  t ~ Z.s.'.%X[.[.*X#X#X[.@Xv.q X o o *         ",
"    o           d / N.h.S.F.+X-X;X|.;X;X#X`.v.}.w o o o         ",
"    o o         d ' B.N.R.y 8 r f j w q 0 B.v.V.i +             ",
"    o o         i ` / _ ] w o o     o   j ' ) ) w               ",
"    o           o v i i p +               p a p X     o         ",
"    o           o o           @   .     * * * o                 ",
"        .           *     # %   .   #   o * X                   ",
"                  o o o     . .         * *                     "
};
