/* XPM */
static char *result[] = {
/* columns rows colors chars-per-pixel */
"64 64 11 1 ",
"  c #211F30",
". c #48475B",
"X c #62677A",
"o c #BA570B",
"O c #CE8B16",
"+ c #E1CA33",
"@ c #F7EC8A",
"# c #AFBBC3",
"$ c #D8E1E4",
"% c white",
"& c None",
/* pixels */
"&&&&&&&&&&&&&&&&&&&&&&&&&&&&&&&&&&&&&&&&&&&&&&&&&&&&&&&&&&&&&&&&",
"&&&&&&&&&&&&&&&&&&&&&&&&&&&&&&&&&&&&&&&&&&&&&&&&&&&&&&&&&&&&&&&&",
"&&&&&&&&&&&&&&&&&&&&&&&&&&&&&&&&&&&&&&&&&&&&&&&&&&&&&&&&&&&&&&&&",
"&&&&&&&&&&&&&&&&&&&&&&&&&&&&&&&&&&&&&&&&&&&&&&&&&&&&&&&&&&&&&&&&",
"&&&&&&&&&&&&&&&&&&&&&&&&&&&&&&&&&&&&&&&&&&&&&&&&&&&&&&&&&&&&&&&&",
"&&&&&&&&&&&&&&&&&&&&&&&&&&&&&&&&&&&&&&&&&&&&&&&&&&&&&&&&&&&&&&&&",
"&&&&&&&&&&&&&&&&&&&&&&&&&&&&&&&&&&&&&&&&&&&&&&&&&&&&&&&&&&&&&&&&",
"&&&&&&&&&&&&&&&&&&&&&&&&&&&&&&&&&&&&&&&&&&&&&&&&&&&&&&&&&&&&&&&&",
"&&&&&&&&&&&&&&&&&&&&&&&&&&&&&&&&&&&&&&&&&&&&&&&&&&&&&&&&&&&&&&&&",
"&&&&&&&&&&&&&&&&&&&&&&&&&&&&&&&&&&&&&&&&&&&&&&&&&&&&&&&&&&&&&&&&",
"&&&&&&&&&&&&&&&&&&&&&&&&&&&&&&&&&&&&&&&&&&&&&&&&&&&&&&&&&&&&&&&&",
"&&&&&&&&&&&&&&&&&&&&&&&&&&&&&&&&&&&&&&&&&&&&&&&&&&&&&&&&&&&&&&&&",
"&&&&&&&&&&&&&&&&&&&&&&&&&&&&&&&&&&&&&&&&&&&&&&&&&&&&&&&&&&&&&&&&",
"&&&&&&&&&&&&&&&&&&&&&&&&&&&&&&&&&&&&&&&&&&&&&&&&&&&&&&&&&&&&&&&&",
"&&&&&&&&&&&&&&&&&&&&&&&&&&&&&&&&&&&&&&&&&&&&&&&&&&&&&&&&&&&&&&&&",
"&&&&&&&&&&&&&&&&&&&&&&&&&&&&&&&&&&&&&&&&&&&&&&&&&&&&&&&&&&&&&&&&",
"&&&&&&&&&&&&&&&&&&&&&&&&&&&&&&&&&&&&&&&&&&&&&&&&&&&&&&&&&&&&&&&&",
"&&&&&&&&&&&&&&&&&&&&&&&&&&&&&&&&&&&&&&&&&&&&&&&&&&&&&&&&&&&&&&&&",
"&&&&&&&&&&&&&&&&&&&&&&&&&&&&&&&&&&&&&&&&&&&&&&&&&&&&&&&&&&&&&&&&",
"&&&&&&&&&&&&&&&&&&&&&&&&&&&&&&&&&&&&&&&&&&&&&&&&&&&&&&&&&&&&&&&&",
"&&&&&&&&&&&&&&&&&                              &&&&&&&&&&&&&&&&&",
"&&&&&&&&&&&&&&&& O+@@@@@@@@@@@@@@@@@@@@%@%%@%%% &&&&&&&&&&&&&&&&",
"&&&&&&&&&&&      O+++++++++++++++++++++@+@@+@@@      &&&&&&&&&&&",
"&&&&&&&&&& %@@+O     oooooooooooooooooooooo     +@@%% &&&&&&&&&&",
"&&&&&&&&& %@@++O  OO++++++++++++++++++++++++++  +++@@% &&&&&&&&&",
"&&&&&&&&& %@+    OO+++@@@@@@@@@@@@@@@@@@@@@@@++    +@% &&&&&&&&&",
"&&&&&&&&& @+ &&& OO++@@+@@@@@@@@@@@@@%%@@%%@@@+ &&& +@ &&&&&&&&&",
"&&&&&&&&& %+ &&& OO++@@@@@@@@@@@@@@@@%%@%%%%@@+ &&& +@ &&&&&&&&&",
"&&&&&&&&& @+ &&& OO++@+@@@@@@@@@@@@@@@@@%%%%@@+ &&& +% &&&&&&&&&",
"&&&&&&&&& @+ &&& OO++@@@@@@@@@@@@@@@@@@@@%%@@@+ &&& +% &&&&&&&&&",
"&&&&&&&&& @+ &&& OO++@@@@@@@@@@@@@@@@@@@@@@@@@+ &&& +@ &&&&&&&&&",
"&&&&&&&&& @+ &&& OO++@@@@@@@@@@@@@@@@@@@@@@%@@+ &&& +@ &&&&&&&&&",
"&&&&&&&&& @+ &&& OO++@@@@@@@@@@@@@@@@@@@@@@@@@+ &&& +@ &&&&&&&&&",
"&&&&&&&&& @+ &&& OO++@@@@@@@@@@@@@@@@@@@@@@@@@+ &&& +@ &&&&&&&&&",
"&&&&&&&&& @+ &&& OO++@@+@@@@@@@@@@@@@@@@@@@@@@+ &&& +@ &&&&&&&&&",
"&&&&&&&&& @@+    OO+++@@@++@@@@@@@@@@@@@@+@@@++    +@@ &&&&&&&&&",
"&&&&&&&&& +@@@+O OO++++@@++@@+@@@@@@@@@@@@@@+++ +@@@@+ &&&&&&&&&",
"&&&&&&&&&& ++++OO OO+++++@@@@@@@@@@@@@@@@@++++ ++++++ &&&&&&&&&&",
"&&&&&&&&&&&       OOO++++++++++++++++++++++++O       &&&&&&&&&&&",
"&&&&&&&&&&&&&&&&&& OOOO++++++++++++++++++++OO &&&&&&&&&&&&&&&&&&",
"&&&&&&&&&&&&&&&&&&&  OOOOOOOOOOOOOOOOOOOOOO  &&&&&&&&&&&&&&&&&&&",
"&&&&&&&&&&&&&&&&&&&&&          oo          &&&&&&&&&&&&&&&&&&&&&",
"&&&&&&&&&&&&&&&&&&&&&&&&&&&&  ++++  &&&&&&&&&&&&&&&&&&&&&&&&&&&&",
"&&&&&&&&&&&&&&&&&&&&&&&&&&&& +@@@@@ &&&&&&&&&&&&&&&&&&&&&&&&&&&&",
"&&&&&&&&&&&&&&&&&&&&&&&&&&&   oooo   &&&&&&&&&&&&&&&&&&&&&&&&&&&",
"&&&&&&&&&&&&&&&&&&&&&&&&&& O+@@@@@@%% &&&&&&&&&&&&&&&&&&&&&&&&&&",
"&&&&&&&&&&&&&&&&&&&&&&&&&& O+@@@@@@@@ &&&&&&&&&&&&&&&&&&&&&&&&&&",
"&&&&&&&&&&&&&&&&&&&&&&&&&& O+++++++++ &&&&&&&&&&&&&&&&&&&&&&&&&&",
"&&&&&&&&&&&&&&&&&&&&&&&&&&&   oo+o   &&&&&&&&&&&&&&&&&&&&&&&&&&&",
"&&&&&&&&&&&&&&&&&&&&&&&&&&&& ++++++ &&&&&&&&&&&&&&&&&&&&&&&&&&&&",
"&&&&&&&&&&&&&&&&&&&&&&&&&&&& +@@@@@ &&&&&&&&&&&&&&&&&&&&&&&&&&&&",
"&&&&&&&&&&&&&&&&&&&&&&&&&&& ++@@@@@+ &&&&&&&&&&&&&&&&&&&&&&&&&&&",
"&&&&&&&&&&&&&&&&&&&&&      +++++@@+++      &&&&&&&&&&&&&&&&&&&&&",
"&&&&&&&&&&&&&&&&&&&& ++@@@@@@@@@@@@@@@@%@%% &&&&&&&&&&&&&&&&&&&&",
"&&&&&&&&&&&&&&&&&&& O+++++++++++++++++++++++ &&&&&&&&&&&&&&&&&&&",
"&&&&&&&&&&&&&&&&&&& OOOOOOOOOOOOOOOOOOOOOOOO &&&&&&&&&&&&&&&&&&&",
"&&&&&&&&&&&&&&&                                  &&&&&&&&&&&&&&&",
"&&&&&&&&&&&&&&& .XXX%%%%XXXX%%%%XXXX%%%%XXXX%%%% &&&&&&&&&&&&&&&",
"&&&&&&&&&&&&&&&  ...$$$$....$$$$....$$$$....$$$% &&&&&&&&&&&&&&&",
"&&&&&&&&&&&&&&&  ...$$$$....$$$$....$$$$....$$$% &&&&&&&&&&&&&&&",
"&&&&&&&&&&&&&&&  ...$$$$....$$$$....$$$$....$$$% &&&&&&&&&&&&&&&",
"&&&&&&&&&&&&&&& #$$$....$$$$....$$$$....$$$$...X &&&&&&&&&&&&&&&",
"&&&&&&&&&&&&&&& #$$$....$$$$....$$$$....$$$$...X &&&&&&&&&&&&&&&",
"&&&&&&&&&&&&&&& ####    ####    ####    ####   . &&&&&&&&&&&&&&&"
};
