/* XPM */
static char *result[] = {
/* columns rows colors chars-per-pixel */
"28 28 6 1 ",
"  c #211F30",
". c #62677A",
"X c #858D99",
"o c #AFBBC3",
"O c #D8E1E4",
"+ c None",
/* pixels */
"++++++++++++++++++++++++++++",
"++++++++++++++ +++++++++++++",
"+++++++++++++ O ++++++++++++",
"++++++++++++ OoX +++++++++++",
"+++++++++++ oXXXX ++++++++++",
"+++++    ++       ++    ++++",
"+++++ OoX  ooooXXX  XoO ++++",
"+++++ oX ooXXXXXXXX. Xo ++++",
"+++++ X oXXXXXXXXXXX. X ++++",
"++++++ oXooXXXXXXXXX.. +++++",
"++++++ XXooXXXXXXXXXX. +++++",
"++++  oXXXXXXXXXXXXXX..  +++",
"+++ o XXoXXXXXXXXXXXX.. o ++",
"++ OX XXXXXXXXXXXXXXX.. XO +",
"+ OoX XXXXXXXXXXXXX.X.. XoO ",
"++ XX XXXXXXXXXXXXXXX.. XX +",
"+++ X XXXXXXXXXXXXXX... X ++",
"++++  .XXXXXXXXXX..X...  +++",
"++++++ XXXXXXXX.X..X.. +++++",
"++++++ ..XXXXXXXXXX... +++++",
"+++++ X ...XXXXX..... X ++++",
"+++++ oX ........... Xo ++++",
"+++++ OoX  .......  XoO ++++",
"+++++    ++       ++    ++++",
"+++++++++++ oXXXX ++++++++++",
"++++++++++++ OoX +++++++++++",
"+++++++++++++ O ++++++++++++",
"++++++++++++++ +++++++++++++"
};
